<svg xmlns="http://www.w3.org/2000/svg" width="48" height="48" viewBox="0 0 48 48" fill="none">
  <g clip-path="url(#clip0_174_12285)">
    <path d="M12.75 28.875V38.625C12.75 41.3175 19.8015 43.5 28.5 43.5C37.1985 43.5 44.25 41.3175 44.25 38.625V28.875H12.75Z" fill="#881421"></path>
    <path d="M12.75 19.125V28.875C12.75 31.5675 19.8015 33.75 28.5 33.75C37.1985 33.75 44.25 31.5675 44.25 28.875V19.125H12.75Z" fill="#AF2031"></path>
    <path d="M12.75 9.375V19.125C12.75 21.8175 19.8015 24 28.5 24C37.1985 24 44.25 21.8175 44.25 19.125V9.375H12.75Z" fill="#C94F60"></path>
    <path d="M12.75 9.375C12.75 10.0152 13.1574 10.6491 13.9489 11.2406C14.7404 11.832 15.9005 12.3695 17.3631 12.8221C18.8256 13.2748 20.5619 13.6339 22.4727 13.8789C24.3836 14.1239 26.4317 14.25 28.5 14.25C30.5683 14.25 32.6164 14.1239 34.5273 13.8789C36.4381 13.6339 38.1744 13.2748 39.6369 12.8221C41.0995 12.3695 42.2596 11.832 43.0511 11.2406C43.8426 10.6491 44.25 10.0152 44.25 9.375C44.25 8.73481 43.8426 8.10088 43.0511 7.50942C42.2596 6.91796 41.0995 6.38054 39.6369 5.92785C38.1744 5.47517 36.4381 5.11608 34.5273 4.87109C32.6164 4.6261 30.5683 4.5 28.5 4.5C26.4317 4.5 24.3836 4.6261 22.4727 4.87109C20.5619 5.11608 18.8256 5.47517 17.3631 5.92785C15.9005 6.38054 14.7404 6.91796 13.9489 7.50942C13.1574 8.10088 12.75 8.73481 12.75 9.375Z" fill="#E08095"></path>
    <path opacity="0.2" d="M24.75 15.2475V35.0025C24.7517 35.1033 24.7416 35.204 24.72 35.3025C24.6517 35.7082 24.4416 36.0764 24.127 36.3416C23.8124 36.6067 23.4139 36.7514 23.0025 36.75H12.75V13.5H23.0025C23.2321 13.4996 23.4595 13.5445 23.6717 13.6322C23.8839 13.7199 24.0767 13.8486 24.239 14.011C24.4014 14.1733 24.5301 14.3661 24.6178 14.5783C24.7055 14.7905 24.7504 15.0179 24.75 15.2475Z" fill="black"></path>
    <path opacity="0.1" d="M25.5 15.2475V33.5025C25.4937 34.1629 25.2286 34.7946 24.7616 35.2616C24.2946 35.7286 23.6629 35.9937 23.0025 36H12.75V12.75H23.0025C23.6641 12.7524 24.298 13.0163 24.7659 13.4841C25.2337 13.952 25.4976 14.5859 25.5 15.2475Z" fill="black"></path>
    <path opacity="0.2" d="M24.75 15.2475V33.5025C24.7504 33.7321 24.7055 33.9595 24.6178 34.1717C24.5301 34.3839 24.4014 34.5767 24.239 34.7391C24.0767 34.9014 23.8839 35.0301 23.6717 35.1178C23.4595 35.2055 23.2321 35.2504 23.0025 35.25H12.75V13.5H23.0025C23.2321 13.4996 23.4595 13.5445 23.6717 13.6322C23.8839 13.7199 24.0767 13.8486 24.239 14.011C24.4014 14.1733 24.5301 14.3661 24.6178 14.5783C24.7055 14.7905 24.7504 15.0179 24.75 15.2475Z" fill="black"></path>
    <path opacity="0.1" d="M24 15.2475V33.5025C24.0004 33.7321 23.9555 33.9595 23.8678 34.1717C23.7801 34.3839 23.6514 34.5767 23.489 34.7391C23.3267 34.9014 23.1339 35.0301 22.9217 35.1178C22.7095 35.2055 22.4821 35.2504 22.2525 35.25H12.75V13.5H22.2525C22.4821 13.4996 22.7095 13.5445 22.9217 13.6322C23.1339 13.7199 23.3267 13.8486 23.489 14.011C23.6514 14.1733 23.7801 14.3661 23.8678 14.5783C23.9555 14.7905 24.0004 15.0179 24 15.2475Z" fill="black"></path>
    <path d="M4.74975 13.5H22.2502C23.4167 13.5 24 14.0833 24 15.2498V32.7502C24 33.9167 23.4167 34.5 22.2502 34.5H4.74975C3.58325 34.5 3 33.9167 3 32.7502V15.2498C3 14.0833 3.58325 13.5 4.74975 13.5Z" fill="#AF2031"></path>
    <path d="M12.243 18.312H14.8207L18.9615 29.6873H16.5262L15.6142 26.9745H11.3542L10.458 29.6873H8.03845L12.243 18.312ZM15.0667 25.2218L13.7422 21.1043C13.6332 20.8028 13.5509 20.4924 13.4962 20.1765H13.4482C13.3988 20.5007 13.3192 20.8196 13.2105 21.129L11.8702 25.2218H15.0667Z" fill="white"></path>
  </g>
  <defs>
    <clipPath id="clip0_174_12285">
      <rect width="48" height="48" fill="white"></rect>
    </clipPath>
  </defs>
</svg>