<svg xmlns="http://www.w3.org/2000/svg" fill="none" viewBox="0 0 12 12" class="design-iconfont">
  <g clip-path="url(#sx0gxe44a__clip0_85_25860)">
    <path d="M11.5018 5.47419L6.54126 5.47575V0.499762C6.54126 0.223889 6.31716 0 6.04104 0C5.76491 0 5.54084 0.223889 5.54084 0.499762V5.47226L0.501735 5.46949C0.501224 5.46949 0.50074 5.46949 0.500229 5.46949C0.224614 5.46949 0.00102934 5.69188 7.56063e-06 5.96775C-0.00149824 6.24362 0.222113 6.46799 0.498212 6.46899L5.54081 6.47175V11.4562C5.54081 11.7326 5.76491 11.956 6.04101 11.956C6.31711 11.956 6.54123 11.7326 6.54123 11.4562V6.47525L11.4978 6.47369C11.4988 6.47369 11.4993 6.47369 11.4998 6.47369C11.7754 6.47369 11.999 6.2513 12 5.97543C12.001 5.69956 11.7774 5.47519 11.5018 5.47419Z" fill="#fff"/>
  </g>
  <defs>
    <clipPath id="sx0gxe44a__clip0_85_25860">
      <path fill="#fff" d="M0 0H12V12H0z"/>
    </clipPath>
  </defs>
</svg>
