<svg fill="none" xmlns="http://www.w3.org/2000/svg" viewBox="0 0 20 20" class="design-iconfont">
  <path d="M10.6294 0.894139C10.2402 0.667113 9.75895 0.667124 9.36975 0.894168L2.49514 4.90458C2.11113 5.12859 1.875 5.53971 1.875 5.98428V6.41723C1.50137 6.63336 1.25 7.03732 1.25 7.5C1.25 8.19036 1.80964 8.75 2.5 8.75C3.19036 8.75 3.75 8.19036 3.75 7.5C3.75 7.03732 3.49863 6.63336 3.125 6.41723V5.98428L9.99961 1.97388L16.875 5.9843V8.75H18.125V5.9843C18.125 5.53971 17.8888 5.12857 17.5048 4.90457L10.6294 0.894139Z" fill="#7F7F7F"/>
  <path d="M18.75 12.5C18.75 12.9627 18.4986 13.3666 18.125 13.5828V14.0163C18.125 14.4609 17.8888 14.8721 17.5048 15.0961L10.6294 19.1065C10.2402 19.3335 9.75895 19.3335 9.36975 19.1065L2.49514 15.0961C2.11113 14.872 1.875 14.4609 1.875 14.0163V11.25H3.125V14.0163L9.99961 18.0267L16.875 14.0163V13.5828C16.5014 13.3666 16.25 12.9627 16.25 12.5C16.25 11.8096 16.8096 11.25 17.5 11.25C18.1904 11.25 18.75 11.8096 18.75 12.5Z" fill="#7F7F7F"/>
  <path d="M6.17829 13.75H5L7.64755 6.25H8.93002L11.5776 13.75H10.3993L9.72664 11.7651H6.85209L6.17829 13.75ZM8.31932 7.61231H8.26184L7.17531 10.813H9.40398L8.31932 7.61231Z" fill="#7F7F7F"/>
  <path d="M13.7492 6.25V13.75H12.6392V6.25H13.7492Z" fill="#7F7F7F"/>
</svg>
