<svg xmlns="http://www.w3.org/2000/svg" width="48" height="48" viewBox="0 0 48 48" fill="none">
  <g clip-path="url(#clip0_174_12152)">
    <path d="M8.58461 31.8877C8.09836 31.7871 7.66117 31.5232 7.34569 31.1397C7.03022 30.7563 6.85545 30.2764 6.85044 29.7799V18.1868C6.8688 17.694 7.04841 17.2209 7.3617 16.8401C7.67499 16.4593 8.10462 16.1919 8.58461 16.079L19.3489 13.746L20.4795 9.13268H7.981C6.93604 9.12573 5.90003 9.32555 4.93261 9.72063C3.96519 10.1157 3.08547 10.6983 2.34411 11.4347C1.60275 12.1712 1.01439 13.047 0.612906 14.0118C0.211419 14.9766 0.00473763 16.0112 0.00476074 17.0562V30.7572C0.0185581 32.8688 0.863189 34.89 2.35591 36.3837C3.84863 37.8773 5.8694 38.7231 7.981 38.7382H20.4795L19.3489 34.1441L8.58461 31.8877ZM39.9051 9.13268H27.3108L28.4605 13.746L39.2249 16.079C39.7107 16.1804 40.1474 16.4446 40.4627 16.8278C40.7781 17.2111 40.9532 17.6905 40.959 18.1868V29.7799C40.9391 30.2722 40.7589 30.7445 40.4459 31.125C40.1329 31.5055 39.7041 31.7733 39.2249 31.8877L28.4605 34.2207L27.3108 38.834H39.9051C40.9567 38.8365 41.9983 38.6314 42.9704 38.2303C43.9424 37.8292 44.8257 37.24 45.5694 36.4967C46.3132 35.7534 46.9029 34.8705 47.3045 33.8987C47.7062 32.9269 47.912 31.8853 47.9101 30.8338V17.0562C47.8849 14.9485 47.0309 12.9354 45.5328 11.4526C44.0347 9.96971 42.013 9.13631 39.9051 9.13268Z" fill="#F76E05"></path>
    <path d="M19.349 23.3797H28.5325V24.5103H19.349V23.3797Z" fill="#F76E05"></path>
  </g>
  <defs>
    <clipPath id="clip0_174_12152">
      <rect width="48" height="48" fill="white"></rect>
    </clipPath>
  </defs>
</svg>