<svg xmlns="http://www.w3.org/2000/svg" width="48" height="48" viewBox="0 0 48 48" fill="none">
  <g clip-path="url(#clip0_174_12162)">
    <path d="M26.7 16.98C23.91 17.31 20.289 17.52 17.667 18.72C14.646 20.1 12.537 22.89 12.537 26.97C12.537 32.22 15.672 34.86 19.719 34.86C23.139 34.86 24.99 34.02 27.642 31.2C28.527 32.52 28.812 33.18 30.408 34.56C30.777 34.77 31.233 34.74 31.548 34.44C32.517 33.54 34.254 31.95 35.223 31.08C35.622 30.75 35.538 30.21 35.253 29.73C34.368 28.44 33.429 27.42 33.429 25.05V17.22C33.429 13.89 33.657 10.83 31.32 8.52C29.466 6.66 26.415 6 24.078 6C19.518 6 14.418 7.8 13.335 13.74C13.221 14.37 13.647 14.7 14.046 14.79L18.693 15.33C19.119 15.3 19.434 14.85 19.518 14.4C19.917 12.36 21.543 11.37 23.367 11.37C24.363 11.37 25.476 11.76 26.073 12.69C26.757 13.74 26.643 15.15 26.643 16.35V16.98H26.703H26.7ZM25.788 27.51C25.02 28.92 23.823 29.82 22.455 29.82C20.601 29.82 19.545 28.35 19.545 26.16C19.545 21.87 23.223 21.06 26.7 21.06V22.14C26.7 24.09 26.73 25.74 25.788 27.51Z" fill="black"></path>
    <path d="M36.7919 36.84C32.7419 38.64 28.3559 39.51 24.3629 39.51C18.4349 39.51 12.7079 37.8 8.06094 34.95C7.66194 34.71 7.34994 35.13 7.69194 35.46C11.9939 39.54 17.6669 42 23.9639 42C28.4699 42 33.6839 40.5 37.3049 37.71C37.9049 37.26 37.4189 36.54 36.7919 36.84Z" fill="#F59700"></path>
    <path d="M40.353 34.68C39.954 34.17 36.591 33.72 34.512 35.25C34.197 35.49 34.254 35.82 34.596 35.76C35.766 35.61 38.331 35.28 38.814 35.91C39.27 36.54 38.304 39.09 37.875 40.23C37.731 40.59 38.016 40.71 38.331 40.44C40.239 38.76 40.752 35.19 40.353 34.68Z" fill="#F59700"></path>
  </g>
  <defs>
    <clipPath id="clip0_174_12162">
      <rect width="48" height="48" fill="white"></rect>
    </clipPath>
  </defs>
</svg>