<svg xmlns="http://www.w3.org/2000/svg" width="12" height="13" viewBox="0 0 12 13" fill="none">
  <g clip-path="url(#clip0_185_11450)">
    <path d="M5.994 11.858C5.712 11.858 5.484 11.63 5.484 11.348L5.484 1.682C5.484 1.4 5.712 1.172 5.994 1.172C6.276 1.172 6.504 1.4 6.504 1.682L6.504 11.354C6.498 11.63 6.27 11.858 5.994 11.858Z" fill="#DADDE7"></path>
    <path d="M3.096 5.77399C2.868 5.61199 2.814 5.29399 2.976 5.06599L5.574 1.38799C5.736 1.15999 6.054 1.10599 6.282 1.26799C6.51 1.42999 6.564 1.74799 6.402 1.97599L3.804 5.65399C3.642 5.88199 3.33 5.93599 3.096 5.77399Z" fill="#DADDE7"></path>
  </g>
  <defs>
    <clipPath id="clip0_185_11450">
      <rect width="12" height="12" fill="white" transform="translate(12 12.5) rotate(-180)"></rect>
    </clipPath>
  </defs>
</svg>