<svg xmlns="http://www.w3.org/2000/svg" width="16" height="16" viewBox="0 0 16 16" fill="none">
  <g clip-path="url(#clip0_85_25866)">
    <path d="M0.595587 6.50577L5.54936 9.37971C6.30566 9.83349 7.28885 9.26627 7.09978 8.39652V2.64863C7.28885 1.74107 6.34348 1.21166 5.54936 1.66544L0.595587 4.50157C-0.198529 4.95535 -0.198529 6.05199 0.595587 6.50577Z" fill="#098EFE"></path>
    <path d="M15.1922 6.35451C16.5535 8.54778 16.0619 10.8167 14.7006 12.2158C13.9065 13.01 12.772 13.5394 11.562 13.5394H8.12078C7.55356 13.5394 7.09978 13.0856 7.09978 12.5184C7.09978 11.989 7.55356 11.5352 8.08297 11.5352H11.4485C12.1292 11.5352 12.7342 11.2705 13.188 10.8167C14.0199 9.98475 14.2846 8.50997 13.188 7.22425C12.8855 6.88392 12.2426 6.5814 11.7888 6.5814H7.06196V4.61502H11.9401C13.2636 4.61502 14.5115 5.25787 15.1922 6.35451Z" fill="#098EFE"></path>
  </g>
  <defs>
    <clipPath id="clip0_85_25866">
      <rect width="16" height="16" fill="white" transform="matrix(1 0 0 -1 0 16)"></rect>
    </clipPath>
  </defs>
</svg>