<svg xmlns="http://www.w3.org/2000/svg" width="16" height="16" viewBox="0 0 16 16" fill="none">
  <g clip-path="url(#clip0_85_26087)">
    <path d="M13 7C13.0881 7.00003 13.1747 7.02335 13.2509 7.06761C13.3271 7.11186 13.3903 7.17547 13.434 7.252L15.434 10.752C15.4771 10.8275 15.4998 10.913 15.4998 11C15.4998 11.087 15.4771 11.1725 15.434 11.248L13.434 14.748C13.3903 14.8245 13.3271 14.8881 13.2509 14.9324C13.1747 14.9766 13.0881 15 13 15H9C8.91187 15 8.82531 14.9766 8.74909 14.9324C8.67288 14.8881 8.60971 14.8245 8.566 14.748L6.566 11.248C6.52285 11.1725 6.50016 11.087 6.50016 11C6.50016 10.913 6.52285 10.8275 6.566 10.752L8.566 7.252C8.60971 7.17547 8.67288 7.11186 8.74909 7.06761C8.82531 7.02335 8.91187 7.00003 9 7H13ZM11.5 1C11.617 0.999961 11.7304 1.04097 11.8203 1.11589C11.9102 1.19081 11.9709 1.29489 11.992 1.41L12 1.5V6H11V2H2V13H7V14H1.5C1.38297 14 1.26964 13.959 1.17974 13.8841C1.08984 13.8092 1.02906 13.7051 1.008 13.59L1 13.5V1.5C0.999961 1.38297 1.04097 1.26964 1.11589 1.17974C1.19081 1.08984 1.29489 1.02906 1.41 1.008L1.5 1H11.5ZM12.709 8H9.29L7.576 10.999L9.291 14H12.708L14.423 10.999L12.709 8ZM11 9.5C11.197 9.5 11.392 9.5388 11.574 9.61418C11.756 9.68956 11.9214 9.80005 12.0607 9.93934C12.1999 10.0786 12.3104 10.244 12.3858 10.426C12.4612 10.608 12.5 10.803 12.5 11C12.5 11.197 12.4612 11.392 12.3858 11.574C12.3104 11.756 12.1999 11.9214 12.0607 12.0607C11.9214 12.1999 11.756 12.3104 11.574 12.3858C11.392 12.4612 11.197 12.5 11 12.5C10.6022 12.5 10.2206 12.342 9.93934 12.0607C9.65803 11.7794 9.5 11.3978 9.5 11C9.5 10.6022 9.65803 10.2206 9.93934 9.93934C10.2206 9.65804 10.6022 9.5 11 9.5ZM11 10.5C10.8674 10.5 10.7402 10.5527 10.6464 10.6464C10.5527 10.7402 10.5 10.8674 10.5 11C10.5 11.1326 10.5527 11.2598 10.6464 11.3536C10.7402 11.4473 10.8674 11.5 11 11.5C11.1326 11.5 11.2598 11.4473 11.3536 11.3536C11.4473 11.2598 11.5 11.1326 11.5 11C11.5 10.8674 11.4473 10.7402 11.3536 10.6464C11.2598 10.5527 11.1326 10.5 11 10.5ZM6 7V8H3V7H6ZM10 4V5H3V4H10Z" fill="#098EFE"></path>
  </g>
  <defs>
    <clipPath id="clip0_85_26087">
      <rect width="16" height="16" fill="white"></rect>
    </clipPath>
  </defs>
</svg>