<svg xmlns="http://www.w3.org/2000/svg" width="16" height="16" viewBox="0 0 16 16" fill="none">
  <path d="M5.11392 7.14054L4.20946 8.64857C4.19435 8.647 4.1763 8.647 4.16129 8.647C4.07397 8.647 3.99117 8.66063 3.91297 8.68467L3.29136 8.06305C3.3163 7.98264 3.329 7.89893 3.32903 7.81474C3.32903 7.35569 2.95573 6.98248 2.49667 6.98248C2.03762 6.98248 1.66452 7.35579 1.66452 7.81474C1.66452 7.97436 1.70965 8.12182 1.78646 8.24828L0.880429 9.75631C0.86532 9.75474 0.847268 9.75474 0.832258 9.75474C0.373206 9.75474 0 10.1279 0 10.5869C0 11.0461 0.373304 11.4192 0.832258 11.4192C1.29121 11.4192 1.66452 11.0459 1.66452 10.5869C1.66448 10.434 1.62232 10.284 1.54266 10.1535L2.4486 8.64376C2.46361 8.64543 2.48176 8.64543 2.49667 8.64543C2.58409 8.64543 2.6668 8.63179 2.74509 8.60785L3.3667 9.22947C3.34176 9.30981 3.32906 9.39346 3.32903 9.47759C3.32903 9.93674 3.70233 10.3098 4.16129 10.3098C4.62024 10.3098 4.99207 9.93664 4.99207 9.47759C4.99207 9.31806 4.94694 9.1706 4.87022 9.04424C4.87022 9.04424 5.80922 7.53768 5.82443 7.53768L5.11392 7.14054Z" fill="white"></path>
  <path d="M5.15856 8.61266L6.0646 7.10296C6.16475 7.10872 6.26513 7.09652 6.36099 7.06695L8.88405 9.58982C8.85909 9.67023 8.84635 9.75394 8.84628 9.83814C8.84628 10.2973 9.21958 10.6704 9.67844 10.6704C10.1377 10.6704 10.5094 10.297 10.5094 9.83814C10.5095 9.68518 10.4673 9.53518 10.3875 9.40469L11.2934 7.89656C11.3085 7.89813 11.3266 7.89813 11.3417 7.89813C11.8007 7.89813 12.1738 7.52483 12.1738 7.06587C12.1738 6.60692 11.8005 6.23509 11.3417 6.23509C10.8825 6.23509 10.5094 6.60839 10.5094 7.06735C10.5094 7.22687 10.5546 7.37443 10.6312 7.50079L9.72671 9.00902C9.7116 9.00735 9.69355 9.00735 9.67844 9.00735C9.59122 9.00735 9.50852 9.02089 9.43032 9.04502L6.90745 6.52225C6.93232 6.44183 6.94499 6.35812 6.94503 6.27394C6.94503 5.81489 6.57172 5.44168 6.11277 5.44168C5.65382 5.44168 5.28051 5.81499 5.28051 6.27394C5.28053 6.42692 5.32273 6.57693 5.40246 6.70748C5.40246 6.70748 4.46327 8.21385 4.44816 8.21385L5.15856 8.61266Z" fill="white"></path>
  <path d="M13.1392 12.1185L15.8138 14.8021C16.0606 15.0358 16.0606 15.4331 15.8224 15.6712C15.5844 15.9185 15.1872 15.9271 14.9486 15.6798L12.2563 12.992C11.7357 13.4246 11.1531 13.7823 10.5175 14.0425C9.69414 14.3873 8.81031 14.5645 7.91768 14.5637C5.93578 14.5637 4.04679 13.685 2.75784 12.1621C2.10895 11.4034 3.09347 10.6927 3.83488 11.5093C4.88562 12.6613 6.35991 13.3143 7.91768 13.3143C8.67233 13.3143 9.38745 13.1644 10.036 12.8952C10.7063 12.6202 11.3154 12.2152 11.8282 11.7036L11.8372 11.6946C12.3448 11.1825 12.7598 10.574 13.0421 9.89386C13.3069 9.2539 13.4572 8.53456 13.4572 7.77962C13.457 7.06405 13.319 6.35522 13.0506 5.69186L13.042 5.66537C12.7693 5.00466 12.3705 4.40343 11.8678 3.89529L11.8369 3.86468C11.3205 3.35706 10.7113 2.94236 10.036 2.66814C9.39216 2.3904 8.67263 2.245 7.91768 2.245C5.66245 2.245 3.72048 3.62186 2.8638 5.55039C2.75784 5.78016 2.54602 5.91692 2.29418 5.91692H2.29016C2.06941 5.91692 1.8885 5.81077 1.7691 5.63466C1.65009 5.45336 1.63665 5.24154 1.72515 5.03826C2.79316 2.64205 5.22969 1 7.91748 1C8.83097 1 9.70974 1.18543 10.5174 1.52066C11.3472 1.86081 12.0973 2.36852 12.7152 2.98612L12.75 3.01741C13.3595 3.63942 13.845 4.3723 14.1848 5.18464L14.1979 5.21956C14.5245 6.01444 14.7013 6.87015 14.7013 7.77952C14.7018 8.66733 14.5262 9.54643 14.1848 10.366C13.9259 10.9992 13.5735 11.5899 13.1392 12.1185Z" fill="white"></path>
</svg>