<svg xmlns="http://www.w3.org/2000/svg" width="16" height="16" viewBox="0 0 16 16" fill="none">
  <g clip-path="url(#clip0_85_25897)">
    <path d="M12.3554 1H3.64291C3.20847 1.00092 2.792 1.18055 2.48425 1.49974C2.17651 1.81894 2.00245 2.25182 2.00001 2.70403V13.2916C1.99934 13.5155 2.04109 13.7373 2.12286 13.9444C2.20463 14.1514 2.32482 14.3397 2.47655 14.4984C2.62828 14.657 2.80858 14.783 3.00713 14.8691C3.20567 14.9552 3.41858 14.9997 3.63366 15H9.86793C9.96915 15 10.0693 14.9783 10.1622 14.9365C10.2551 14.8946 10.3387 14.8334 10.408 14.7566L10.4147 14.7513L12.4025 12.6821C12.4956 12.5854 12.5479 12.4542 12.5479 12.3173C12.548 12.1804 12.4959 12.0491 12.4029 11.9523C12.3569 11.9043 12.3023 11.8663 12.2422 11.8403C12.182 11.8143 12.1176 11.8009 12.0525 11.8009C11.921 11.8008 11.7948 11.8551 11.7018 11.9518L10.625 13.0744V10.282H13.3607C13.4446 10.282 13.5278 10.2647 13.6053 10.2313C13.6829 10.1979 13.7534 10.1488 13.8127 10.087C13.8721 10.0252 13.9192 9.95188 13.9513 9.87114C13.9835 9.7904 14 9.70386 14 9.61646V2.69878C13.9973 2.24681 13.8228 1.81435 13.5146 1.49599C13.2064 1.17763 12.7896 0.999299 12.3554 1ZM13.0284 9.29335H10.4063C10.3069 9.29335 10.2084 9.31373 10.1166 9.35334C10.0247 9.39294 9.94127 9.45099 9.87096 9.52417C9.80066 9.59735 9.74489 9.68423 9.70684 9.77985C9.6688 9.87546 9.64921 9.97794 9.64921 10.0814V13.3853C9.64921 13.5512 9.58596 13.7103 9.47335 13.8277C9.36073 13.9451 9.20796 14.0112 9.04858 14.0114H3.63366C3.45382 14.0112 3.28141 13.9367 3.15417 13.8045C3.02693 13.6722 2.95524 13.4928 2.95479 13.3056V2.71191C2.95524 2.52472 3.02693 2.34534 3.15417 2.21305C3.28141 2.08077 3.45382 2.00636 3.63366 2.00613V1.99825H12.3478C12.5276 1.99848 12.6999 2.07292 12.827 2.20522C12.9541 2.33753 13.0256 2.51692 13.0259 2.70403L13.0284 9.29335Z" fill="#098EFE"></path>
    <path d="M10.8311 6.90121L9.18853 5.13829C9.09519 5.03901 8.97394 4.98989 8.85146 5.00174C8.72898 5.01359 8.6153 5.08545 8.53544 5.2015C8.45557 5.31755 8.41606 5.46829 8.42559 5.62056C8.43513 5.77282 8.49293 5.91415 8.58628 6.01343L9.3567 6.8419H4.41192C4.29825 6.8593 4.19363 6.92779 4.11775 7.03444C4.04188 7.1411 4 7.27857 4 7.42095C4 7.56333 4.04188 7.7008 4.11775 7.80746C4.19363 7.91411 4.29825 7.98259 4.41192 8H10.5307C10.5923 8 10.6534 7.98491 10.7103 7.95559C10.7672 7.92627 10.819 7.88329 10.8625 7.82912C10.9061 7.77494 10.9407 7.71063 10.9643 7.63984C10.9879 7.56906 11 7.49319 11 7.41657C10.9999 7.38723 10.9978 7.35796 10.9937 7.32906C10.993 7.24738 10.9781 7.16687 10.95 7.09302C10.9219 7.01918 10.8814 6.95375 10.8311 6.90121Z" fill="#098EFE"></path>
  </g>
  <defs>
    <clipPath id="clip0_85_25897">
      <rect width="16" height="16" fill="white"></rect>
    </clipPath>
  </defs>
</svg>