<svg xmlns="http://www.w3.org/2000/svg" width="16" height="16" viewBox="0 0 16 16" fill="none">
  <g clip-path="url(#clip0_85_26090)">
    <path d="M13.8735 2.95013L12.3465 1.16581C12.3018 1.11355 12.2475 1.07183 12.1871 1.0433C12.1266 1.01476 12.0614 1.00002 11.9954 1H2.47754C2.21378 1 2 1.23028 2 1.51441V13.4856C2 13.7697 2.21378 14 2.47754 14H13.5197C13.7834 14 13.9972 13.7697 13.9972 13.4856V3.35463C14.0119 3.20939 13.9686 3.06124 13.8735 2.95013ZM5.4066 2.02882H8.23745V4.14579H5.4066V2.02882ZM13.0421 12.9714H2.95508V2.02882H4.45153V4.6602C4.45153 4.94433 4.6653 5.17461 4.92906 5.17461H8.71499C8.97875 5.17461 9.19253 4.94433 9.19253 4.6602V2.02882H11.7862L13.0421 3.49643V12.9714Z" fill="#098EFE"></path>
    <path d="M11.0709 10.9677H4.92906C4.6653 10.9677 4.45153 11.198 4.45153 11.4821C4.45153 11.7663 4.6653 11.9965 4.92906 11.9965H11.071C11.3348 11.9965 11.5486 11.7663 11.5486 11.4821C11.5484 11.198 11.3346 10.9677 11.0709 10.9677ZM11.0709 9.15803H4.92906C4.6653 9.15803 4.45153 9.38831 4.45153 9.67244C4.45153 9.95657 4.6653 10.1868 4.92906 10.1868H11.071C11.3348 10.1868 11.5486 9.95657 11.5486 9.67244C11.5484 9.38831 11.3346 9.15803 11.0709 9.15803Z" fill="#098EFE"></path>
  </g>
  <defs>
    <clipPath id="clip0_85_26090">
      <rect width="16" height="16" fill="white"></rect>
    </clipPath>
  </defs>
</svg>