<svg xmlns="http://www.w3.org/2000/svg" width="16" height="16" viewBox="0 0 16 16" fill="none">
  <g clip-path="url(#clip0_85_26093)">
    <path d="M9.86496 10.8373L9.84454 10.2773L10.2692 9.91154C13.0424 7.52043 14.1542 4.63349 13.7669 2.23364C11.3466 1.83988 8.43637 2.94298 6.05344 5.715L5.69352 6.13384L5.1411 6.121C4.31277 6.10175 3.61043 6.29601 2.91393 6.76443L5.50686 8.50278L4.98769 9.43962C4.86285 9.66479 4.9801 10.1688 5.38552 10.5725C5.79036 10.9761 6.30719 11.0975 6.52478 10.9808L7.45928 10.478L9.20521 13.0942C9.69988 12.3814 9.89529 11.6767 9.86438 10.8367L9.86496 10.8373ZM14.6011 1.21979L14.7446 1.25654L14.7807 1.39888C15.43 3.8349 14.7667 7.57468 11.0305 10.7947C11.0859 12.3166 10.5463 13.5335 9.28979 14.7853L9.07396 15L7.07778 12.0081C6.37719 12.3855 5.3161 12.1504 4.56185 11.3991C3.80643 10.6465 3.57135 9.58953 3.96685 8.87495L1 6.88576L1.21525 6.67168C2.43676 5.45483 3.65885 4.91933 5.16852 4.95433C8.3827 1.21571 12.1557 0.574622 14.6011 1.21979ZM3.94001 12.0121C4.33085 12.403 4.24568 13.0995 3.76851 13.5767C3.13968 14.2061 1.4655 14.4867 1.4655 14.4867C1.4655 14.4867 1.812 12.7483 2.37667 12.1842C2.85384 11.7071 3.54801 11.6196 3.94001 12.0121ZM10.0417 5.08324C9.80965 5.08324 9.58709 5.17543 9.42299 5.33953C9.25889 5.50362 9.16671 5.72619 9.16671 5.95825C9.16671 6.19032 9.25889 6.41288 9.42299 6.57698C9.58709 6.74107 9.80965 6.83326 10.0417 6.83326C10.2738 6.83326 10.4963 6.74107 10.6604 6.57698C10.8245 6.41288 10.9167 6.19032 10.9167 5.95825C10.9167 5.72619 10.8245 5.50362 10.6604 5.33953C10.4963 5.17543 10.2738 5.08324 10.0417 5.08324Z" fill="white"></path>
  </g>
  <defs>
    <clipPath id="clip0_85_26093">
      <rect width="16" height="16" fill="white"></rect>
    </clipPath>
  </defs>
</svg>