<svg xmlns="http://www.w3.org/2000/svg" width="16" height="16" viewBox="0 0 16 16" fill="none">
  <g clip-path="url(#clip0_85_26064)">
    <path d="M7.49341 13.8365C5.77245 13.8371 4.12163 13.1627 2.90365 11.9614C2.31127 11.3745 1.8376 10.6813 1.50804 9.91905C1.1727 9.12786 1 8.27867 1 7.42091C1 6.56314 1.1727 5.71395 1.50804 4.92276C1.83964 4.14582 2.323 3.44109 2.93048 2.84886C3.53796 2.25663 4.25764 1.78853 5.04836 1.47131C5.83908 1.1541 6.68534 0.994002 7.53874 1.00017C8.39213 1.00634 9.23593 1.17866 10.0219 1.50727C11.1983 1.99782 12.2022 2.82017 12.9081 3.87149C13.614 4.9228 13.9905 6.15641 13.9905 7.41802C13.9905 8.67963 13.614 9.91324 12.9081 10.9646C12.2022 12.0159 11.1983 12.8382 10.0219 13.3288C9.22219 13.6643 8.36221 13.837 7.49341 13.8365ZM7.49341 2.07267C6.4228 2.07267 5.37623 2.38634 4.48605 2.97401C3.59587 3.56169 2.90205 4.39697 2.49235 5.37423C2.08264 6.35149 1.97544 7.42684 2.18431 8.46429C2.39318 9.50175 2.90873 10.4547 3.66576 11.2027C4.4228 11.9506 5.38732 12.46 6.43737 12.6664C7.48741 12.8727 8.5758 12.7668 9.56492 12.362C10.554 11.9572 11.3995 11.2717 11.9943 10.3922C12.5891 9.51271 12.9065 8.47869 12.9065 7.42091C12.905 6.00293 12.3342 4.64348 11.3194 3.64082C10.3045 2.63817 8.92858 2.0742 7.49341 2.07267Z" fill="white"></path>
    <path d="M14.4656 16C14.3881 16.0002 14.3113 15.9838 14.2408 15.952C14.1702 15.9201 14.1075 15.8735 14.0569 15.8154L10.9445 12.3537C10.8495 12.2473 10.8011 12.108 10.8099 11.9663C10.8186 11.8247 10.8838 11.6922 10.9912 11.5979C11.0442 11.5508 11.1062 11.5145 11.1736 11.4913C11.2409 11.468 11.3123 11.4583 11.3835 11.4626C11.4547 11.4668 11.5243 11.4851 11.5883 11.5163C11.6523 11.5475 11.7094 11.5909 11.7562 11.6441L14.8686 15.1057C14.9359 15.1836 14.9795 15.2787 14.9943 15.3801C15.0092 15.4814 14.9947 15.5849 14.9526 15.6784C14.9104 15.772 14.8423 15.8518 14.7561 15.9087C14.67 15.9656 14.5693 15.9973 14.4656 16Z" fill="white"></path>
    <path d="M3.9781 9.82674C3.90678 9.82674 3.83617 9.81287 3.77028 9.7859C3.70439 9.75894 3.64452 9.71941 3.5941 9.66959C3.54367 9.61977 3.50367 9.56062 3.47637 9.49552C3.44908 9.43042 3.43504 9.36065 3.43504 9.29019V7.42091C3.42716 7.34616 3.43526 7.27062 3.45882 7.19916C3.48238 7.12771 3.52086 7.06194 3.57178 7.00612C3.6227 6.9503 3.68493 6.90567 3.75442 6.87512C3.82391 6.84457 3.89912 6.82879 3.97518 6.82879C4.05124 6.82879 4.12645 6.84457 4.19594 6.87512C4.26543 6.90567 4.32766 6.9503 4.37858 7.00612C4.4295 7.06194 4.46798 7.12771 4.49154 7.19916C4.5151 7.27062 4.5232 7.34616 4.51532 7.42091V9.29019C4.51533 9.4315 4.45892 9.56711 4.35833 9.66757C4.25775 9.76802 4.12111 9.82522 3.9781 9.82674ZM5.72992 9.82674C5.6586 9.82674 5.58798 9.81287 5.5221 9.7859C5.45621 9.75894 5.39634 9.71941 5.34591 9.66959C5.29549 9.61977 5.25548 9.56062 5.22819 9.49552C5.2009 9.43042 5.18685 9.36065 5.18685 9.29019V4.74391C5.2096 4.62028 5.27555 4.50846 5.37319 4.42794C5.47083 4.34743 5.59398 4.30333 5.72116 4.30333C5.84834 4.30333 5.97148 4.34743 6.06913 4.42794C6.16677 4.50846 6.23271 4.62028 6.25546 4.74391V9.29019C6.25546 9.36065 6.24141 9.43042 6.21412 9.49552C6.18683 9.56062 6.14683 9.61977 6.0964 9.66959C6.04597 9.71941 5.98611 9.75894 5.92022 9.7859C5.85433 9.81287 5.78371 9.82674 5.7124 9.82674H5.72992ZM7.48173 9.82674C7.33872 9.82522 7.20208 9.76802 7.1015 9.66757C7.00091 9.56711 6.9445 9.4315 6.94451 9.29019V6.08241C6.93663 6.00766 6.94474 5.93212 6.96829 5.86066C6.99185 5.78921 7.03033 5.72344 7.08126 5.66762C7.13218 5.6118 7.1944 5.56717 7.26389 5.53662C7.33338 5.50607 7.40859 5.49029 7.48465 5.49029C7.56071 5.49029 7.63592 5.50607 7.70542 5.53662C7.77491 5.56717 7.83713 5.6118 7.88805 5.66762C7.93897 5.72344 7.97746 5.78921 8.00101 5.86066C8.02457 5.93212 8.03267 6.00766 8.0248 6.08241V9.29019C8.0248 9.43249 7.96758 9.56897 7.86574 9.66959C7.76389 9.77021 7.62576 9.82674 7.48173 9.82674ZM9.23355 9.82674C9.09054 9.82522 8.9539 9.76802 8.85332 9.66757C8.75273 9.56711 8.69632 9.4315 8.69633 9.29019V7.42091C8.68845 7.34616 8.69655 7.27062 8.72011 7.19916C8.74367 7.12771 8.78215 7.06194 8.83307 7.00612C8.88399 6.9503 8.94622 6.90567 9.01571 6.87512C9.0852 6.84457 9.16041 6.82879 9.23647 6.82879C9.31253 6.82879 9.38774 6.84457 9.45723 6.87512C9.52672 6.90567 9.58895 6.9503 9.63987 7.00612C9.69079 7.06194 9.72927 7.12771 9.75283 7.19916C9.77639 7.27062 9.78449 7.34616 9.77661 7.42091V9.29019C9.77661 9.43249 9.7194 9.56897 9.61755 9.66959C9.51571 9.77021 9.37758 9.82674 9.23355 9.82674ZM10.9854 9.82674C10.8413 9.82674 10.7032 9.77021 10.6014 9.66959C10.4995 9.56897 10.4423 9.43249 10.4423 9.29019V8.49978C10.4344 8.42504 10.4425 8.34949 10.4661 8.27804C10.4896 8.20659 10.5281 8.14082 10.5791 8.085C10.63 8.02918 10.6922 7.98455 10.7617 7.954C10.8312 7.92345 10.9064 7.90767 10.9824 7.90767C11.0585 7.90767 11.1337 7.92345 11.2032 7.954C11.2727 7.98455 11.3349 8.02918 11.3858 8.085C11.4368 8.14082 11.4753 8.20659 11.4988 8.27804C11.5224 8.34949 11.5305 8.42504 11.5226 8.49978V9.30173C11.5226 9.44304 11.4662 9.57864 11.3656 9.6791C11.265 9.77956 11.1284 9.83676 10.9854 9.83828V9.82674Z" fill="white"></path>
  </g>
  <defs>
    <clipPath id="clip0_85_26064">
      <rect width="16" height="16" fill="white"></rect>
    </clipPath>
  </defs>
</svg>