<svg fill="none" xmlns="http://www.w3.org/2000/svg" viewBox="0 0 20 20" class="design-iconfont">
  <path d="M17.8815 2.78948L1.91855 8.94924C1.01897 9.29636 1.04151 9.80083 1.96442 10.0747L5.82141 11.2191L7.38961 15.8853C7.59492 16.4962 8.13127 16.6251 8.59005 16.1706L10.6132 14.1664L14.6068 17.093C15.1257 17.4732 15.6592 17.2731 15.7992 16.642L18.7135 3.51029C18.8531 2.88099 18.4812 2.55808 17.8815 2.78948ZM15.4523 5.75852L8.64332 11.8251C8.52089 11.9342 8.41009 12.1504 8.39309 12.3104L8.09249 15.1365C8.05873 15.4539 7.94931 15.467 7.84839 15.1628L6.53087 11.1914C6.47933 11.036 6.54993 10.8455 6.68756 10.763L15.3226 5.58369C15.8729 5.25365 15.9315 5.33159 15.4523 5.75852Z" fill="#fff"/>
</svg>
