<svg width="16" height="16" viewBox="0 0 16 16" fill="none" xmlns="http://www.w3.org/2000/svg">
<g clip-path="url(#clip0_313_363)">
<path d="M15.6038 15.8019H0.400098C0.293985 15.8019 0.192219 15.7598 0.117186 15.6847C0.042153 15.6097 0 15.5079 0 15.4018C0 15.2957 0.042153 15.1939 0.117186 15.1189C0.192219 15.0439 0.293985 15.0017 0.400098 15.0017H15.6038C15.7099 15.0017 15.8117 15.0439 15.8867 15.1189C15.9618 15.1939 16.0039 15.2957 16.0039 15.4018C16.0039 15.5079 15.9618 15.6097 15.8867 15.6847C15.8117 15.7598 15.7099 15.8019 15.6038 15.8019ZM9.60234 13.7214L9.28227 14.2015H4.00098L1.25151 11.8393L0.560137 11.3208L1.04025 10.6807L7.66507 0.382141L8.21401 0.258911L14.7236 4.59917L15.4158 5.06088L14.9452 5.70824L9.60234 13.7214ZM8.11878 1.15833L1.68521 11.1608L4.00098 13.4213V13.4013H8.85496L14.2795 5.26413L8.11878 1.15833Z" fill="#E34D59"/>
<path d="M8.00156 0.598194L15.2033 4.59917L12.0025 9.40034L4.80078 5.39937L8.00156 0.598194Z" fill="#E34D59"/>
</g>
<defs>
<clipPath id="clip0_313_363">
<rect width="16" height="16" fill="white"/>
</clipPath>
</defs>
</svg>
