<svg fill="none" xmlns="http://www.w3.org/2000/svg" viewBox="0 0 16 16" class="design-iconfont">
  <path d="M4.5 11C4.77614 11 5 11.2239 5 11.5V14.5C5 14.7761 4.77614 15 4.5 15H0.5C0.223858 15 0 14.7761 0 14.5V11.5C0 11.2239 0.223858 11 0.5 11H4.5ZM15.5 13C15.7761 13 16 13.2239 16 13.5V14.5C16 14.7761 15.7761 15 15.5 15H6.5C6.22386 15 6 14.7761 6 14.5V13.5C6 13.2239 6.22386 13 6.5 13H15.5ZM15.5 10C15.7761 10 16 10.2239 16 10.5V11.5C16 11.7761 15.7761 12 15.5 12H6.5C6.22386 12 6 11.7761 6 11.5V10.5C6 10.2239 6.22386 10 6.5 10H15.5ZM4.5 6C4.77614 6 5 6.22386 5 6.5V9.5C5 9.77614 4.77614 10 4.5 10H0.5C0.223858 10 0 9.77614 0 9.5V6.5C0 6.22386 0.223858 6 0.5 6H4.5ZM15.5 7C15.7761 7 16 7.22386 16 7.5V8.5C16 8.77614 15.7761 9 15.5 9H6.5C6.22386 9 6 8.77614 6 8.5V7.5C6 7.22386 6.22386 7 6.5 7H15.5ZM15.5 4C15.7761 4 16 4.22386 16 4.5V5.5C16 5.77614 15.7761 6 15.5 6H6.5C6.22386 6 6 5.77614 6 5.5V4.5C6 4.22386 6.22386 4 6.5 4H15.5ZM4.5 1C4.77614 1 5 1.22386 5 1.5V4.5C5 4.77614 4.77614 5 4.5 5H0.5C0.223858 5 0 4.77614 0 4.5V1.5C0 1.22386 0.223858 1 0.5 1H4.5ZM15.5 1C15.7761 1 16 1.22386 16 1.5V2.5C16 2.77614 15.7761 3 15.5 3H6.5C6.22386 3 6 2.77614 6 2.5V1.5C6 1.22386 6.22386 1 6.5 1H15.5Z" fill="#098EFE" fill-opacity=".5"/>
</svg>
