<svg width="12" height="11" viewBox="0 0 12 11" fill="none" xmlns="http://www.w3.org/2000/svg">
<path d="M0.6 0H11.4C11.8 0 12 0.2 12 0.6C12 1 11.8 1.2 11.4 1.2H0.6C0.2 1.2 0 1 0 0.6C0 0.2 0.2 0 0.6 0Z" fill="#CBCBCB"/>
<path d="M0.6 4.8H11.4C11.8 4.8 12 5 12 5.4C12 5.8 11.8 6 11.4 6H0.6C0.2 6 0 5.8 0 5.4C0 5 0.2 4.8 0.6 4.8Z" fill="#CBCBCB"/>
<path d="M0.6 9.6H11.4C11.8 9.6 12 9.8 12 10.2C12 10.6 11.8 10.8 11.4 10.8H0.6C0.2 10.8 0 10.6 0 10.2C0 9.8 0.2 9.6 0.6 9.6Z" fill="#CBCBCB"/>
</svg>
