<svg width="48" height="48" viewBox="0 0 48 48" fill="none" xmlns="http://www.w3.org/2000/svg">
<path d="M34.3957 1L47 13.72V43.1609C47.0015 43.6655 46.9033 44.1654 46.7109 44.6318C46.5185 45.0983 46.2357 45.5221 45.8789 45.8789C45.5221 46.2357 45.0983 46.5185 44.6318 46.7109C44.1654 46.9032 43.6655 47.0015 43.1609 47H10.5862C9.57312 46.9939 8.60375 46.5863 7.89061 45.8667C7.17747 45.147 6.77874 44.174 6.78182 43.1609V38.3735H2.91959C2.66751 38.3735 2.41789 38.3239 2.185 38.2274C1.95211 38.131 1.7405 37.9896 1.56225 37.8113C1.38401 37.6331 1.24261 37.4215 1.14615 37.1886C1.04968 36.9557 1.00003 36.7061 1.00003 36.454V20.1609C0.998605 19.9088 1.04805 19.6591 1.14541 19.4266C1.24277 19.1942 1.38604 18.9837 1.56665 18.8079C1.74458 18.631 1.95567 18.4909 2.18783 18.3956C2.41999 18.3004 2.66865 18.2519 2.91959 18.2529H6.78182V4.82755C6.78483 3.81734 7.18588 2.84902 7.89804 2.13253C8.6102 1.41604 9.57607 1.00912 10.5862 1H34.3957ZM33.2393 3.87934H10.5862C10.4598 3.87775 10.3342 3.90149 10.2171 3.94915C10.0999 3.99681 9.99345 4.06743 9.90399 4.15686C9.72829 4.33616 9.62883 4.57652 9.62647 4.82755V18.2529H38.3735C38.6266 18.2498 38.8778 18.2968 39.1126 18.3912C39.3474 18.4856 39.5612 18.6255 39.7418 18.8028C39.9223 18.9801 40.066 19.1914 40.1646 19.4245C40.2632 19.6575 40.3147 19.9078 40.3162 20.1609V36.454C40.3162 36.9631 40.114 37.4513 39.754 37.8113C39.394 38.1713 38.9058 38.3735 38.3967 38.3735H9.62647V43.1609C9.62491 43.2873 9.64868 43.4128 9.69636 43.53C9.74405 43.6471 9.81469 43.7536 9.90412 43.843C9.99356 43.9324 10.1 44.0031 10.2171 44.0507C10.3343 44.0984 10.4598 44.1222 10.5862 44.1206H43.1609C43.2873 44.1222 43.4128 44.0984 43.53 44.0507C43.6471 44.0031 43.7536 43.9324 43.843 43.843C43.9324 43.7536 44.0031 43.6471 44.0508 43.53C44.0984 43.4128 44.1222 43.2873 44.1206 43.1609V14.8763L43.6697 14.4138H38.0035C37.4255 14.4138 36.8531 14.2997 36.3193 14.0782C35.7854 13.8566 35.3005 13.5319 34.8923 13.1227C34.4841 12.7134 34.1607 12.2276 33.9405 11.6932C33.7204 11.1587 33.6078 10.5861 33.6093 10.008V4.22624L33.2393 3.87934ZM9.59178 21.9879C8.74013 21.9332 7.88763 22.0807 7.10386 22.4183C6.32009 22.756 5.62727 23.2741 5.08198 23.9306C4.12943 25.2178 3.65143 26.7948 3.72904 28.3942C3.64079 29.9841 4.10216 31.5561 5.03572 32.8461C5.59635 33.5141 6.30889 34.0381 7.11365 34.3741C7.91841 34.7101 8.79197 34.8483 9.66116 34.7773C10.9187 34.82 12.1498 34.4096 13.1302 33.6209C14.1685 32.7722 14.8563 31.5696 15.0614 30.2443H13.0955C12.9208 31.0576 12.4865 31.7921 11.8582 32.3373C11.2275 32.7835 10.468 33.0109 9.69585 32.9849C9.13444 33.0246 8.57158 32.9312 8.05314 32.7121C7.53469 32.4931 7.07532 32.1547 6.71244 31.7245C6.06363 30.7315 5.75519 29.5546 5.83361 28.371C5.7602 27.1992 6.0774 26.0361 6.73557 25.0638C7.06476 24.6337 7.49358 24.29 7.9851 24.0624C8.47662 23.8347 9.0161 23.73 9.55709 23.7572C10.3026 23.7217 11.0411 23.9154 11.6732 24.3122C12.2715 24.7368 12.6851 25.3738 12.8296 26.093H14.7954C14.662 24.9298 14.0814 23.8641 13.1765 23.1212C12.1548 22.3261 10.8855 21.9167 9.59178 21.9648V21.9879ZM21.2132 21.9879C20.0562 21.936 18.9119 22.2474 17.9407 22.8783C17.5041 23.1465 17.146 23.525 16.9024 23.9757C16.6588 24.4264 16.5383 24.9333 16.5531 25.4454C16.5365 25.9509 16.6607 26.4511 16.9118 26.8901C17.163 27.3291 17.5312 27.6897 17.9754 27.9316C18.888 28.3498 19.8313 28.6977 20.7969 28.9723C21.6149 29.1911 22.4183 29.4615 23.2021 29.7818C23.5252 29.8988 23.807 30.1079 24.0125 30.3833C24.218 30.6587 24.3383 30.9883 24.3585 31.3313C24.3515 31.5893 24.2733 31.8404 24.1324 32.0567C23.9916 32.2731 23.7937 32.4462 23.5606 32.557C22.8964 32.8838 22.1609 33.0388 21.4213 33.008C20.6356 33.0605 19.8526 32.8708 19.178 32.4645C18.8858 32.2155 18.6471 31.9098 18.4762 31.566C18.3052 31.2222 18.2057 30.8473 18.1835 30.464H16.1715C16.1563 31.1361 16.3028 31.8021 16.5986 32.4058C16.8944 33.0094 17.3309 33.5333 17.8713 33.9331C18.9382 34.5792 20.1763 34.8857 21.4213 34.812C22.7087 34.8874 23.9872 34.5557 25.0754 33.8637C25.4907 33.5693 25.8264 33.1764 26.0524 32.7203C26.2785 32.2642 26.3878 31.7591 26.3705 31.2504C26.3781 30.7011 26.2315 30.1607 25.9474 29.6906C25.6633 29.2204 25.253 28.8394 24.7632 28.5907C23.7252 28.1079 22.6453 27.7209 21.537 27.4344C20.8205 27.2279 20.1176 26.9769 19.4324 26.6827C19.1617 26.5678 18.9337 26.3711 18.7803 26.1203C18.6269 25.8694 18.5557 25.5769 18.5767 25.2835C18.559 25.0204 18.6213 24.7581 18.7555 24.5311C18.8896 24.3041 19.0893 24.123 19.3283 24.0116C19.8852 23.7548 20.497 23.6396 21.1091 23.6762C21.8225 23.6282 22.5334 23.8019 23.1443 24.1734C23.6682 24.5964 24.0181 25.1973 24.1272 25.8617H26.093C26.0781 25.2867 25.9379 24.7219 25.6823 24.2066C25.4267 23.6914 25.0617 23.238 24.6129 22.8783C23.6036 22.2265 22.4124 21.9145 21.2132 21.9879ZM29.1689 22.2192H26.9718L31.3544 34.5344H33.7828L38.1654 22.2192H35.9799L32.6033 32.2217L29.1689 22.2192Z" fill="#10A91F"/>
</svg>
