<svg fill="none" xmlns="http://www.w3.org/2000/svg" viewBox="0 0 16 16" class="design-iconfont">
  <g clip-path="url(#jt5vdstbn__clip0_813_921)" fill="#098EFE" fill-opacity=".5">
    <path d="M0 1.94409C0 2.4597 0.84227 2.95419 2.34152 3.31878C3.84077 3.68337 5.87418 3.88819 7.99443 3.88819C10.1147 3.88819 12.1481 3.68337 13.6474 3.31878C15.1466 2.95419 15.9889 2.4597 15.9889 1.94409C15.9889 1.42849 15.1466 0.934 13.6474 0.569412C12.1481 0.204823 10.1147 0 7.99443 0C5.87418 0 3.84077 0.204823 2.34152 0.569412C0.84227 0.934 0 1.42849 0 1.94409Z"/>
    <path d="M7.99443 8.00456C12.4061 8.00456 15.9889 7.13291 15.9889 6.06047V3.39989C15.9889 3.36338 15.9833 3.3223 15.9777 3.2858C15.7385 4.30804 12.2559 5.12036 8 5.12036C3.74409 5.12036 0.255912 4.30348 0.0166905 3.28123C0.00556396 3.31774 0.00556328 3.35425 0.00556328 3.39532V6.0559C0.00556328 7.13291 3.58275 8.00456 7.99443 8.00456Z"/>
    <path d="M7.99443 12.0114C12.4061 12.0114 15.9889 11.1398 15.9889 10.0673V7.40673C15.9889 7.37022 15.9833 7.32915 15.9777 7.29264C15.7385 8.31489 12.2559 9.12721 8 9.12721C3.74409 9.12721 0.255912 8.31489 0.0166905 7.29264C0.00556396 7.32915 0.00556328 7.36566 0.00556328 7.40673V10.0673C0.00556328 11.1398 3.58275 12.0114 7.99443 12.0114Z"/>
    <path d="M15.9777 11.2812C15.7385 12.3035 12.2559 13.1158 8 13.1158C3.74409 13.1158 0.261473 12.3035 0.0222521 11.2812C0.0111255 11.3177 0.0111266 11.3543 0.0111266 11.3953V14.0559C0.0111266 15.1284 3.58832 16 8.00556 16C12.4172 16 16 15.1284 16 14.0559V11.3953C15.9889 11.3588 15.9833 11.3177 15.9777 11.2812Z"/>
  </g>
  <defs>
    <clipPath id="jt5vdstbn__clip0_813_921">
      <path fill="#fff" d="M0 0H16V16H0z"/>
    </clipPath>
  </defs>
</svg>
