<svg width="32" height="32" viewBox="0 0 32 32" fill="none" xmlns="http://www.w3.org/2000/svg">
<path d="M30 20.3744V25.6256C30 28.0416 23.7312 30 16 30C8.4672 30 2.3232 28.1408 2.0128 25.8096L2 25.6256V20.3744C2 22.7904 8.2688 24.7504 16 24.7504C23.5328 24.7504 29.6768 22.8912 29.9872 20.56L30 20.3744ZM30 12.5008V17.7488C30 20.1664 23.7312 22.1248 16 22.1248C8.4672 22.1248 2.3232 20.2656 2.0128 17.9344L2 17.7504V12.5008C2 14.9168 8.2688 16.8752 16 16.8752C23.5328 16.8752 29.6768 15.016 29.9872 12.6848L30 12.5008Z" fill="#098EFE"/>
<path d="M16 2C8.2688 2 2 3.9584 2 6.3744V9.8752C2 12.2912 8.2688 14.2496 16 14.2496C23.7312 14.2496 30 12.2912 30 9.8752V6.3744C30 3.9584 23.7312 2 16 2Z" fill="#66AFF9"/>
</svg>
