<svg xmlns="http://www.w3.org/2000/svg" width="16" height="16" viewBox="0 0 16 16" fill="none">
  <g clip-path="url(#clip0_85_25879)">
    <path d="M7.99766 0.00469971C3.58332 0.00469971 0.00468613 1.68077 0 3.74892V12.2511C0 14.3208 3.5802 16 7.99766 16C12.4151 16 15.9953 14.3208 15.9953 12.2511V3.74892C15.9906 1.68077 12.412 0.00469971 7.99766 0.00469971ZM2.62423 13.9959C2.27902 13.9959 1.99941 13.7163 1.99941 13.3711C1.99941 13.0259 2.27902 12.7463 2.62423 12.7463C2.96944 12.7463 3.24905 13.0259 3.24905 13.3711C3.24905 13.7163 2.96944 13.9959 2.62423 13.9959ZM14.9956 11.0483C14.716 11.228 14.4098 11.3951 14.0771 11.5513C12.437 12.3198 10.2767 12.7432 7.99766 12.7432C5.71864 12.7432 3.55833 12.3198 1.91819 11.5513C1.58547 11.3951 1.27931 11.228 0.999707 11.0483V9.8112C2.36337 10.964 4.98604 11.7434 7.99766 11.7434C11.0093 11.7434 13.6319 10.964 14.9956 9.8112V11.0483ZM1.99941 9.12234C1.99941 8.77713 2.27902 8.49752 2.62423 8.49752C2.96944 8.49752 3.24905 8.77713 3.24905 9.12234C3.24905 9.46755 2.96944 9.74716 2.62423 9.74716C2.27902 9.74716 1.99941 9.46755 1.99941 9.12234ZM14.9956 6.80739C14.716 6.98703 14.4098 7.15417 14.0771 7.31037C12.437 8.0789 10.2767 8.50221 7.99766 8.50221C5.71864 8.50221 3.55833 8.0789 1.91819 7.31037C1.58547 7.15417 1.27931 6.98703 0.999707 6.80739V5.57026C2.36337 6.72304 4.98604 7.5025 7.99766 7.5025C11.0093 7.5025 13.6319 6.72304 14.9956 5.57026V6.80739Z" fill="#098EFE"></path>
  </g>
  <defs>
    <clipPath id="clip0_85_25879">
      <rect width="16" height="16" fill="white"></rect>
    </clipPath>
  </defs>
</svg>