<svg xmlns="http://www.w3.org/2000/svg" width="12" height="13" viewBox="0 0 12 13" fill="none">
  <g clip-path="url(#clip0_185_5811)">
    <path d="M6.006 1.142C6.288 1.142 6.516 1.37 6.516 1.652V11.318C6.516 11.6 6.288 11.828 6.006 11.828C5.724 11.828 5.496 11.6 5.496 11.318V1.646C5.502 1.37 5.73 1.142 6.006 1.142Z" fill="#333333"></path>
    <path d="M8.904 7.22601C9.132 7.38801 9.186 7.70601 9.024 7.93401L6.426 11.612C6.264 11.84 5.946 11.894 5.718 11.732C5.49 11.57 5.436 11.252 5.598 11.024L8.196 7.34601C8.358 7.11801 8.67 7.06401 8.904 7.22601Z" fill="#333333"></path>
  </g>
  <defs>
    <clipPath id="clip0_185_5811">
      <rect width="12" height="12" fill="white" transform="translate(0 0.5)"></rect>
    </clipPath>
  </defs>
</svg>