<svg xmlns="http://www.w3.org/2000/svg" width="48" height="48" viewBox="0 0 48 48" fill="none">
  <g clip-path="url(#clip0_174_12173)">
    <path d="M5.0664 48C4.78356 47.9996 4.51245 47.887 4.31253 47.6869C4.11261 47.4868 4.00021 47.2156 4 46.9328V1.0672C4.00021 0.784364 4.11261 0.513162 4.31253 0.313092C4.51245 0.113022 4.78356 0.000423641 5.0664 0L35.9832 0L44 8.0096V46.9328C43.9996 47.216 43.8868 47.4874 43.6864 47.6875C43.486 47.8876 43.2144 48 42.9312 48H5.0664Z" fill="#0F6AD9"></path>
    <path opacity="0.5" d="M35.9991 0.0192261V6.93603C35.999 7.07613 36.0265 7.21489 36.0801 7.34437C36.1336 7.47384 36.2122 7.59149 36.3112 7.6906C36.4102 7.78971 36.5278 7.86833 36.6573 7.92197C36.7867 7.97562 36.9254 8.00323 37.0655 8.00323H43.9911L35.9991 0.0192261Z" fill="white"></path>
    <path d="M16.7272 26.024H20.8416V32.8H27.0128V26.0232H31.1272L23.9272 18.1176L16.7272 26.0232V26.024ZM31.1272 37.6656V35.4064H16.7272V37.6656H31.1272Z" fill="white"></path>
  </g>
  <defs>
    <clipPath id="clip0_174_12173">
      <rect width="48" height="48" fill="white"></rect>
    </clipPath>
  </defs>
</svg>