<svg xmlns="http://www.w3.org/2000/svg" width="14" height="14" viewBox="0 0 14 14" fill="none">
  <g clip-path="url(#clip0_247_36500)">
    <path d="M12.5018 6.49434L7.54126 6.49591V1.5016C7.54126 1.22471 7.31716 1 7.04104 1C6.76491 1 6.54084 1.22471 6.54084 1.5016V6.4924L1.50173 6.48962H1.50023C1.22461 6.48962 1.00103 6.71283 1.00001 6.98971C0.998502 7.2666 1.22211 7.4918 1.49821 7.4928L6.54081 7.49557L6.54081 12.4984C6.54081 12.7758 6.76491 13 7.04101 13C7.31711 13 7.54123 12.7758 7.54123 12.4984L7.54123 7.49908L12.4978 7.49752H12.4998C12.7754 7.49752 12.999 7.27431 13 6.99742C13.001 6.72054 12.7774 6.49534 12.5018 6.49434Z" fill="#333333"></path>
  </g>
  <defs>
    <clipPath id="clip0_247_36500">
      <rect width="14" height="14" fill="white"></rect>
    </clipPath>
  </defs>
</svg>