<svg xmlns="http://www.w3.org/2000/svg" width="16" height="16" viewBox="0 0 16 16" fill="none">
  <g clip-path="url(#clip0_48_2181)">
    <path d="M2.15381 9.56031V6.41624H12.8907V7.04687H14.0157V6.40406C14.0159 6.20892 13.9651 6.01711 13.8683 5.84765C13.9651 5.6782 14.0159 5.48639 14.0157 5.29124V2.13499C14.0157 1.83663 13.8972 1.55048 13.6862 1.3395C13.4752 1.12852 13.1891 1.00999 12.8907 1.00999H2.15381C1.85544 1.00999 1.56929 1.12852 1.35831 1.3395C1.14734 1.55048 1.02881 1.83663 1.02881 2.13499V5.29124C1.02864 5.4864 1.07949 5.67821 1.17631 5.84765C1.07949 6.01709 1.02864 6.2089 1.02881 6.40406V9.56031C1.02861 9.7587 1.08113 9.95357 1.181 10.125C1.08111 10.2964 1.02859 10.4913 1.02881 10.6897V13.8459C1.02881 14.1443 1.14734 14.4304 1.35831 14.6414C1.56929 14.8524 1.85544 14.9709 2.15381 14.9709H7.05803V13.8459H2.15381V10.6897H7.05803V9.56031H2.15381ZM2.15381 2.13499H12.8907V5.27906H2.15381V2.13499Z" fill="#098EFE"></path>
    <path d="M14.9646 8.82188C14.9051 8.06859 13.5229 7.46609 11.8262 7.46609C10.0918 7.46609 8.68555 8.09578 8.68555 8.87235C8.68556 8.89736 8.68708 8.92235 8.69008 8.94719V9.06719C8.9968 9.72344 10.2857 10.2169 11.8295 10.2169C13.3763 10.2169 14.6687 9.72141 14.9713 9.06219V8.82188H14.9646Z" fill="#098EFE"></path>
    <path d="M11.8294 10.83C10.2858 10.83 8.99694 10.337 8.69006 9.68031V10.6142C9.00147 11.2683 10.2877 11.7586 11.8274 11.7586C13.3776 11.7586 14.6712 11.2617 14.9713 10.6011V9.67531C14.6685 10.3347 13.3769 10.83 11.8294 10.83Z" fill="#098EFE"></path>
    <path d="M11.8283 12.3717C10.2886 12.3717 9.00232 11.8814 8.69092 11.2273V12.0658C8.99654 12.7233 10.2859 13.2169 11.8304 13.2169C13.3783 13.2169 14.67 12.7211 14.9722 12.0616V11.2144C14.6708 11.875 13.3775 12.3717 11.8283 12.3717Z" fill="#098EFE"></path>
    <path d="M11.8296 13.83C10.2851 13.83 8.9957 13.3364 8.69008 12.6789V13.4602C8.68705 13.4861 8.68554 13.5122 8.68555 13.5383C8.68555 14.3408 10.0918 14.9914 11.8262 14.9914C13.558 14.9914 14.9624 14.3428 14.9668 13.542H14.9713V12.6747C14.6691 13.3344 13.3774 13.83 11.8296 13.83Z" fill="#098EFE"></path>
    <path d="M2.63049 3.70297C2.63049 3.85216 2.68976 3.99523 2.79525 4.10072C2.90073 4.20621 3.04381 4.26547 3.19299 4.26547C3.34218 4.26547 3.48525 4.20621 3.59074 4.10072C3.69623 3.99523 3.75549 3.85216 3.75549 3.70297C3.75549 3.55379 3.69623 3.41071 3.59074 3.30522C3.48525 3.19974 3.34218 3.14047 3.19299 3.14047C3.04381 3.14047 2.90073 3.19974 2.79525 3.30522C2.68976 3.41071 2.63049 3.55379 2.63049 3.70297Z" fill="#098EFE"></path>
    <path d="M4.51099 3.70297C4.51099 3.85216 4.57025 3.99523 4.67574 4.10072C4.78123 4.20621 4.9243 4.26547 5.07349 4.26547C5.22267 4.26547 5.36574 4.20621 5.47123 4.10072C5.57672 3.99523 5.63599 3.85216 5.63599 3.70297C5.63599 3.55379 5.57672 3.41071 5.47123 3.30522C5.36574 3.19974 5.22267 3.14047 5.07349 3.14047C4.9243 3.14047 4.78123 3.19974 4.67574 3.30522C4.57025 3.41071 4.51099 3.55379 4.51099 3.70297Z" fill="#098EFE"></path>
    <path d="M11.6419 3.14062H7.73975C7.59056 3.14062 7.44749 3.19989 7.342 3.30538C7.23651 3.41087 7.17725 3.55394 7.17725 3.70312C7.17725 3.85231 7.23651 3.99538 7.342 4.10087C7.44749 4.20636 7.59056 4.26562 7.73975 4.26562H11.6419C11.7911 4.26562 11.9342 4.20636 12.0397 4.10087C12.1452 3.99538 12.2044 3.85231 12.2044 3.70312C12.2044 3.55394 12.1452 3.41087 12.0397 3.30538C11.9342 3.19989 11.7911 3.14062 11.6419 3.14062Z" fill="#098EFE"></path>
    <path d="M2.63049 7.99985C2.63049 8.14903 2.68976 8.29211 2.79525 8.3976C2.90073 8.50308 3.04381 8.56235 3.19299 8.56235C3.34218 8.56235 3.48525 8.50308 3.59074 8.3976C3.69623 8.29211 3.75549 8.14903 3.75549 7.99985C3.75549 7.85066 3.69623 7.70759 3.59074 7.6021C3.48525 7.49661 3.34218 7.43735 3.19299 7.43735C3.04381 7.43735 2.90073 7.49661 2.79525 7.6021C2.68976 7.70759 2.63049 7.85066 2.63049 7.99985Z" fill="#098EFE"></path>
    <path d="M4.51099 7.99985C4.51099 8.14903 4.57025 8.29211 4.67574 8.3976C4.78123 8.50308 4.9243 8.56235 5.07349 8.56235C5.22267 8.56235 5.36574 8.50308 5.47123 8.3976C5.57672 8.29211 5.63599 8.14903 5.63599 7.99985C5.63599 7.85066 5.57672 7.70759 5.47123 7.6021C5.36574 7.49661 5.22267 7.43735 5.07349 7.43735C4.9243 7.43735 4.78123 7.49661 4.67574 7.6021C4.57025 7.70759 4.51099 7.85066 4.51099 7.99985Z" fill="#098EFE"></path>
    <path d="M2.63049 12.2655C2.63049 12.4147 2.68976 12.5577 2.79525 12.6632C2.90073 12.7687 3.04381 12.828 3.19299 12.828C3.34218 12.828 3.48525 12.7687 3.59074 12.6632C3.69623 12.5577 3.75549 12.4147 3.75549 12.2655C3.75549 12.1163 3.69623 11.9732 3.59074 11.8677C3.48525 11.7622 3.34218 11.703 3.19299 11.703C3.04381 11.703 2.90073 11.7622 2.79525 11.8677C2.68976 11.9732 2.63049 12.1163 2.63049 12.2655Z" fill="#098EFE"></path>
    <path d="M4.51099 12.2655C4.51099 12.4147 4.57025 12.5577 4.67574 12.6632C4.78123 12.7687 4.9243 12.828 5.07349 12.828C5.22267 12.828 5.36574 12.7687 5.47123 12.6632C5.57672 12.5577 5.63599 12.4147 5.63599 12.2655C5.63599 12.1163 5.57672 11.9732 5.47123 11.8677C5.36574 11.7622 5.22267 11.703 5.07349 11.703C4.9243 11.703 4.78123 11.7622 4.67574 11.8677C4.57025 11.9732 4.51099 12.1163 4.51099 12.2655Z" fill="#098EFE"></path>
  </g>
  <defs>
    <clipPath id="clip0_48_2181">
      <rect width="16" height="16" fill="white"></rect>
    </clipPath>
  </defs>
</svg>