<svg width="200" height="200" viewBox="0 0 200 200" fill="none" xmlns="http://www.w3.org/2000/svg">
<path d="M12 0H188.414L172.258 179.645L100.207 200L28.1551 179.645L12 0Z" fill="#E44D26"/>
<path d="M100.207 185.137V14.8628H172.582L159.011 168.524L100.207 185.137Z" fill="#F16529"/>
<path d="M100 34L101.422 34.0072C106.521 34.0469 111.614 34.3446 116.683 34.899L119.108 35.1845L121.675 35.5412L124.196 35.9442L125.458 36.1655L127.94 36.6401C148.807 40.8747 163.428 49.9328 163.982 61.8377L164 62.5406V137.46C164 149.71 149.216 159.043 127.94 163.36L125.458 163.835L124.196 164.056L121.675 164.455L119.108 164.812C113.063 165.59 106.645 166 100 166C93.3547 166 86.9368 165.59 80.8923 164.812L78.3253 164.455L75.8043 164.056C52.9563 160.178 36.5937 150.763 36.0177 138.152L36 137.459V62.5404L36.0177 61.8377C36.5723 49.9326 51.1928 40.8747 72.0603 36.6401L74.5422 36.1655L75.8043 35.9444L78.3253 35.5447L80.8923 35.188C86.2916 34.5018 91.7244 34.1135 97.1662 34.0249L100 34ZM124.196 124.812L121.675 125.212L119.108 125.569C113.063 126.346 106.645 126.757 100 126.757C93.3547 126.757 86.9368 126.346 80.8923 125.569L78.3253 125.212L75.8043 124.812C63.8897 122.79 53.735 119.261 46.6667 114.559V137.46C46.6667 140.963 50.695 144.612 57.511 147.691L59.136 148.391C61.6427 149.425 64.4693 150.385 67.5697 151.237L69.6782 151.79C71.9173 152.349 74.1739 152.834 76.4443 153.246L78.8408 153.656L81.2977 154.024C82.9918 154.26 84.6906 154.462 86.3928 154.63L89.0203 154.866L91.6977 155.051L94.4248 155.187C98.1401 155.334 101.86 155.334 105.575 155.187L108.302 155.051L110.98 154.866L113.611 154.63C115.312 154.462 117.009 154.26 118.702 154.024L121.159 153.656L123.556 153.246C125.916 152.818 128.178 152.329 130.322 151.79L132.43 151.237C135.531 150.381 138.357 149.425 140.864 148.391L142.489 147.691C149.042 144.73 153.021 141.245 153.316 137.863L153.333 137.46V114.556C146.268 119.261 136.114 122.79 124.196 124.812ZM153.333 78.88C146.617 83.3502 137.12 86.7572 125.966 88.8228L124.188 89.1368L121.671 89.5364L119.104 89.8931C113.06 90.6708 106.642 91.0811 99.9963 91.0811C94.3003 91.0811 88.7715 90.7814 83.4987 90.2034L80.8888 89.8932L78.3217 89.5365L75.8008 89.1368C63.8862 87.1142 53.7315 83.5858 46.663 78.8838V98.2162C46.663 101.72 50.6915 105.369 57.5075 108.448L59.1325 109.147C61.6392 110.182 64.4658 111.142 67.5662 111.994L69.6745 112.547C71.9137 113.105 74.1704 113.591 76.4408 114.003L78.8373 114.413L81.2942 114.781C82.9883 115.017 84.687 115.219 86.3892 115.387L89.0168 115.622L91.6942 115.808L94.4213 115.943C98.1366 116.091 101.856 116.091 105.572 115.943L108.299 115.808L110.976 115.622L113.607 115.387C115.308 115.219 117.006 115.017 118.699 114.781L121.156 114.413L123.552 114.003C125.913 113.575 128.174 113.086 130.318 112.547L132.427 111.994C135.527 111.138 138.354 110.182 140.86 109.147L142.485 108.448C149.038 105.487 153.017 102.001 153.312 98.6194L153.33 98.2162V78.88H153.333ZM100 44.7027L98.592 44.7099L96.4942 44.7455L94.4248 44.8132L91.6977 44.9489L89.0203 45.1345L86.3893 45.3698C85.2337 45.484 84.096 45.6124 82.9723 45.7551L81.3013 45.9763L78.8408 46.3437L76.4443 46.7541C74.7237 47.0665 73.0106 47.4198 71.3067 47.8137L69.6782 48.206L67.5698 48.7625C64.9883 49.4761 62.592 50.2609 60.416 51.0994L59.136 51.6095L57.511 52.3088C50.695 55.3875 46.6667 59.0371 46.6667 62.5406C46.6667 65.8941 50.3537 69.376 56.64 72.3692L57.511 72.7722L59.136 73.4716C61.223 74.335 63.5342 75.1447 66.0443 75.8832L67.5733 76.3185L69.6782 76.8715C71.2853 77.2746 72.9598 77.6492 74.6915 77.9953L76.4443 78.3271L78.8408 78.7373L81.2977 79.1047C82.4035 79.2617 83.527 79.4009 84.6683 79.5328L86.3928 79.7113L89.0203 79.9467L91.6977 80.1323L94.4248 80.2678C97.5273 80.3909 100.633 80.4112 103.737 80.3285L105.575 80.2678L108.302 80.1323L110.98 79.9467L113.611 79.7113C114.766 79.597 115.904 79.4688 117.027 79.326L118.699 79.1047L121.159 78.7373L123.556 78.3271C125.276 78.0147 126.989 77.6614 128.693 77.2675L130.322 76.875L132.43 76.3185C135.012 75.6049 137.408 74.8201 139.584 73.9818L140.864 73.4716L142.489 72.7724C149.305 69.6935 153.333 66.0439 153.333 62.5406C153.333 59.187 149.646 55.7051 143.36 52.7118L142.489 52.3088L140.864 51.6095C138.604 50.6866 136.298 49.8817 133.956 49.1978L132.427 48.7625L130.322 48.2097C128.66 47.7937 126.988 47.419 125.308 47.0859L123.556 46.7541L121.159 46.3437L118.702 45.9763C117.581 45.8186 116.457 45.6759 115.332 45.5482L113.607 45.3698L110.98 45.1343L108.302 44.9489L105.575 44.8134C104.356 44.7632 103.122 44.7313 101.877 44.7134L100 44.7027Z" fill="white"/>
</svg>
