<svg width="16" height="14" viewBox="0 0 16 14" fill="none" xmlns="http://www.w3.org/2000/svg">
<path d="M7.46467 9.14338C7.36285 9.14338 7.26831 9.19792 7.21667 9.28592L4.90028 13.286C4.87508 13.3295 4.8618 13.3788 4.86177 13.4291C4.86175 13.4794 4.87498 13.5287 4.90013 13.5723C4.92529 13.6158 4.96147 13.6519 5.00504 13.677C5.04861 13.702 5.09802 13.7152 5.14828 13.7151H13.3906C13.4924 13.7151 13.5877 13.6605 13.6386 13.5718L15.9549 9.57175C15.98 9.52827 15.9931 9.47898 15.993 9.42882C15.993 9.37866 15.9797 9.3294 15.9546 9.28599C15.9294 9.24258 15.8933 9.20655 15.8499 9.18152C15.8064 9.15649 15.7571 9.14333 15.7069 9.14338H7.46467Z" fill="#098EFE"/>
<path d="M11.592 8.20995e-07C11.6938 8.20995e-07 11.7884 0.0545469 11.84 0.143275L15.9615 7.25972C15.9867 7.30327 16 7.3527 16 7.40303C16 7.45336 15.9867 7.50279 15.9615 7.54634C15.9362 7.58988 15.8999 7.62598 15.8563 7.651C15.8126 7.67602 15.7631 7.68906 15.7128 7.68882H11.08C11.0298 7.68866 10.9806 7.67535 10.9372 7.6502C10.8938 7.62506 10.8578 7.58897 10.8327 7.54554L6.71121 0.429097C6.68601 0.385602 6.67273 0.336232 6.6727 0.285966C6.67268 0.2357 6.68591 0.186316 6.71106 0.142796C6.73622 0.0992766 6.7724 0.0631596 6.81597 0.0380889C6.85954 0.0130182 6.90895 -0.000119641 6.95921 8.20995e-07H11.592ZM4.65591 1.34183C4.63064 1.29836 4.5944 1.26228 4.55082 1.2372C4.50723 1.21212 4.45783 1.19892 4.40755 1.19892C4.35726 1.19892 4.30786 1.21212 4.26427 1.2372C4.22069 1.26228 4.18445 1.29836 4.15918 1.34183L0.0384057 8.45901C0.0132482 8.50243 0 8.55173 0 8.60192C0 8.6521 0.0132482 8.7014 0.0384057 8.74483L2.3548 12.7449C2.46461 12.9354 2.74025 12.9354 2.8508 12.7449L6.97157 5.6277C6.99673 5.58427 7.00998 5.53498 7.00998 5.48479C7.00998 5.4346 6.99673 5.38531 6.97157 5.34188L4.65591 1.34183Z" fill="#098EFE" fill-opacity="0.3"/>
</svg>
