<svg width="16" height="16" viewBox="0 0 16 16" fill="none" xmlns="http://www.w3.org/2000/svg">
<g clip-path="url(#clip0_1470_3221)">
<mask id="mask0_1470_3221" style="mask-type:luminance" maskUnits="userSpaceOnUse" x="0" y="0" width="16" height="16">
<path d="M16 0H0V16H16V0Z" fill="white"/>
</mask>
<g mask="url(#mask0_1470_3221)">
<path d="M2 1C2 1.55228 1.55228 2 1 2C0.447715 2 0 1.55228 0 1C0 0.447715 0.447715 0 1 0C1.55228 0 2 0.447715 2 1Z" fill="white"/>
<path fill-rule="evenodd" clip-rule="evenodd" d="M4.25 1C4.25 0.585786 4.58579 0.25 5 0.25H9C9.9665 0.25 10.75 1.0335 10.75 2V5.25H14C14.9665 5.25 15.75 6.0335 15.75 7V11C15.75 11.4142 15.4142 11.75 15 11.75C14.5858 11.75 14.25 11.4142 14.25 11V7C14.25 6.86193 14.1381 6.75 14 6.75H10.75V9C10.75 9.9665 9.9665 10.75 9 10.75H6.75V14C6.75 14.1381 6.86193 14.25 7 14.25H11C11.4142 14.25 11.75 14.5858 11.75 15C11.75 15.4142 11.4142 15.75 11 15.75H7C6.0335 15.75 5.25 14.9665 5.25 14V10.75H2C1.0335 10.75 0.25 9.9665 0.25 9V5C0.25 4.58579 0.585786 4.25 1 4.25C1.41421 4.25 1.75 4.58579 1.75 5V9C1.75 9.13807 1.86193 9.25 2 9.25H5.25V7C5.25 6.0335 6.0335 5.25 7 5.25H9.25V2C9.25 1.86193 9.13807 1.75 9 1.75H5C4.58579 1.75 4.25 1.41421 4.25 1ZM9.25 6.75H7C6.86193 6.75 6.75 6.86193 6.75 7V9.25H9C9.13807 9.25 9.25 9.13807 9.25 9V6.75Z" fill="white"/>
<path d="M14 15C14 14.4477 14.4477 14 15 14C15.5523 14 16 14.4477 16 15C16 15.5523 15.5523 16 15 16C14.4477 16 14 15.5523 14 15Z" fill="white"/>
</g>
</g>
<defs>
<clipPath id="clip0_1470_3221">
<rect width="16" height="16" fill="white"/>
</clipPath>
</defs>
</svg>
