<svg width="200" height="200" viewBox="0 0 200 200" fill="none" xmlns="http://www.w3.org/2000/svg">
<g clip-path="url(#clip0_1247_16)">
<path d="M168.152 14.3878C164.294 11.5284 158.825 8.96403 151.926 6.78543C137.992 2.42823 119.519 0 99.8894 0C80.2593 0 61.7866 2.42823 47.8526 6.80812C40.931 8.98672 35.4845 11.5284 31.6266 14.4105C27.224 17.6557 25 21.264 25 25.0993V178.827H25.817C27.7233 183.32 33.6009 189.039 49.6454 193.759C63.3297 197.776 81.1897 200 99.8667 200C118.566 200 136.404 197.776 150.088 193.759C166.155 189.039 172.033 183.297 173.916 178.827H174.733V25.0993C174.779 21.264 172.555 17.6557 168.152 14.3878ZM170.24 175.468L170.104 176.058C169.582 178.35 166.473 184.228 148.84 189.425C135.541 193.328 118.158 195.484 99.8894 195.484C81.6209 195.484 64.2375 193.328 50.9389 189.425C33.3059 184.228 30.1969 178.35 29.6749 176.058L29.5387 175.468V25.0993C29.5387 20.2201 36.8915 15.0006 49.2142 11.1199C62.717 6.87621 80.7132 4.53875 99.8894 4.53875C119.066 4.53875 137.062 6.87621 150.564 11.1199C162.887 15.0006 170.24 20.2201 170.24 25.0993V175.468Z" fill="#499D56"/>
<path d="M100.525 104.346C64.8275 104.346 35.893 93.1124 35.893 79.2693V114.399C35.893 128.242 64.8275 139.476 100.525 139.476C136.222 139.476 165.157 128.242 165.157 114.399V79.2693C165.157 93.1124 136.222 104.346 100.525 104.346Z" fill="#499D56"/>
<path d="M100.525 155.951C64.8275 155.951 35.893 144.718 35.893 130.875V166.005C35.893 179.848 64.8275 191.081 100.525 191.081C136.222 191.081 165.157 179.848 165.157 166.005V130.875C165.157 144.718 136.222 155.951 100.525 155.951ZM157.963 40.6218L100.071 29.1161L128.574 51.7191C120.087 53.3076 110.578 54.1927 100.525 54.1927C64.8275 54.1927 35.893 42.9593 35.893 29.1161V64.246C35.893 78.0892 64.8275 89.3226 100.525 89.3226C110.555 89.3226 128.552 86.849 128.552 86.849L128.915 67.7182L157.35 76.1829C157.35 76.1829 165.157 68.5578 165.157 64.2233V29.1161C165.157 33.269 162.547 37.1724 157.963 40.6218Z" fill="#499D56"/>
</g>
<defs>
<clipPath id="clip0_1247_16">
<rect width="200" height="200" fill="white"/>
</clipPath>
</defs>
</svg>
