<svg xmlns="http://www.w3.org/2000/svg" width="80" height="80" viewBox="0 0 80 80" fill="none">
  <g clip-path="url(#clip0_326_18940)">
    <path d="M10.72 31.1198L5 28.2398V58.5598C5 59.5998 5.56 60.5198 6.44 61.0398L38.56 79.5998C39.44 80.1198 40.56 80.1198 41.44 79.5998L72.04 61.9598L65.92 58.8798L40 73.8398L10.72 56.9198V31.1198ZM38.56 0.399766L6.4 18.9598C6.2 19.0798 6.04 19.1998 5.88 19.3198L11.92 22.3598L40 6.19977L69.28 23.1198V51.1998L75 54.0798V21.4398C75 20.3998 74.44 19.4798 73.56 18.9598L41.44 0.399766C40.56 -0.120234 39.44 -0.120234 38.56 0.399766Z" fill="#098EFE"></path>
    <path d="M16.8401 26.6402V53.4002L40.0001 66.7602V13.2402L16.8401 26.6402ZM32.2001 52.5602L24.6401 48.2002V31.8002L32.2001 27.4402V52.5602Z" fill="#098EFE"></path>
    <path d="M40 13.2402V66.7602L63.16 53.4002V26.6402L40 13.2402ZM55.36 48.2002L47.8 52.5602V43.6002H55.36V48.2002ZM55.36 36.4002H47.8V27.4402L55.36 31.8002V36.4002Z" fill="#00C8DC"></path>
  </g>
  <defs>
    <clipPath id="clip0_326_18940">
      <rect width="80" height="80" fill="white"></rect>
    </clipPath>
  </defs>
</svg>