<svg width="32" height="32" viewBox="0 0 32 32" fill="none" xmlns="http://www.w3.org/2000/svg">
<path d="M32 16.5343C31.9603 14.3074 31.4903 12.0839 30.6266 10.0522C29.7661 8.0206 28.5151 6.17758 26.9795 4.65551C25.4472 3.13344 23.627 1.93233 21.6579 1.13821C19.6921 0.340779 17.574 -0.0397376 15.4857 0.0032774C13.3941 0.0462923 11.3125 0.516148 9.41283 1.38306C7.50657 2.24667 5.78234 3.49742 4.35595 5.03272C2.92957 6.56802 1.80435 8.38788 1.05971 10.36C0.315081 12.3287 -0.0423419 14.4431 0.00399078 16.5343C0.0437045 18.6254 0.487174 20.7067 1.298 22.606C2.10882 24.5086 3.28037 26.2325 4.71999 27.6553C6.15962 29.0814 7.864 30.2064 9.70737 30.9443C11.5508 31.6888 13.5298 32.0395 15.4857 31.9965C17.4449 31.9535 19.3876 31.5101 21.1648 30.6994C22.9453 29.8887 24.4974 28.6612 25.8278 27.2218C27.1351 25.8122 28.0948 24.2008 28.7865 22.4008H28.7633C28.0121 24.095 26.8141 25.6303 25.52 26.9042C24.1764 28.231 22.5845 29.2766 20.8669 29.9648C19.1493 30.6531 17.3092 30.9807 15.4824 30.9343C13.6556 30.8913 11.8519 30.4777 10.1972 29.72C8.54244 28.9656 7.04656 27.8703 5.80881 26.5303C4.57107 25.1902 3.59808 23.6052 2.95935 21.8979C2.31731 20.1872 2.01615 18.3574 2.05918 16.5409C2.1022 14.7243 2.48941 12.9276 3.19763 11.2864C3.90255 9.64524 4.92187 8.15627 6.17285 6.92538C7.42053 5.6978 8.89986 4.73161 10.4917 4.09632C12.0836 3.46102 13.7846 3.16322 15.4791 3.20955C17.1736 3.25256 18.8415 3.6397 20.3672 4.34448C21.8962 5.04595 23.2795 6.06177 24.418 7.30258C25.5598 8.5434 26.4566 10.0125 27.0424 11.5908C27.6315 13.1725 27.9062 14.86 27.8632 16.5409H27.8698C27.8665 16.6004 27.8632 16.66 27.8632 16.7195C27.8632 17.8214 28.6674 18.7247 29.7032 18.8405C29.7198 18.8438 29.7926 18.8471 29.8058 18.8471C29.8455 18.8504 29.8886 18.8504 29.9283 18.8504C31.07 18.8504 31.9934 17.8942 31.9934 16.7162C31.9934 16.6567 31.9901 16.5971 31.9868 16.5376H32V16.5343Z" fill="#098EFE"/>
</svg>
