<svg xmlns="http://www.w3.org/2000/svg" width="18" height="18" viewBox="0 0 18 18" fill="none">
  <g clip-path="url(#clip0_68_12670)">
    <path d="M5.50438 2C5.62511 2.00033 5.74405 2.03015 5.85142 2.08703C5.95879 2.1439 6.05153 2.2262 6.12202 2.32717L8.61465 5.96235C8.70906 6.09912 8.8617 6.18046 9.02494 6.18046H15.2455C15.3457 6.18045 15.4449 6.20099 15.5373 6.24088C15.6297 6.28078 15.7134 6.33924 15.7837 6.41284C15.8539 6.48645 15.9092 6.57372 15.9463 6.66957C15.9834 6.76542 16.0016 6.86793 15.9999 6.97111V15.223C15.9999 15.4291 15.9204 15.6267 15.7789 15.7724C15.6374 15.9181 15.4456 16 15.2455 16H1.75441C1.55433 16 1.36244 15.9181 1.22096 15.7724C1.07948 15.6267 1 15.4291 1 15.223V2.77248C1.00265 2.34534 1.3397 2 1.75441 2H5.50438ZM8.92656 9.01772C8.79618 8.91056 8.63225 8.8562 8.46566 8.86491C8.29907 8.87361 8.14133 8.94477 8.02215 9.06498L5.84717 11.257L5.81011 11.2993C5.74334 11.386 5.7096 11.4948 5.7152 11.6053C5.72081 11.7158 5.76538 11.8204 5.84055 11.8995L6.17893 12.2558L6.21996 12.2939C6.30411 12.3626 6.40968 12.3973 6.51688 12.3915C6.62408 12.3857 6.72556 12.3399 6.80231 12.2626L7.81701 11.2411V16H9.18332V11.2406L10.1971 12.263L10.239 12.2998C10.3247 12.3668 10.4311 12.3993 10.5383 12.3912C10.6455 12.3831 10.7462 12.3349 10.8214 12.2558L11.1598 11.8995L11.196 11.8563C11.261 11.7681 11.2924 11.6585 11.2845 11.548C11.2765 11.4376 11.2297 11.3339 11.1527 11.2565L8.97773 9.06498L8.92656 9.01772Z" fill="#098EFE"></path>
    <path d="M14.4493 3C14.5967 3.0036 14.7368 3.06054 14.8396 3.15867C14.9425 3.25681 15.0001 3.38838 15 3.52534V4.99999H9.80085C9.71095 5.00055 9.6222 4.98119 9.54196 4.94353C9.46173 4.90586 9.39231 4.85097 9.33948 4.7834L8 3H14.4493Z" fill="#00C8DC"></path>
  </g>
  <defs>
    <clipPath id="clip0_68_12670">
      <rect width="18" height="18" fill="white"></rect>
    </clipPath>
  </defs>
</svg>