<svg xmlns="http://www.w3.org/2000/svg" width="18" height="18" viewBox="0 0 18 18" fill="none">
  <path d="M15.0224 3.98063L14.6811 3.64061C14.3254 3.29316 13.9758 2.94358 13.6346 2.61312C13.5961 2.57912 13.5961 2.57912 13.5555 2.53662C13.103 2.10416 12.7306 1.74714 12.4549 1.49213C12.2967 1.34762 12.1615 1.23711 12.0731 1.16273C12.0226 1.11834 11.9666 1.08084 11.9066 1.05116C11.844 1.01572 11.7732 0.998102 11.7017 1.00016C11.5933 1.0054 11.4913 1.05365 11.4172 1.13463C11.3432 1.21561 11.303 1.32291 11.3053 1.43369V5.25464H14.8726L14.4752 4.82962V17.5782L14.8726 17.1531H4.56723C3.90975 17.1531 3.37711 16.5826 3.37711 15.8781V1.45069L2.97971 1.87571H10.1131C10.1667 1.87503 10.2196 1.86343 10.2688 1.8416C10.3179 1.81976 10.3623 1.78812 10.3993 1.74853C10.4363 1.70894 10.4652 1.66221 10.4843 1.61106C10.5034 1.55992 10.5123 1.50539 10.5105 1.45069C10.5105 1.21267 10.3378 1.02566 10.1131 1.02566H2.58544V15.876C2.58544 17.049 3.47282 18 4.56723 18H15.2679V4.42372H11.7017L12.097 4.84874V1.45069C12.0985 1.5569 12.0597 1.65959 11.9887 1.73723C11.9177 1.81488 11.8201 1.86145 11.7163 1.86721C11.6455 1.86721 11.6039 1.85871 11.5654 1.83321C11.5581 1.83321 11.5821 1.84064 11.6039 1.85764C11.6757 1.91609 11.7943 2.00853 11.9368 2.1456C12.6831 2.83524 13.4163 3.53949 14.136 4.25796C14.2629 4.37803 14.3732 4.49704 14.4752 4.59798C14.5386 4.65748 14.5792 4.70105 14.6031 4.72548C14.6404 4.76348 14.6849 4.79331 14.7339 4.81318C14.7828 4.83304 14.8352 4.84252 14.8879 4.84103C14.9405 4.83954 14.9923 4.82711 15.0401 4.80451C15.088 4.7819 15.1307 4.74959 15.1659 4.70955C15.2387 4.62567 15.2776 4.51669 15.2747 4.40464C15.2718 4.29259 15.2274 4.18584 15.1503 4.10601C15.1047 4.06783 15.0623 4.0259 15.0234 3.98063H15.0224Z" fill="#098EFE"></path>
  <path d="M3.37919 6.23644V6.24494L17 6.246V16.336H1V6.246H2.58544V6.23538H3.37815L3.37919 6.23644ZM9.4567 7.38825H6.05488V14.9749H9.4671C10.2577 14.9749 10.8819 14.8261 11.3189 14.5286C11.8286 14.1674 12.0887 13.6042 12.0887 12.8392C12.0887 12.3291 11.9639 11.9147 11.7246 11.6172C11.4749 11.3091 11.1108 11.1072 10.6218 11.0116C10.9964 10.8628 11.2772 10.6609 11.4749 10.3847C11.6726 10.0871 11.7766 9.72587 11.7766 9.30085C11.7766 8.72707 11.5789 8.27017 11.194 7.93015C10.7779 7.56889 10.1953 7.38825 9.4567 7.38825ZM9.32146 11.596C9.86242 11.596 10.2577 11.6916 10.5074 11.8829C10.7467 12.0741 10.8715 12.3823 10.8715 12.8179C10.8715 13.2429 10.7051 13.5405 10.3722 13.7317C10.1121 13.8805 9.74798 13.9548 9.29025 13.9548H7.27204V11.596H9.32146ZM9.15501 8.40831C9.65436 8.40831 10.0081 8.49331 10.2369 8.66332C10.445 8.8227 10.5594 9.08834 10.5594 9.44961C10.5594 9.84276 10.445 10.1296 10.2369 10.3103C10.0185 10.4803 9.65436 10.5759 9.1342 10.5759H7.27204V8.40831H9.15501Z" fill="#098EFE"></path>
  <path fill-rule="evenodd" clip-rule="evenodd" d="M9.4567 7.38825H6.05488V14.9749H9.4671C10.2577 14.9749 10.8819 14.8261 11.3189 14.5286C11.8286 14.1674 12.0887 13.6042 12.0887 12.8392C12.0887 12.3291 11.9639 11.9147 11.7246 11.6172C11.4749 11.3091 11.1108 11.1072 10.6218 11.0116C10.9964 10.8628 11.2772 10.6609 11.4749 10.3847C11.6726 10.0871 11.7766 9.72587 11.7766 9.30085C11.7766 8.72707 11.5789 8.27017 11.194 7.93015C10.7779 7.56889 10.1953 7.38825 9.4567 7.38825ZM10.5074 11.8829C10.2577 11.6916 9.86242 11.596 9.32146 11.596H7.27204V13.9548H9.29025C9.74798 13.9548 10.1121 13.8805 10.3722 13.7317C10.7051 13.5405 10.8715 13.2429 10.8715 12.8179C10.8715 12.3823 10.7467 12.0741 10.5074 11.8829ZM10.2369 8.66332C10.0081 8.49331 9.65436 8.40831 9.15501 8.40831H7.27204V10.5759H9.1342C9.65436 10.5759 10.0185 10.4803 10.2369 10.3103C10.445 10.1296 10.5594 9.84276 10.5594 9.44961C10.5594 9.08834 10.445 8.8227 10.2369 8.66332Z" fill="#098EFE"></path>
  <path d="M3 13.8513V8.15741H4.04234V12.6531H5.70478V13.8513H3ZM10.4942 10.9825C10.4942 11.4373 10.4348 11.8484 10.3161 12.2157C10.1974 12.5918 10.039 12.9067 9.82791 13.1691C9.61681 13.4315 9.37273 13.6414 9.08245 13.7813C8.79218 13.93 8.48212 14 8.14567 14C7.80922 14 7.49916 13.93 7.21548 13.7813C6.93181 13.6326 6.68115 13.4315 6.47662 13.1691C6.26552 12.9067 6.10717 12.5831 5.98844 12.2157C5.86969 11.8396 5.81032 11.4286 5.81032 10.9825C5.81032 10.5277 5.86969 10.1166 5.98844 9.74926C6.10719 9.38191 6.26552 9.06705 6.47662 8.8134C6.68773 8.55976 6.93181 8.3586 7.21548 8.21863C7.49916 8.07869 7.80924 8.00875 8.14567 8.00875C8.4821 8.00875 8.79218 8.07869 9.08245 8.21863C9.37273 8.3586 9.61681 8.55976 9.82793 8.8134C10.039 9.06705 10.1974 9.38191 10.3161 9.74926C10.4348 10.1079 10.4942 10.519 10.4942 10.9825ZM9.37933 10.9825C9.37933 10.7376 9.34633 10.5015 9.28696 10.2915C9.22758 10.0729 9.14181 9.8892 9.03628 9.74051C8.93073 9.59182 8.79878 9.46938 8.64705 9.38191C8.49532 9.29446 8.33039 9.25072 8.14567 9.25072C7.96094 9.25072 7.79604 9.29446 7.65089 9.38191C7.49916 9.4694 7.37381 9.59182 7.26166 9.74051C7.14951 9.8892 7.07035 10.0729 7.01098 10.2915C6.9516 10.5102 6.92523 10.7376 6.92523 10.9825C6.92523 11.2362 6.9582 11.4811 7.01758 11.691C7.07695 11.9096 7.16273 12.0933 7.26826 12.2507C7.37381 12.4082 7.50576 12.5306 7.65089 12.6181C7.80262 12.7055 7.96754 12.7493 8.14567 12.7493C8.32379 12.7493 8.49532 12.7055 8.64045 12.6181C8.79218 12.5306 8.91753 12.4082 9.02968 12.2507C9.14183 12.0933 9.22098 11.9096 9.28696 11.691C9.35293 11.4723 9.37933 11.2361 9.37933 10.9825ZM14.2611 13.8601C13.9775 13.9475 13.674 14 13.3442 14C13.0011 14 12.6844 13.93 12.3942 13.7813C12.1039 13.6326 11.8532 13.4315 11.6487 13.1691C11.4376 12.9067 11.2793 12.5918 11.1605 12.2245C11.0418 11.8571 10.9824 11.4461 10.9824 11C10.9824 10.5452 11.0418 10.1341 11.1605 9.75801C11.2793 9.39066 11.4442 9.0758 11.6553 8.8134C11.8664 8.55101 12.1105 8.34985 12.3942 8.20991C12.6778 8.06997 12.9813 8 13.3112 8C13.6542 8 13.9643 8.06997 14.2611 8.20116C14.5514 8.3411 14.7889 8.52476 14.9736 8.75217L14.3205 9.74053C14.2216 9.58309 14.083 9.46063 13.9181 9.35566C13.7532 9.25947 13.5619 9.20699 13.3508 9.20699C13.166 9.20699 13.0011 9.25072 12.8494 9.33819C12.6976 9.42565 12.5591 9.5481 12.4469 9.70554C12.3348 9.86298 12.2424 10.0554 12.1831 10.2653C12.1171 10.484 12.0907 10.7201 12.0907 10.9738C12.0907 11.2362 12.1171 11.481 12.1765 11.6997C12.2358 11.9184 12.315 12.1108 12.4272 12.2682C12.5393 12.4257 12.6778 12.5481 12.8428 12.6356C13.0077 12.723 13.1924 12.7668 13.4035 12.7668C13.5223 12.7668 13.641 12.758 13.7466 12.7318C13.8587 12.7055 13.9577 12.6706 14.05 12.6181V11.5773H13.2254V10.4665H15V13.484C14.7823 13.6501 14.5382 13.7639 14.2611 13.8601Z" fill="#00C8DC"></path>
</svg>