<?xml version="1.0" encoding="utf-8"?>
<!-- Generator: Adobe Illustrator 24.0.0, SVG Export Plug-In . SVG Version: 6.00 Build 0)  -->
<svg version="1.1" id="图层_1" xmlns="http://www.w3.org/2000/svg" xmlns:xlink="http://www.w3.org/1999/xlink" x="0px" y="0px"
	 viewBox="0 0 200 200" style="enable-background:new 0 0 200 200;" xml:space="preserve">
<style type="text/css">
	.st0{fill:#098EFE;}
	.st1{fill:#00C8DC;}
</style>
<path class="st0" d="M26.8,77.8l-14.3-7.2v75.8c0,2.6,1.4,4.9,3.6,6.2L96.4,199c2.2,1.3,5,1.3,7.2,0l76.5-44.1l-15.3-7.7L100,184.6
	l-73.2-42.3L26.8,77.8L26.8,77.8z M96.4,1L16,47.4c-0.5,0.3-0.9,0.6-1.3,0.9l15.1,7.6L100,15.5l73.2,42.3V128l14.3,7.2V53.6
	c0-2.6-1.4-4.9-3.6-6.2L103.6,1C101.4-0.3,98.6-0.3,96.4,1L96.4,1z M96.4,1"/>
<g>
	<path class="st0" d="M42.1,66.6v66.9l57.9,33.4V33.1L42.1,66.6z M80.5,131.4l-18.9-10.9v-41l18.9-10.9V131.4z"/>
	<path class="st1" d="M100,33.1v133.8l57.9-33.4V66.6L100,33.1z M138.4,120.5l-18.9,10.9V109h18.9V120.5z M138.4,91h-18.9V68.6
		l18.9,10.9V91z"/>
</g>
</svg>
