<svg width="128" height="128" viewBox="0 0 128 128" fill="none" xmlns="http://www.w3.org/2000/svg">
<path d="M125.182 19C123.202 19.064 123.81 19.6355 119.554 20.6871C114.741 21.1833 109.979 22.0826 105.317 23.3755C91.4414 29.1958 88.6572 49.0892 76.0572 56.2125C66.6255 61.5391 57.116 61.9643 48.5621 64.6435C42.3589 66.7685 36.6311 70.0861 31.7012 74.4096C27.7465 77.8158 27.6459 80.8106 23.513 85.0901C19.0966 89.6622 5.95254 85.1678 0 92.1632C1.92017 94.1017 2.74311 94.6458 6.54231 94.1429C5.76052 95.6288 1.14753 96.8862 2.04818 99.0579C2.99913 101.344 14.1544 102.912 24.2948 96.7719C29.0175 93.9189 32.7801 89.8085 40.1362 88.8301C50.6961 88.2625 61.2849 89.0709 71.6362 91.235C69.7147 95.5763 67.1737 99.6159 64.0926 103.228C63.2789 104.106 65.7248 104.202 68.5182 103.685C72.8632 102.835 77.0553 101.335 80.9536 99.2362C85.6123 96.525 86.3164 89.5708 92.0312 88.0665C94.1089 90.5192 97.0332 92.1004 100.223 92.496C103.413 92.8916 106.635 92.0726 109.249 90.2017C104.535 88.8667 103.232 78.8309 104.823 74.405C106.332 70.217 107.822 63.5188 109.34 57.9865C110.972 52.0428 111.571 44.549 113.546 41.5269C116.088 38.1572 119.161 35.2233 122.644 32.8398C124.374 31.6065 125.77 29.9607 126.703 28.0517C127.636 26.1427 128.078 24.0309 127.989 21.9079C127.961 20.015 126.983 18.9589 125.182 19.0183V19Z" fill="#1F305F"/>
<path d="M4.01723 99.1376C9.95834 100.176 16.0724 99.2842 21.48 96.5901C26.5131 93.4525 31.7172 90.604 37.0677 88.0584C45.6501 85.2793 55.0577 88.0584 64.2315 88.6188C66.4448 88.7734 68.667 88.7393 70.8746 88.5169C74.2902 86.3956 74.2214 78.4567 77.5452 77.7295C77.3346 86.6744 74.0286 95.2619 68.2018 102C72.5173 101.28 76.5924 99.5027 80.0701 96.8226C83.5477 94.1425 86.3218 90.6418 88.1494 86.6271C89.3982 84.1921 90.4708 81.6689 91.3587 79.0774C92.7845 80.1843 91.9776 83.547 92.6928 85.3673C99.5697 81.5044 103.48 72.6948 106.084 63.7832C109.092 53.4683 110.325 43.0283 112.269 39.9759C114.301 37.2663 116.84 34.986 119.742 33.2645C121.36 32.4095 122.765 31.1937 123.849 29.7091C124.933 28.2245 125.669 26.5101 126 24.6957C122.791 24.3946 122.03 23.6396 121.553 22C120.087 22.8001 118.441 23.2022 116.776 23.1672C115.322 23.2135 113.722 23.1672 111.769 23.3478C95.6178 25.0245 93.5639 43.0097 83.2118 53.2089C82.4479 53.9566 81.6362 54.6529 80.782 55.2932C77.0242 57.9227 72.9331 60.029 68.619 61.5553C61.9988 64.1121 55.7041 64.2927 49.492 66.4975C44.9273 68.122 40.5848 70.3242 36.568 73.0514C35.6511 73.6999 34.7341 74.3622 33.9364 75.0338C31.9714 76.7353 30.2713 78.7261 28.8933 80.9393C27.4698 83.2514 25.8119 85.4075 23.9465 87.3729C20.5127 90.7772 7.6895 88.3641 3.17366 91.5415C2.68736 91.8672 2.285 92.3054 2 92.8198C4.46194 93.95 6.12615 93.2552 8.9411 93.5748C9.31246 96.2937 3.09572 97.9055 4.01264 99.1561L4.01723 99.1376Z" fill="#C0765A"/>
<path d="M106 29.8973C106.597 30.3985 107.334 30.7057 108.113 30.7769C108.892 30.8482 109.674 30.6802 110.353 30.2957C111.032 29.9112 111.575 29.3289 111.909 28.6278C112.242 27.9268 112.35 27.1411 112.217 26.3774C108.669 26.0825 106.613 27.2755 106 29.8973ZM121.917 25.3296C120.774 27.164 120.161 29.2744 120.146 31.4305C120.146 31.9839 119.725 32.3377 119.715 31.5076C119.707 29.2925 120.317 27.1184 121.478 25.2252C121.881 24.4995 122.142 24.7989 121.917 25.3296ZM121.304 24.8352C119.848 26.7742 118.904 29.0428 118.557 31.435C118.502 31.9839 118.054 32.3422 118.122 31.4758C118.451 29.0235 119.396 26.692 120.869 24.6945C121.354 24.0232 121.579 24.3453 121.304 24.8352ZM120.75 24.2228C118.873 26.1906 117.493 28.5702 116.721 31.1674C116.621 31.7072 116.145 32.0111 116.264 31.1674C117.039 28.5145 118.426 26.0765 120.315 24.0459C120.869 23.4018 121.061 23.742 120.75 24.2228ZM120.251 23.5197C118.076 25.6513 116.334 28.1766 115.119 30.9587C114.941 31.4804 114.428 31.7163 114.684 30.9043C115.891 28.0549 117.652 25.4687 119.866 23.2929C120.484 22.7214 120.631 23.0888 120.251 23.5242V23.5197Z" fill="#1F305F"/>
</svg>
