<svg width="24" height="24" viewBox="0 0 24 24" fill="none" xmlns="http://www.w3.org/2000/svg">
<path d="M9.46974 5.06374H10.1484V6.08366H9.46974V5.06374ZM7.38002 5.06374H8.0587V6.08366H7.38002V5.06374ZM11.5595 5.06374H12.2382V6.08366H11.5595V5.06374ZM6.67642 7.20916C6.94482 7.20916 7.16338 6.98207 7.16338 6.70319V4.50598C7.16338 4.22709 6.94482 4 6.67642 4C6.40801 4 6.18945 4.22709 6.18945 4.50598V6.70319C6.18945 6.98008 6.40801 7.20916 6.67642 7.20916ZM8.76422 7.20916C9.03263 7.20916 9.25119 6.98207 9.25119 6.70319V4.50598C9.25119 4.22709 9.03263 4 8.76422 4C8.49582 4 8.27726 4.22709 8.27726 4.50598V6.70319C8.27726 6.98008 8.49774 7.20916 8.76422 7.20916ZM10.8539 7.20916C11.1224 7.20916 11.3409 6.98207 11.3409 6.70319V4.50598C11.3409 4.22709 11.1224 4 10.8539 4C10.5855 4 10.367 4.22709 10.367 4.50598V6.70319C10.367 6.98008 10.5875 7.20916 10.8539 7.20916ZM15.6201 6.63147C15.6201 5.76693 14.9433 5.06175 14.1093 5.06175H13.6492V6.08167H14.1093C14.4007 6.08167 14.6365 6.32868 14.6365 6.62948V9.36853L15.6181 8.08167V6.63147H15.6201Z" fill="#098EFE"/>
<path d="M14.6365 18.4283C14.6365 18.7311 14.4007 18.9761 14.1093 18.9761H5.51074C5.21933 18.9761 4.98351 18.7311 4.98351 18.4283V6.63147C4.98351 6.32869 5.21933 6.08367 5.51074 6.08367H5.97086V5.06375H5.51074C4.67868 5.06375 4 5.76693 4 6.63347V18.4303C4 19.2948 4.67676 20 5.51074 20H14.1093C14.9413 20 15.62 19.2968 15.62 18.4303V14.9343L14.6384 16.2211V18.4283H14.6365ZM12.9436 7.20916C13.212 7.20916 13.4306 6.98207 13.4306 6.70319V4.50598C13.4306 4.22709 13.212 4 12.9436 4C12.6752 4 12.4567 4.22709 12.4567 4.50598V6.70319C12.4567 6.98008 12.6752 7.20916 12.9436 7.20916Z" fill="#098EFE"/>
<path d="M6.59171 10.0757L13.0258 10.0718C13.3153 10.0718 13.5511 9.82673 13.5511 9.52593C13.5511 9.22514 13.3153 8.98012 13.0258 8.98012L6.59171 8.9841C6.30222 8.9841 6.06641 9.22912 6.06641 9.52992C6.06641 9.82872 6.30414 10.0757 6.59171 10.0757ZM6.59171 11.6076C6.30222 11.6076 6.06641 11.8526 6.06641 12.1534C6.06641 12.4542 6.30222 12.6992 6.59171 12.6992L12.0998 12.6953L12.9337 11.6036L6.59171 11.6076ZM19.8126 7.69725L18.2347 6.39844C18.02 6.22115 17.7075 6.259 17.5388 6.48211L16.6722 7.61757L19.0265 9.55781L19.8931 8.42235C20.0618 8.19924 20.0273 7.87454 19.8126 7.69725ZM6.59171 14.2311C6.30222 14.2311 6.06641 14.4761 6.06641 14.7769C6.06641 15.0777 6.30222 15.3227 6.59171 15.3227L10.543 15.3208L10.6005 15.018L10.6887 14.5439L10.7482 14.2291L6.59171 14.2311Z" fill="#00C8DC"/>
<path d="M16.2874 8.12354L15.9921 8.50999L15.6202 8.99804L14.6386 10.2849L13.4557 11.8347L12.7981 12.6952L11.6286 14.2291L11.5404 14.3447L11.4963 14.4024L11.2011 14.7889L11.1014 15.3227L11.0841 15.4164L10.6355 17.8028C10.6087 17.9443 10.7333 18.0478 10.8617 17.9881L12.9956 16.9901L13.5554 16.7271H13.5573L13.8966 16.2829L14.6386 15.3108L15.6202 14.0239L18.6416 10.0638L16.2874 8.12354ZM12.6639 16.7152L11.7494 17.1435L11.2222 16.7092L11.4139 15.6853L11.4388 15.5518L12.7828 16.6594L12.6639 16.7152ZM15.6202 10.514L14.6386 11.8008L12.7866 14.2271L12.4837 14.6235C12.3897 14.745 12.2287 14.7749 12.1232 14.6873C12.0178 14.5996 12.0082 14.4303 12.1002 14.3068L12.1616 14.2271L14.6367 10.9821L15.6183 9.69525L16.042 9.14146C16.1359 9.01995 16.2969 8.99007 16.4024 9.07772C16.5078 9.16537 16.5174 9.33469 16.4254 9.4582L15.6202 10.514Z" fill="#00C8DC"/>
</svg>
