<svg xmlns="http://www.w3.org/2000/svg" width="24" height="24" viewBox="0 0 24 24" fill="none">
  <g clip-path="url(#clip0_117_17069)">
    <path d="M15.5672 19.4789H8.42344C7.95469 19.4789 7.52109 19.2281 7.28906 18.8273L3.71016 12.6445C3.47813 12.2437 3.47813 11.7469 3.71016 11.3461L7.28906 5.1656C7.52109 4.76248 7.95703 4.51404 8.42344 4.51404H15.5672C16.0336 4.51404 16.4695 4.76482 16.7016 5.1656L20.2781 11.3484C20.5102 11.7492 20.5102 12.2461 20.2781 12.6445L16.7039 18.825C16.4695 19.2281 16.0336 19.4789 15.5672 19.4789ZM8.42344 5.81482L4.8375 12L8.41406 18.1734C8.41406 18.1734 8.41641 18.1758 8.42344 18.1758H15.5672L19.1531 11.9906L15.5766 5.81716L8.42344 5.81482Z" fill="#098EFE"></path>
    <path d="M11.9952 15.0867C10.2913 15.0867 8.90381 13.6992 8.90381 11.9953C8.90381 10.2914 10.2913 8.90393 11.9952 8.90393C13.6991 8.90393 15.0866 10.2914 15.0866 11.9953C15.0866 13.6992 13.6991 15.0867 11.9952 15.0867ZM11.9952 10.5305C11.189 10.5305 10.5304 11.1867 10.5304 11.9953C10.5304 12.8016 11.1866 13.4602 11.9952 13.4602C12.8015 13.4602 13.4601 12.8039 13.4601 11.9953C13.4601 11.1891 12.8038 10.5305 11.9952 10.5305Z" fill="#00C8DC"></path>
  </g>
  <defs>
    <clipPath id="clip0_117_17069">
      <rect width="24" height="24" fill="white"></rect>
    </clipPath>
  </defs>
</svg>