<svg xmlns="http://www.w3.org/2000/svg" width="24" height="24" viewBox="0 0 24 24" fill="none">
  <g clip-path="url(#clip0_117_17049)">
    <path d="M14.0391 18.6305H9.96094C9.21094 18.6305 8.60156 18.0211 8.60156 17.2711V16.2516C8.60156 15.8766 8.90625 15.5719 9.28125 15.5719C9.65625 15.5719 9.96094 15.8766 9.96094 16.2516V17.2711H14.0391V16.2516C14.0391 15.8766 14.3438 15.5719 14.7188 15.5719C15.0938 15.5719 15.3984 15.8766 15.3984 16.2516V17.2711C15.4008 18.0188 14.7891 18.6305 14.0391 18.6305ZM13.6992 20.8477H10.3008C9.92578 20.8477 9.62109 20.543 9.62109 20.168C9.62109 19.793 9.92578 19.4883 10.3008 19.4883H13.7016C14.0766 19.4883 14.3812 19.793 14.3812 20.168C14.3789 20.543 14.0766 20.8477 13.6992 20.8477Z" fill="#098EFE"></path>
    <path d="M14.721 16.8961C14.4585 16.8961 14.2101 16.7437 14.0976 16.4883C13.9476 16.1437 14.1046 15.7429 14.4491 15.5929C16.5046 14.6953 17.7819 12.6633 17.7819 10.2937C17.7819 7.10623 15.1897 4.51404 12.0022 4.51404C8.81475 4.51404 6.22021 7.10623 6.22021 10.2937C6.22021 12.6633 7.49756 14.6953 9.55303 15.5929C9.89756 15.7429 10.0546 16.1437 9.90459 16.4883C9.75459 16.8328 9.35381 16.9898 9.00928 16.8398C6.4499 15.7219 4.86084 13.214 4.86084 10.2937C4.86084 6.35623 8.06475 3.15466 11.9999 3.15466C15.9374 3.15466 19.139 6.35857 19.139 10.2937C19.139 13.214 17.5499 15.7219 14.9905 16.8398C14.9062 16.875 14.8147 16.8961 14.721 16.8961Z" fill="#098EFE"></path>
    <path d="M9.44995 9.78987H7.75073C7.75073 7.63362 9.50386 5.88049 11.6601 5.88049V7.57971C10.4414 7.57971 9.44995 8.57112 9.44995 9.78987Z" fill="#00C8DC"></path>
  </g>
  <defs>
    <clipPath id="clip0_117_17049">
      <rect width="24" height="24" fill="white"></rect>
    </clipPath>
  </defs>
</svg>