<svg xmlns="http://www.w3.org/2000/svg" width="24" height="24" viewBox="0 0 24 24" fill="none">
  <g clip-path="url(#clip0_117_17043)">
    <path d="M11.75 5.32444V10.736L11.3848 10.349L10.5 9.41159L9.61523 10.349L9.25 10.736V5.32444H11.75ZM13 4H8V12.3357C8 12.7351 8.30859 13 8.62891 13C8.7832 13 8.93945 12.94 9.06641 12.8055L10.5 11.2844L11.9336 12.8034C12.0605 12.9379 12.2168 12.9979 12.3711 12.9979C12.6914 12.9979 13 12.733 13 12.3336V4Z" fill="#00C8DC"></path>
    <path d="M17.1333 5.28C17.4697 5.28 17.7556 5.574 17.7556 5.92V18.08C17.7556 18.426 17.4697 18.72 17.1333 18.72H6.86667C6.53028 18.72 6.24444 18.426 6.24444 18.08V5.92C6.24444 5.574 6.53028 5.28 6.86667 5.28H17.1333ZM17.1333 4H6.86667C5.84 4 5 4.864 5 5.92V18.08C5 19.136 5.84 20 6.86667 20H17.1333C18.16 20 19 19.136 19 18.08V5.92C19 4.864 18.16 4 17.1333 4Z" fill="#098EFE"></path>
  </g>
  <defs>
    <clipPath id="clip0_117_17043">
      <rect width="24" height="24" fill="white"></rect>
    </clipPath>
  </defs>
</svg>