<svg xmlns="http://www.w3.org/2000/svg" width="24" height="24" viewBox="0 0 24 24" fill="none">
  <g clip-path="url(#clip0_117_17062)">
    <path d="M4.64076 20C4.47288 20 4.31181 19.9357 4.19157 19.8204C4.02142 19.6564 3.9579 19.4126 4.02823 19.1887C5.61854 14.1723 5.62308 14.1701 5.76827 14.0238L15.3828 4.37905C15.6255 4.13522 15.9522 4 16.3016 4C16.6509 4 16.9753 4.13522 17.2181 4.37905L19.6342 6.8041C20.1219 7.29399 20.1219 8.06096 19.6342 8.55085L9.99701 18.22C9.84274 18.3707 9.84048 18.373 4.83813 19.969C4.77688 19.9889 4.70882 20 4.64076 20ZM6.78235 14.8019C6.63036 15.2452 6.09269 16.9188 5.62081 18.4018C7.08635 17.9318 8.73111 17.3998 9.17803 17.2469L18.7177 7.67747L16.3016 5.25242L6.78235 14.8019Z" fill="#098EFE"></path>
    <path d="M16.386 11C16.229 11 16.072 10.9389 15.9498 10.819L13.1799 8.04988C12.94 7.81003 12.94 7.41973 13.1799 7.17989C13.4198 6.94004 13.8103 6.94004 14.0502 7.17989L16.8201 9.94903C17.06 10.1889 17.06 10.5792 16.8201 10.819C16.7001 10.9389 16.5431 11 16.386 11Z" fill="#098EFE"></path>
    <path d="M19 18H12V19.2011C12 19.6431 12.2603 20 12.5826 20H18.4153C18.7376 20 18.9979 19.6431 18.9979 19.2011V18H19Z" fill="#00C8DC"></path>
  </g>
  <defs>
    <clipPath id="clip0_117_17062">
      <rect width="24" height="24" fill="white"></rect>
    </clipPath>
  </defs>
</svg>