<svg xmlns="http://www.w3.org/2000/svg" width="24" height="24" viewBox="0 0 24 24" fill="none">
  <g clip-path="url(#clip0_117_17056)">
    <path d="M12 4C7.58881 4 4 7.58881 4 12C4 16.4112 7.58881 20 12 20C16.4112 20 20 16.4112 20 12C20 7.58881 16.4112 4 12 4ZM12 18.7675C8.26711 18.7675 5.23026 15.7307 5.23026 11.9978C5.23026 8.26489 8.26711 5.22804 12 5.22804C15.7329 5.22804 18.7697 8.26489 18.7697 11.9978C18.7697 15.7329 15.7329 18.7675 12 18.7675Z" fill="#098EFE"></path>
    <path d="M12.8341 15.3584C12.8341 15.7115 12.5361 16 12.1659 16H11.8317C11.4639 16 11.1635 15.7138 11.1635 15.3584V10.8744H12.8317V15.3584H12.8341ZM11 8.9612C11 8.61734 11.1899 8.30117 11.5 8.12808C11.8101 7.9573 12.1923 7.9573 12.5 8.12808C12.8101 8.29886 13 8.61734 13 8.9612C13 9.30506 12.8101 9.62123 12.5 9.79432C12.1899 9.96509 11.8077 9.96509 11.5 9.79432C11.1899 9.62123 11 9.30506 11 8.9612Z" fill="#00C8DC"></path>
  </g>
  <defs>
    <clipPath id="clip0_117_17056">
      <rect width="24" height="24" fill="white" transform="matrix(1 0 0 -1 0 24)"></rect>
    </clipPath>
  </defs>
</svg>