<svg xmlns="http://www.w3.org/2000/svg" fill="none" viewBox="0 0 14 14" class="design-iconfont">
  <g clip-path="url(#gjenm6d0s__clip0_137_11833)" fill="#333">
    <path d="M0.7 1H13.3C13.7667 1 14 1.23333 14 1.7C14 2.16667 13.7667 2.4 13.3 2.4H0.7C0.233333 2.4 0 2.16667 0 1.7C0 1.23333 0.233333 1 0.7 1Z"/>
    <path d="M0.7 6.6H13.3C13.7667 6.6 14 6.83333 14 7.3C14 7.76667 13.7667 8 13.3 8H0.7C0.233333 8 0 7.76667 0 7.3C0 6.83333 0.233333 6.6 0.7 6.6Z"/>
    <path d="M0.7 12.2H13.3C13.7667 12.2 14 12.4333 14 12.9C14 13.3667 13.7667 13.6 13.3 13.6H0.7C0.233333 13.6 0 13.3667 0 12.9C0 12.4333 0.233333 12.2 0.7 12.2Z"/>
  </g>
  <defs>
    <clipPath id="gjenm6d0s__clip0_137_11833">
      <path fill="#fff" d="M0 0H14V14H0z"/>
    </clipPath>
  </defs>
</svg>
