<svg width="24" height="24" viewBox="0 0 24 24" fill="none" xmlns="http://www.w3.org/2000/svg">
<g clip-path="url(#clip0_115_110)">
<path d="M19.4558 17.4091C19.4558 18.2576 18.6939 19 17.8231 19H5.95918C5.08844 19 4.32653 18.2576 4.32653 17.4091L4 12.9545C4 12.1061 4.65306 11.3636 5.63265 11.3636H18.3673C19.2381 11.3636 20 12.1061 20 12.9545L19.4558 17.4091ZM13.5782 14.5455H10.3129C9.9864 14.5455 9.65986 14.8636 9.65986 15.1818C9.65986 15.5 9.9864 15.8182 10.3129 15.8182H13.5782C13.9048 15.8182 14.2313 15.5 14.2313 15.1818C14.2313 14.8636 13.9048 14.5455 13.5782 14.5455Z" fill="#098EFE"/>
<path d="M8.68035 8.18182C8.35381 8.18182 8.02728 7.9697 8.02728 7.54545C8.02728 7.22727 8.35381 6.90909 8.68035 6.90909H15.211C15.5375 6.90909 15.864 7.22727 15.864 7.54545C15.864 7.9697 15.5375 8.18182 15.211 8.18182H8.68035ZM16.1905 9.56061C16.1905 9.87879 15.864 10.197 15.5375 10.197H8.24497C7.91844 10.197 7.59191 9.87879 7.59191 9.56061C7.59191 9.24242 7.91844 9.0303 8.24497 9.0303H15.6463C15.9729 9.0303 16.1905 9.24242 16.1905 9.56061ZM16.6259 7.01515C16.6259 6.59091 16.2994 6.16667 15.7552 6.16667H8.02728C7.59191 6.16667 7.26538 6.59091 7.26538 7.01515L6.61232 10.6212H5.41504L5.95926 6.59091C5.95926 5.74242 6.72116 5 7.59191 5H16.1905C17.0613 5 17.8232 5.74242 17.8232 6.59091L18.4763 10.6212H17.279L16.6259 7.01515Z" fill="#00C8DC"/>
</g>
<defs>
<clipPath id="clip0_115_110">
<rect width="24" height="24" fill="white"/>
</clipPath>
</defs>
</svg>
