<svg width="48" height="48" viewBox="0 0 48 48" fill="none" xmlns="http://www.w3.org/2000/svg">
<g clip-path="url(#clip0_174_12793)">
<path d="M25.08 48L23.76 47.52C23.76 47.52 23.88 41.04 21.6 40.56C20.04 38.76 21.84 -36.12 27.48 40.32C27.48 40.32 25.56 41.28 25.2 42.96C24.84 44.52 25.08 48 25.08 48Z" fill="white"/>
<path d="M25.08 48L23.76 47.52C23.76 47.52 23.88 41.04 21.6 40.56C20.04 38.76 21.84 -36.12 27.48 40.32C27.48 40.32 25.56 41.28 25.2 42.96C24.84 44.52 25.08 48 25.08 48Z" fill="#A6A385"/>
<path d="M25.8 41.76C25.8 41.76 36.96 34.44 34.32 19.08C31.8 7.92 25.92 4.31999 25.2 2.87999C24.48 1.92 23.76 0.119995 23.76 0.119995L24.24 31.08C24.24 31.08 23.28 40.56 25.8 41.76Z" fill="white"/>
<path d="M25.8 41.76C25.8 41.76 36.96 34.44 34.32 19.08C31.8 7.92 25.92 4.31999 25.2 2.87999C24.48 1.92 23.76 0.119995 23.76 0.119995L24.24 31.08C24.24 31.08 23.28 40.56 25.8 41.76Z" fill="#499D4A"/>
<path d="M23.16 42.12C23.16 42.12 12.6 34.92 13.32 22.32C13.92 9.72 21.24 3.48 22.68 2.4C23.64 1.44 23.64 1.08 23.76 0C24.36 1.44 24.24 21 24.36 23.28C24.6 32.16 23.88 40.44 23.16 42.12Z" fill="white"/>
<path d="M23.16 42.12C23.16 42.12 12.6 34.92 13.32 22.32C13.92 9.72 21.24 3.48 22.68 2.4C23.64 1.44 23.64 1.08 23.76 0C24.36 1.44 24.24 21 24.36 23.28C24.6 32.16 23.88 40.44 23.16 42.12Z" fill="#58AA50"/>
</g>
<defs>
<clipPath id="clip0_174_12793">
<rect width="48" height="48" fill="white"/>
</clipPath>
</defs>
</svg>
