<svg xmlns="http://www.w3.org/2000/svg" width="48" height="48" viewBox="0 0 48 48" fill="none">
  <g clip-path="url(#clip0_174_11861)">
    <path d="M46.9515 37.209C46.584 36.5595 45.732 35.4495 42.5865 33.309C40.7101 32.0219 38.7503 30.8608 36.72 29.8335C35.286 25.953 32.5095 20.922 28.458 14.8635C24.096 8.34 19.0305 5.592 13.3695 6.681C12.7519 6.06868 12.112 5.47928 11.451 4.914C10.023 3.6885 6.52501 2.6475 4.51501 2.847C3.60451 2.9385 2.92051 3.2715 2.48251 3.8355C1.46701 5.1435 1.80601 7.026 6.49051 13.1595C7.38151 15.7665 7.57201 17.1285 7.57201 17.814C7.57201 19.263 8.32051 20.925 9.91501 23.0055L8.41501 28.1385C7.07701 32.7225 9.50851 38.652 11.772 40.719C12.9795 41.823 13.9965 41.658 14.499 41.4615C15.507 41.0655 16.32 40.08 16.845 37.266C17.1135 37.9275 17.3985 38.64 17.6985 39.4035C19.3185 43.5165 20.9025 45.792 22.683 46.563C23.0431 46.6958 23.4403 46.6857 23.7931 46.5348C24.1459 46.3838 24.4276 46.1035 24.5802 45.7514C24.7328 45.3993 24.7448 45.0022 24.6138 44.6415C24.4827 44.2808 24.2186 43.984 23.8755 43.812C23.4345 43.62 22.2195 42.7005 20.487 38.304C19.026 34.5945 17.9625 32.1135 17.235 30.717C17.0813 30.425 16.8361 30.1914 16.5371 30.0519C16.238 29.9124 15.9015 29.8747 15.579 29.9445C15.2564 30.0165 14.9665 30.193 14.7544 30.4466C14.5423 30.7002 14.4199 31.0167 14.406 31.347C14.2245 35.6145 13.794 37.4595 13.506 38.238C12.264 36.81 10.3125 32.3325 11.292 28.9785C12.2655 25.6395 12.8385 23.685 13.0095 23.1075C13.0788 22.8736 13.0899 22.6262 13.0418 22.387C12.9937 22.1478 12.8879 21.924 12.7335 21.735C10.7805 19.3365 10.569 18.192 10.569 17.811C10.569 16.4295 10.1355 14.511 9.24301 11.9445C9.19171 11.7943 9.11621 11.6534 9.01951 11.5275C6.49651 8.241 5.56951 6.5955 5.23051 5.814C6.43201 5.871 8.71501 6.519 9.49651 7.191C10.2989 7.87492 11.0659 8.59936 11.7945 9.3615C12.1695 9.7575 12.7305 9.918 13.2585 9.78C17.955 8.565 22.1145 10.7715 25.965 16.53C30.081 22.686 32.8155 27.6885 34.0935 31.3995C34.158 31.5872 34.2591 31.7601 34.3909 31.9085C34.5228 32.0568 34.6827 32.1774 34.8615 32.2635C36.9587 33.2882 38.9767 34.4675 40.899 35.7915C41.2455 36.027 41.5575 36.246 41.8395 36.4485H37.206C36.92 36.4493 36.6401 36.5318 36.3993 36.6863C36.1586 36.8408 35.9669 37.0608 35.847 37.3205C35.7271 37.5802 35.6839 37.8688 35.7224 38.1522C35.7609 38.4357 35.8796 38.7022 36.0645 38.9205C37.5522 40.6827 39.0816 42.4092 40.6515 44.0985C40.7848 44.2484 40.9469 44.3701 41.128 44.4563C41.3092 44.5425 41.5058 44.5915 41.7062 44.6003C41.9067 44.6092 42.1069 44.5777 42.2949 44.5078C42.483 44.438 42.6551 44.3311 42.8011 44.1935C42.9472 44.0559 43.0641 43.8904 43.145 43.7068C43.2259 43.5232 43.2692 43.3253 43.2723 43.1247C43.2753 42.9241 43.2381 42.7249 43.1629 42.5389C43.0876 42.353 42.9758 42.184 42.834 42.042C42.0371 41.1906 41.2545 40.326 40.4865 39.4485H45.6465C45.9086 39.448 46.166 39.379 46.3932 39.2482C46.6203 39.1174 46.8092 38.9294 46.9412 38.703C47.0732 38.4765 47.1436 38.2195 47.1454 37.9574C47.1472 37.6953 47.0803 37.4373 46.9515 37.209Z" fill="#006794"></path>
    <path d="M15 13.569C15.594 14.589 16.053 15.3195 16.3755 15.762C16.764 16.524 17.3685 17.133 17.7555 17.8965L17.85 17.8035C18.531 17.337 19.065 15.483 17.979 14.265C17.415 13.413 15.5865 13.437 15 13.569Z" fill="#006794"></path>
  </g>
  <defs>
    <clipPath id="clip0_174_11861">
      <rect width="48" height="48" fill="white"></rect>
    </clipPath>
  </defs>
</svg>