<svg width="16" height="16" viewBox="0 0 16 16" fill="none" xmlns="http://www.w3.org/2000/svg">
<path d="M11.1355 13.8014C11.5309 13.8014 11.8512 13.5639 11.8512 13.2717V12.9405C11.8512 12.6483 11.5309 12.4108 11.1355 12.4108H4.83867C4.44336 12.4108 4.12305 12.6483 4.12305 12.9405V13.2717C4.12305 13.5639 4.44336 13.8014 4.83867 13.8014H11.1355Z" fill="#00C8DC"/>
<path d="M11.8449 6.4592L14.7902 9.95608C15.0293 10.2389 15.0293 10.6983 14.7902 10.9811L14.5246 11.2967C14.2855 11.5795 13.8996 11.5795 13.6621 11.2967L7.98711 4.55452L2.31211 11.2951C2.07305 11.578 1.68711 11.578 1.44961 11.2951L1.18398 10.9795C0.946484 10.6967 0.946484 10.2389 1.18398 9.95608L7.5418 2.40452C7.66367 2.2592 7.82617 2.18889 7.98711 2.19358C8.14805 2.18889 8.30899 2.2592 8.43242 2.40452L10.2496 4.56233V2.91702C10.2496 2.51702 10.523 2.19358 10.859 2.19358H11.2355C11.5715 2.19358 11.8449 2.51702 11.8449 2.91702V6.4592Z" fill="#00C8DC"/>
<path d="M7.21523 6.96875H8.75898C8.86211 6.96875 8.94492 7.06094 8.94492 7.17656V8.90625C8.94492 9.02031 8.86211 9.11406 8.75898 9.11406H7.21523C7.11211 9.11406 7.0293 9.02187 7.0293 8.90625V7.17656C7.0293 7.0625 7.11211 6.96875 7.21523 6.96875Z" fill="#00C8DC"/>
</svg>
