<svg width="48" height="48" viewBox="0 0 48 48" fill="none" xmlns="http://www.w3.org/2000/svg">
<path fill-rule="evenodd" clip-rule="evenodd" d="M23.1065 40.903H20.0389L20.717 41.9502H23.8255L24.4616 42.9989L25.8182 43L22.1849 37.3569C22.0305 37.1336 21.769 37 21.4839 37C21.3448 36.9986 21.2074 37.0313 21.084 37.0953C20.9606 37.1593 20.8551 37.2525 20.7767 37.3668L17.1559 43L18.5114 42.9989L21.4861 38.3079L23.1065 40.903ZM34.1123 37.0586V41.9513L39.4691 41.9517L38.7928 42.9985H33.5509C33.3911 42.9985 33.2422 42.9374 33.1295 42.8265C33.0227 42.7204 32.9619 42.5783 32.9619 42.4297V37.0586H34.1123ZM16.5063 40.478C16.1331 40.8539 15.626 41.0687 15.0946 41.0758L14.5682 41.0747L16.8763 42.9989H15.2062L11.7758 40.0278L15.0154 40.0289C15.1425 40.029 15.2684 40.0041 15.3858 39.9558C15.5032 39.9075 15.6099 39.8366 15.6997 39.7473C15.7896 39.6579 15.8608 39.5519 15.9094 39.4351C15.9579 39.3184 15.9828 39.1933 15.9827 39.067C15.9829 38.9407 15.958 38.8156 15.9095 38.6989C15.8609 38.5822 15.7897 38.4761 15.6998 38.3868C15.61 38.2975 15.5033 38.2266 15.3858 38.1784C15.2684 38.1301 15.1425 38.1053 15.0154 38.1055H11.213V42.9989H10.0637V37.0586H15.0946C15.626 37.0657 16.1331 37.2805 16.5063 37.6564C16.8796 38.0323 17.0888 38.5391 17.0888 39.0672C17.0888 39.5953 16.8796 40.1021 16.5063 40.478ZM0.87544 42.129C1.43597 42.686 2.19622 42.9989 2.98894 42.9989L6.46354 43C6.85611 43 7.24482 42.9231 7.60748 42.7737C7.97015 42.6244 8.29965 42.4055 8.57719 42.1296C8.85473 41.8537 9.07486 41.5262 9.22501 41.1658C9.37516 40.8053 9.45239 40.419 9.45229 40.0289C9.45229 39.2412 9.13742 38.4858 8.57693 37.9287C8.01644 37.3717 7.25624 37.0587 6.46354 37.0586H2.98894C2.19622 37.0586 1.43597 37.3715 0.87544 37.9285C0.314905 38.4856 0 39.241 0 40.0288C0 40.8165 0.314905 41.572 0.87544 42.129ZM7.12679 41.8058C6.89199 41.9024 6.64033 41.9521 6.38619 41.9521H3.06592C2.55919 41.9422 2.07655 41.7353 1.72168 41.3757C1.36681 41.0161 1.16803 40.5326 1.16803 40.0289C1.16803 39.5253 1.36681 39.0417 1.72168 38.6822C2.07655 38.3226 2.55919 38.1156 3.06592 38.1058H6.38619C6.64033 38.1058 6.89199 38.1555 7.12679 38.2521C7.36159 38.3488 7.57493 38.4904 7.75462 38.669C7.93431 38.8476 8.07682 39.0596 8.17402 39.293C8.27122 39.5263 8.3212 39.7764 8.32111 40.0289C8.3212 40.2815 8.27122 40.5316 8.17402 40.7649C8.07682 40.9983 7.93431 41.2103 7.75462 41.3889C7.57493 41.5675 7.36159 41.7091 7.12679 41.8058ZM27.0625 42.7824C27.429 42.9297 27.8212 43.0033 28.2165 42.9989H31.7633L32.4385 41.9521H28.2943C28.0369 41.957 27.7812 41.911 27.542 41.8166C27.3028 41.7222 27.085 41.5813 26.9012 41.4023C26.7174 41.2232 26.5715 41.0095 26.4718 40.7737C26.3722 40.5379 26.3208 40.2847 26.3208 40.0289C26.3208 39.7732 26.3722 39.52 26.4718 39.2842C26.5715 39.0484 26.7174 38.8347 26.9012 38.6556C27.085 38.4766 27.3028 38.3357 27.542 38.2413C27.7812 38.1469 28.0369 38.1008 28.2943 38.1058H31.669L32.3457 37.0586H28.2165C27.8212 37.0543 27.429 37.1279 27.0625 37.2752C26.696 37.4225 26.3626 37.6406 26.0815 37.9168C25.8004 38.193 25.5773 38.5219 25.425 38.8845C25.2727 39.247 25.1942 39.6359 25.1942 40.0288C25.1942 40.4216 25.2727 40.8105 25.425 41.1731C25.5773 41.5356 25.8004 41.8645 26.0815 42.1407C26.3626 42.417 26.696 42.635 27.0625 42.7824ZM41.1119 41.5633C41.4477 41.8155 41.8572 41.952 42.2781 41.9521H46.422L45.7468 42.9989H42.1997C41.4127 42.9902 40.6609 42.6735 40.1075 42.1174C39.5541 41.5613 39.2437 40.8108 39.2437 40.0288C39.2437 39.2467 39.5541 38.4962 40.1075 37.9401C40.6609 37.384 41.4127 37.0673 42.1997 37.0586H46.3288L45.6511 38.1058L42.2781 38.1055C41.8564 38.1055 41.4463 38.2425 41.1101 38.4955C40.774 38.7485 40.5301 39.1036 40.4158 39.507L46.0076 39.5073L45.331 40.5546H40.4172C40.5322 40.957 40.7761 41.3111 41.1119 41.5633ZM47.0989 37.3202C46.9999 37.4186 46.9443 37.552 46.9443 37.6911C46.9443 37.8302 46.9999 37.9636 47.0989 38.062C47.1979 38.1604 47.3322 38.2156 47.4722 38.2156C47.6122 38.2156 47.7464 38.1604 47.8454 38.062C47.9444 37.9636 48 37.8302 48 37.6911C48 37.552 47.9444 37.4186 47.8454 37.3202C47.7464 37.2219 47.6122 37.1666 47.4722 37.1666C47.3322 37.1666 47.1979 37.2219 47.0989 37.3202ZM47.6062 37.317C47.5554 37.298 47.5127 37.2969 47.4092 37.2969H47.2202V38.045H47.3675V37.7592H47.4696L47.6228 38.0454H47.7919L47.6169 37.7343C47.6379 37.7265 47.6427 37.7228 47.65 37.7173L47.6508 37.7167C47.6742 37.7026 47.6946 37.6839 47.7107 37.6619C47.7267 37.6398 47.7382 37.6148 47.7444 37.5882C47.7493 37.5681 47.752 37.5475 47.7525 37.5267C47.7525 37.4825 47.7388 37.3613 47.6062 37.317ZM47.5871 37.5882C47.5576 37.6311 47.5072 37.6344 47.4618 37.6351H47.3675V37.4202H47.4092C47.4788 37.4202 47.5134 37.4202 47.5473 37.4334C47.5645 37.4415 47.579 37.4544 47.5891 37.4705C47.5991 37.4866 47.6043 37.5052 47.604 37.5242C47.6051 37.5467 47.5991 37.5691 47.5871 37.5882Z" fill="#F80000"/>
<path d="M31.7201 5H16.2786C8.94431 5 3 10.8209 3 18C3 25.1778 8.94169 30.9961 16.272 31H31.7214C39.0557 31 45 25.1791 45 18C45 10.8209 39.0544 5 31.7214 5H31.7201ZM31.3815 26.4191H16.6237C14.388 26.354 12.2661 25.4391 10.7077 23.8683C9.14936 22.2974 8.27714 20.1942 8.27594 18.0044C8.27475 15.8146 9.14468 13.7104 10.7013 12.1379C12.2579 10.5655 14.3789 9.64831 16.6146 9.5809H31.3815C36.1314 9.5809 39.981 13.3497 39.981 18C39.981 22.6503 36.1314 26.4191 31.3815 26.4191Z" fill="#F80000"/>
</svg>
