<svg xmlns="http://www.w3.org/2000/svg" width="48" height="48" viewBox="0 0 48 48" fill="none">
  <g clip-path="url(#clip0_174_11968)">
    <path d="M46.4678 27.6707C45.2678 26.766 44.531 27.1115 43.7295 27.2771C42.9407 27.451 42.1371 27.5491 41.3296 27.5699C43.5003 23.9192 45.1544 19.9851 46.2446 15.8801C46.7759 13.9577 47.078 11.9793 47.1445 9.98593C47.1709 8.24362 47.0293 6.70049 45.9854 5.36855C42.7191 1.19994 38.1329 0.0479978 34.5859 0H34.2547C32.3905 0.0143084 30.5371 0.285652 28.747 0.806362L28.6198 0.847161C27.4905 0.645785 26.3469 0.535037 25.1999 0.515976C23.1018 0.450064 21.026 0.963199 19.2002 1.99911C17.5803 1.43993 14.2445 0.479978 10.7286 0.671969C8.28074 0.806362 5.60966 1.55033 3.62975 3.64063C1.64984 5.73093 0.610693 8.96358 0.831483 13.3626C0.89148 14.5769 1.23706 16.5568 1.81064 19.1223C2.42827 21.9389 3.22506 24.7132 4.19613 27.4283C5.20168 30.1666 6.30563 32.6265 8.03595 34.2992C8.89751 35.1368 10.0807 35.8399 11.4774 35.7823C12.4513 35.7149 13.3754 35.3267 14.1053 34.6784C14.4082 35.0625 14.7959 35.3713 15.238 35.5807C15.666 35.8177 16.1236 35.9969 16.5987 36.1135C17.8692 36.4497 19.1957 36.5176 20.4938 36.3127C21.0971 36.2061 21.6848 36.0247 22.2433 35.7727C22.2649 36.4327 22.2913 37.0783 22.3177 37.7334C22.3993 39.8045 22.4521 41.7197 23.0736 43.3972C23.1744 43.6708 23.448 45.0771 24.528 46.3274C25.6079 47.5778 27.7222 48.3529 30.1341 47.8394C31.8332 47.4746 33.9955 46.8194 35.4307 44.7747C36.8658 42.73 37.4898 39.8573 37.617 35.156C37.6458 34.9304 37.6818 34.7072 37.7274 34.484L38.0657 34.5152H38.1041C39.9185 34.5968 41.8864 34.34 43.5303 33.5744C44.987 32.9001 46.0886 32.2185 46.8901 31.009C47.1636 30.6315 47.3295 30.1869 47.3701 29.7226C47.3818 29.335 47.3069 28.9497 47.1508 28.5947C46.9947 28.2397 46.7613 27.9241 46.4678 27.6707ZM45.7214 30.1954C45.2102 30.961 44.2047 31.6857 42.9159 32.2857C41.7736 32.8161 40.1344 33.0945 38.6825 33.1113C38.0201 33.1337 37.3582 33.0552 36.7194 32.8785L36.6858 32.8641C36.465 34.9832 35.9658 39.1686 35.6275 41.0789C35.3659 42.6196 34.9075 43.8436 34.0195 44.7579C33.1316 45.6723 31.8956 46.2266 30.2181 46.5866C28.1422 47.033 26.6183 46.553 25.6583 45.7299C24.6984 44.9067 24.2376 43.81 23.9784 43.1572C23.7765 42.5577 23.6507 41.9353 23.604 41.3045C23.5128 40.5101 23.4456 39.5358 23.4 38.4366C23.3376 36.7567 23.3176 35.0768 23.34 33.3968C22.4718 34.1903 21.3939 34.7175 20.2346 34.916C19.1205 35.0864 17.9832 35.0252 16.8939 34.736C16.5279 34.6464 16.1741 34.5126 15.8404 34.3376C15.4712 34.172 15.1638 33.894 14.962 33.5432C14.8349 33.3104 14.7941 33.0401 14.8468 32.7801C14.9145 32.5168 15.0682 32.2836 15.2836 32.1177C15.6796 31.7961 16.2028 31.6161 16.9923 31.4529C18.4323 31.1577 18.9338 30.9538 19.2386 30.7114C19.5002 30.505 19.793 30.085 20.3138 29.4682V29.3866C19.3832 29.3586 18.4723 29.112 17.6547 28.6667C17.3547 28.981 15.8236 30.601 13.9541 32.8497C13.1693 33.7904 12.3005 34.3304 11.3862 34.3664C10.4718 34.4024 9.64147 33.9464 8.9359 33.2624C7.53197 31.8969 6.40882 29.5474 5.43207 26.8907C4.48156 24.2321 3.70162 21.5155 3.09698 18.7575C2.5306 16.2376 2.19702 14.1977 2.14902 13.2258C1.92103 9.06678 2.90019 6.26131 4.56091 4.49259C6.22163 2.72387 8.53272 2.0519 10.767 1.91991C14.7772 1.67992 18.5835 3.08626 19.3538 3.38624C20.8394 2.37829 22.7497 1.75192 25.1375 1.79032C26.2705 1.80705 27.3978 1.9536 28.4974 2.2271L28.5382 2.2079C29.0221 2.03901 29.5148 1.89641 30.0141 1.78072C31.3726 1.46405 32.7615 1.29587 34.1563 1.27914C37.5162 1.24794 41.8 2.1887 44.879 6.12451C45.5702 7.00767 45.7766 8.29881 45.7526 9.89234C45.6819 11.7791 45.3936 13.6514 44.8934 15.4721C43.6645 20.0772 41.7089 24.4569 39.1001 28.4459C39.1986 28.5155 39.3049 28.5735 39.4169 28.6187C39.9953 28.8587 41.3176 29.065 43.9551 28.5227C44.6198 28.3835 45.107 28.2827 45.611 28.6715C45.7334 28.7757 45.8301 28.9068 45.8934 29.0546C45.9567 29.2024 45.9849 29.3629 45.9758 29.5234C45.9507 29.7657 45.863 29.9973 45.7214 30.1954Z" fill="black"></path>
    <path d="M43.8255 6.95969C41.14 3.52785 37.5089 2.65429 34.4659 2.63989H34.1731C33.0272 2.65485 31.8857 2.78347 30.7653 3.02387C33.006 4.03277 34.9636 5.57826 36.465 7.52367C37.3865 8.69791 38.1483 9.98909 38.7305 11.3635C38.9134 11.7917 39.0642 12.2329 39.1817 12.6834C39.222 12.8408 39.2485 13.0014 39.2609 13.1634C39.2686 13.2601 39.2605 13.3573 39.2369 13.4514C39.2343 13.4608 39.2303 13.4697 39.2249 13.4778C39.2849 15.2297 38.8505 16.4176 38.8001 18.0904C38.7593 19.2903 39.0689 20.7302 39.1457 22.2806C39.2177 23.7397 39.0401 25.3428 38.0921 26.9172C38.1737 27.0132 38.2457 27.1091 38.3201 27.2051C40.6784 23.4799 42.4586 19.4188 43.5999 15.1601C44.0711 13.4425 44.3448 11.6768 44.4158 9.89715C44.435 8.42842 44.159 7.38447 43.8255 6.95969Z" fill="#326093"></path>
    <path d="M37.4585 28.2971C37.3049 28.0739 37.1417 27.8579 36.9785 27.6467C36.4309 26.982 35.9823 26.2415 35.6466 25.4484C35.4858 25.122 35.313 24.798 35.133 24.4885C34.8666 24.0085 34.5307 23.4085 34.1731 22.7341C33.4699 21.383 32.7043 19.7487 32.306 18.1528C31.9076 16.5568 31.8524 14.9129 32.8675 13.7514C33.7675 12.7194 35.3466 12.2922 37.7201 12.5322C37.6505 12.3234 37.6073 12.1482 37.4801 11.8675C36.9435 10.6052 36.2431 9.41912 35.397 8.33961C33.3979 5.75974 30.1437 3.21825 25.1159 3.13666H24.8759C22.512 3.13666 20.8177 3.85662 19.5314 4.92697C18.2042 6.03332 17.3139 7.54525 16.7307 9.09558C16.1694 10.6485 15.827 12.272 15.7131 13.9194L15.7395 13.9026C16.574 13.4393 17.4678 13.0921 18.3962 12.8706C19.3994 12.6306 20.4817 12.5706 21.4609 12.9498C22.44 13.329 23.2512 14.2241 23.5464 15.5897C24.9527 22.103 23.1072 24.5245 22.428 26.3532C22.1702 27.0157 21.9491 27.6919 21.7657 28.3787C21.8508 28.3553 21.9374 28.3377 22.0248 28.3259C22.3973 28.3056 22.7688 28.3799 23.1048 28.5419C23.4339 28.6911 23.7287 28.9067 23.9707 29.1751C24.2127 29.4435 24.3967 29.759 24.5111 30.1018C24.5799 30.2853 24.6274 30.4762 24.6527 30.6706C24.683 30.7518 24.6968 30.8383 24.6935 30.925C24.6183 33.416 24.6271 35.9079 24.7199 38.4006C24.7655 39.4758 24.8351 40.4237 24.9191 41.1725C24.9638 41.6825 25.0603 42.1867 25.2071 42.6772C25.4615 43.318 25.8359 44.1555 26.5126 44.7267C27.1894 45.2979 28.159 45.6723 29.9301 45.2931C31.466 44.9643 32.414 44.5059 33.0499 43.8532C33.6859 43.2004 34.0603 42.2788 34.3027 40.8773C34.6627 38.7774 35.3922 32.6865 35.481 31.5417C35.4135 30.843 35.5388 30.1391 35.8434 29.5066C36.0931 29.0598 36.4802 28.7055 36.9473 28.4963C37.1129 28.418 37.2837 28.3515 37.4585 28.2971Z" fill="#326093"></path>
    <path d="M14.1917 21.599C14.3667 20.2883 14.4365 18.9658 14.4005 17.644C14.3765 16.5784 14.2997 15.8705 14.2997 15.4289V15.3593C14.3004 13.0596 14.7016 10.7776 15.4852 8.6156C16.0478 7.03256 16.9487 5.59118 18.1251 4.39179C16.2626 3.76515 14.3264 3.38357 12.3654 3.25665C12.1254 3.24225 11.859 3.23505 11.607 3.23505C11.355 3.23505 11.0982 3.23505 10.8463 3.25905C8.82795 3.37424 6.91764 3.95981 5.5521 5.41894C4.18657 6.87808 3.28421 9.24197 3.481 13.1706C3.517 13.9145 3.84098 16.0001 4.39776 18.4743C4.99082 21.1749 5.75391 23.8352 6.68245 26.4396C7.62801 29.0122 8.77275 31.2393 9.8623 32.3121C10.4095 32.8425 10.8847 33.0561 11.3166 33.0321C11.7486 33.0081 12.2766 32.7609 12.9126 31.9953C14.0741 30.5906 15.2805 29.225 16.5316 27.8987C15.6436 27.1299 14.9637 26.1496 14.5547 25.0486C14.1457 23.9475 14.0209 22.7611 14.1917 21.599ZM37.8786 13.8953C37.3875 13.8322 36.893 13.8001 36.3979 13.7994C35.0395 13.8186 34.2788 14.1665 33.878 14.6249C33.3116 15.2753 33.2588 16.4152 33.6092 17.8192C33.9596 19.2231 34.6843 20.7974 35.3635 22.103C35.7043 22.7581 36.0331 23.3461 36.2995 23.8237C36.5133 24.1827 36.708 24.5528 36.8826 24.9324C36.9866 25.1797 37.106 25.4202 37.2402 25.6524C37.7092 24.6075 37.9034 23.46 37.8042 22.319C37.7346 20.9126 37.4106 19.4751 37.4586 18.0184C37.5114 16.3192 37.8474 15.2105 37.8786 13.8953ZM36.6474 14.8265C36.6517 14.9218 36.6275 15.0162 36.5779 15.0977C36.5183 15.2073 36.444 15.3083 36.3571 15.3977C36.1547 15.6207 35.8835 15.7694 35.5867 15.8201C35.2973 15.8555 35.005 15.7829 34.7659 15.6161C34.6681 15.5485 34.5801 15.4677 34.5043 15.3761C34.4423 15.3085 34.3993 15.2257 34.3796 15.1361C34.375 15.0898 34.3801 15.0431 34.3946 14.9989C34.4091 14.9547 34.4325 14.914 34.4636 14.8793C34.53 14.8031 34.6118 14.7418 34.7035 14.6993C34.9353 14.5757 35.1872 14.4944 35.4475 14.4593C35.554 14.4437 35.6614 14.4349 35.7691 14.4329H35.8675C35.9886 14.4352 36.1092 14.4496 36.2275 14.4761C36.3255 14.4954 36.4191 14.5328 36.5035 14.5865C36.5427 14.6107 36.5765 14.6428 36.6025 14.6808C36.6286 14.7189 36.6463 14.762 36.6547 14.8073L36.6474 14.8265Z" fill="#326093"></path>
    <path d="M20.441 28.0379C20.6383 27.3044 20.8787 26.5832 21.1609 25.878C21.9721 23.6893 23.5608 22.0933 22.2241 15.8656C22.0057 14.8457 21.5689 14.4257 20.9689 14.2025C20.6324 14.0833 20.2771 14.0264 19.9202 14.0345C19.5055 14.0371 19.0924 14.087 18.689 14.1833C17.8835 14.3777 17.1078 14.6796 16.3827 15.0809C16.1371 15.2122 15.9034 15.3648 15.6844 15.5368L15.6412 15.5752C15.6532 15.868 15.7108 16.576 15.7348 17.6176C15.7704 19.0108 15.6958 20.4047 15.5116 21.7862C15.0412 25.1988 17.5203 28.0331 20.441 28.0379ZM19.1258 15.2513C19.1464 15.1569 19.1931 15.0702 19.2606 15.001C19.328 14.9318 19.4135 14.883 19.5074 14.8601C19.706 14.798 19.9139 14.7712 20.1218 14.7809C20.2327 14.7816 20.3433 14.7904 20.453 14.8073C20.7283 14.8361 20.9955 14.9176 21.2401 15.0473C21.342 15.1004 21.4325 15.173 21.5065 15.2609C21.547 15.3068 21.5777 15.3604 21.5967 15.4186C21.6157 15.4768 21.6225 15.5383 21.6169 15.5992C21.5974 15.7149 21.5449 15.8224 21.4657 15.9088C21.3233 16.0795 21.1411 16.2125 20.9352 16.2962C20.7293 16.3799 20.506 16.4117 20.285 16.3888C19.9612 16.3369 19.6649 16.176 19.445 15.9328C19.3472 15.8345 19.2647 15.7221 19.2002 15.5992C19.1395 15.494 19.1134 15.3722 19.1258 15.2513ZM38.9081 29.857C38.668 29.7569 38.444 29.6218 38.2433 29.4562C37.9481 29.5618 37.7057 29.605 37.5018 29.6962C37.2944 29.7743 37.1234 29.9265 37.0218 30.1234C36.8946 30.3634 36.7818 30.7617 36.8202 31.4553C36.9101 31.5179 37.0099 31.5649 37.1154 31.5945C37.6234 31.7223 38.147 31.7772 38.6705 31.7577C39.9472 31.7433 41.5168 31.4457 42.3519 31.0569C43.0361 30.7395 43.6714 30.3257 44.2382 29.8282C41.4472 30.409 39.8728 30.2554 38.9081 29.857ZM22.5889 29.7706C22.4607 29.7076 22.3227 29.667 22.1809 29.6506H22.1401C22.0345 29.6506 21.8809 29.6962 21.5809 30.0274C20.8873 30.8073 20.6425 31.2969 20.069 31.7553C19.4954 32.2137 18.749 32.4561 17.2587 32.7608C16.9406 32.8177 16.631 32.9144 16.3371 33.0488C16.3767 33.0922 16.4239 33.128 16.4763 33.1544C16.7043 33.2776 16.9459 33.3735 17.1963 33.44C18.1057 33.6801 19.0542 33.7339 19.985 33.5984C20.6351 33.4927 21.2563 33.2535 21.8093 32.8958C22.3624 32.5381 22.8354 32.0697 23.1984 31.5201C23.2839 31.3761 23.333 31.2133 23.3413 31.0461C23.3497 30.8788 23.3171 30.712 23.2464 30.5601C23.1294 30.2264 22.896 29.946 22.5889 29.7706Z" fill="#326093"></path>
    <path d="M21.1802 16.1633C21.2879 16.0918 21.3842 16.0044 21.4658 15.9041C21.5442 15.819 21.5966 15.7132 21.6169 15.5993C21.6229 15.5385 21.6164 15.4771 21.5979 15.419C21.5793 15.3608 21.549 15.307 21.509 15.2609C21.4349 15.173 21.3444 15.1005 21.2426 15.0473C20.998 14.9176 20.7307 14.8361 20.4554 14.8073C20.3458 14.7905 20.2351 14.7817 20.1242 14.7809C19.9164 14.7713 19.7084 14.7981 19.5098 14.8601C19.416 14.8831 19.3305 14.9319 19.263 15.0011C19.1956 15.0702 19.1489 15.1569 19.1283 15.2513C19.1152 15.372 19.1403 15.4937 19.2003 15.5993C19.2639 15.7192 19.3447 15.8292 19.4402 15.9257C19.6602 16.1689 19.9565 16.3297 20.2802 16.3817C20.5969 16.4238 20.918 16.3459 21.1802 16.1633ZM36.4987 14.5913C36.4143 14.5377 36.3207 14.5002 36.2227 14.4809C36.1044 14.4545 35.9838 14.44 35.8627 14.4377H35.7595C35.6518 14.4397 35.5444 14.4485 35.4379 14.4641C35.1776 14.4993 34.9257 14.5805 34.6939 14.7041C34.6022 14.7466 34.5204 14.8079 34.4539 14.8841C34.4229 14.9188 34.3995 14.9595 34.385 15.0037C34.3705 15.0479 34.3654 15.0946 34.37 15.1409C34.3897 15.2305 34.4327 15.3133 34.4947 15.3809C34.5705 15.4725 34.6585 15.5533 34.7563 15.6209C34.9954 15.7877 35.2877 15.8603 35.5771 15.8249C35.8739 15.7742 36.1451 15.6255 36.3475 15.4025C36.4344 15.3131 36.5087 15.2121 36.5682 15.1025C36.6179 15.021 36.6421 14.9266 36.6378 14.8313V14.8169C36.6316 14.7717 36.616 14.7283 36.592 14.6895C36.568 14.6506 36.5362 14.6172 36.4987 14.5913Z" fill="white"></path>
    <path d="M45.6158 28.6714C45.1118 28.2899 44.6246 28.3835 43.9599 28.5227C41.32 29.065 40 28.8586 39.4217 28.6187C39.3097 28.5735 39.2034 28.5155 39.1049 28.4459C41.7137 24.4569 43.6693 20.0772 44.8982 15.4721C45.3983 13.6514 45.6866 11.7791 45.7574 9.89232C45.7814 8.2988 45.575 7.01246 44.8838 6.1245C41.8048 2.18868 37.5186 1.24793 34.1611 1.27912C32.7663 1.29585 31.3774 1.46403 30.0189 1.7807C29.5196 1.89639 29.0269 2.03899 28.543 2.20788L28.5022 2.22708C27.4026 1.95358 26.2753 1.80703 25.1423 1.7903C22.7544 1.7519 20.8441 2.37827 19.3586 3.38623C18.5834 3.09104 14.7772 1.6943 10.767 1.91989C8.53271 2.05189 6.24082 2.72146 4.5609 4.49257C2.88097 6.26369 1.92102 9.06676 2.13461 13.2306C2.18261 14.2121 2.51619 16.2424 3.08257 18.7623C3.6872 21.5203 4.46715 24.2369 5.41766 26.8955C6.39441 29.5522 7.51756 31.9017 8.92149 33.2672C9.62706 33.9512 10.455 34.412 11.3718 34.3712C12.2885 34.3304 13.1549 33.7952 13.9397 32.8545C15.8092 30.6058 17.3403 28.9858 17.6403 28.6714C18.4579 29.1168 19.3688 29.3634 20.2994 29.3914V29.473C19.7786 30.0898 19.4858 30.5098 19.2242 30.7162C18.9194 30.9561 18.4178 31.1625 16.9779 31.4577C16.1884 31.6209 15.6652 31.8009 15.2692 32.1225C15.0538 32.2884 14.9001 32.5215 14.8324 32.7849C14.7797 33.0449 14.8205 33.3152 14.9476 33.548C15.1539 33.8993 15.4666 34.1758 15.8404 34.3376C16.1702 34.5125 16.5199 34.6471 16.8819 34.7384C17.9712 35.0276 19.1085 35.0888 20.2226 34.9184C21.3819 34.7199 22.4598 34.1926 23.328 33.3992C23.3056 35.0824 23.3256 36.7623 23.388 38.439C23.4336 39.5381 23.5008 40.5125 23.592 41.3069C23.6387 41.9377 23.7645 42.5601 23.9664 43.1596C24.2328 43.8243 24.6864 44.9139 25.6463 45.7323C26.6063 46.5506 28.135 47.0354 30.2061 46.589C31.886 46.229 33.1292 45.6771 34.0075 44.7603C34.8859 43.8435 35.3539 42.622 35.6154 41.0813C35.9466 39.1614 36.453 34.9856 36.6738 32.8665L36.7074 32.8809C37.3489 33.0559 38.0133 33.132 38.6777 33.1064C40.1176 33.0896 41.7688 32.8113 42.9111 32.2809C44.1998 31.6809 45.2054 30.9561 45.7166 30.1906C45.8599 29.9929 45.9493 29.7613 45.9758 29.5186C45.9847 29.3593 45.9568 29.2 45.8944 29.0531C45.832 28.9062 45.7367 28.7756 45.6158 28.6714ZM34.1731 2.62066H34.4659C37.509 2.64466 41.14 3.51822 43.8255 6.94046C44.1662 7.37724 44.435 8.42119 44.4158 9.86112C44.3448 11.6408 44.0711 13.4065 43.5999 15.1241C42.4586 19.3828 40.6785 23.4439 38.3201 27.1691C38.2457 27.0731 38.1737 26.9771 38.0921 26.8811C39.0401 25.3068 39.2177 23.7037 39.1457 22.2445C39.0689 20.6894 38.7593 19.2663 38.8001 18.0543C38.8505 16.3744 39.2801 15.1937 39.2249 13.4418C39.2303 13.4337 39.2344 13.4248 39.2369 13.4154C39.2605 13.3213 39.2686 13.224 39.2609 13.1274C39.2485 12.9654 39.222 12.8048 39.1817 12.6474C39.0642 12.1968 38.9134 11.7557 38.7305 11.3275C38.1483 9.95306 37.3865 8.66188 36.465 7.48763C34.9636 5.54223 33.006 3.99674 30.7653 2.98784C31.8863 2.75309 33.0278 2.63009 34.1731 2.62066ZM37.8041 22.3189C37.9037 23.4608 37.7096 24.6091 37.2402 25.6548C37.1059 25.4226 36.9865 25.1821 36.8826 24.9348C36.7079 24.5552 36.5133 24.1851 36.2994 23.8261C36.033 23.3461 35.7042 22.7605 35.3635 22.1054C34.6843 20.7998 33.9595 19.2255 33.6091 17.8216C33.2588 16.4176 33.3116 15.2777 33.8779 14.6273C34.2787 14.1689 35.0395 13.8209 36.3978 13.8017C36.8929 13.8025 37.3875 13.8346 37.8785 13.8977C37.8473 15.2129 37.5114 16.3216 37.4586 18.0231C37.4106 19.4775 37.7345 20.915 37.8041 22.3189ZM12.9077 31.9905C12.2693 32.7561 11.7462 33.0056 11.3118 33.0272C10.8774 33.0488 10.4046 32.8305 9.85745 32.3073C8.7679 31.2465 7.62315 29.0074 6.6776 26.4348C5.74876 23.8281 4.98568 21.1653 4.3929 18.4623C3.83613 15.988 3.51215 13.9025 3.47615 13.1586C3.27936 9.22995 4.17931 6.85646 5.54725 5.40693C6.91519 3.9574 8.8231 3.37423 10.8414 3.24703C11.0814 3.23263 11.3478 3.22303 11.6022 3.22303C11.8422 3.22303 12.1085 3.22303 12.3605 3.24463C14.3216 3.37156 16.2577 3.75314 18.1203 4.37978C16.9438 5.57916 16.043 7.02055 15.4804 8.60358C14.697 10.7697 14.2974 13.0558 14.2996 15.3593V15.4193C14.2996 15.8608 14.3764 16.5688 14.4004 17.6344C14.4369 18.9594 14.3671 20.2851 14.1916 21.599C14.0203 22.7607 14.1444 23.9468 14.5525 25.0478C14.9606 26.1489 15.6396 27.1294 16.5267 27.8987C15.2692 29.2234 14.0629 30.5874 12.9077 31.9905ZM15.5212 21.7814C15.7054 20.3999 15.7801 19.006 15.7444 17.6128C15.7204 16.5712 15.6628 15.8632 15.6508 15.5705L15.694 15.5321C15.913 15.36 16.1467 15.2074 16.3923 15.0761C17.1174 14.6748 17.8931 14.3729 18.6986 14.1785C19.0989 14.083 19.5087 14.0331 19.9202 14.0297C20.2771 14.0216 20.6324 14.0785 20.9689 14.1977C21.5689 14.4377 22.0057 14.8409 22.2241 15.8608C23.5704 22.1006 21.9841 23.6845 21.1609 25.8732C20.8787 26.5784 20.6383 27.2996 20.441 28.0331C17.5203 28.0331 15.0412 25.1988 15.5212 21.7814ZM23.2008 31.5153C22.8385 32.0655 22.3661 32.5346 21.8135 32.8932C21.2608 33.2517 20.6399 33.4918 19.9898 33.5984C19.059 33.7339 18.1105 33.6801 17.2011 33.44C16.9507 33.3735 16.7091 33.2776 16.4811 33.1544C16.4287 33.1281 16.3815 33.0923 16.3419 33.0488C16.6358 32.9145 16.9454 32.8177 17.2635 32.7609C18.7538 32.4561 19.4978 32.2113 20.0738 31.7553C20.6497 31.2993 20.8921 30.7954 21.5857 30.0274C21.8857 29.6962 22.0393 29.6626 22.1449 29.6506H22.1857C22.3275 29.6671 22.4655 29.7076 22.5937 29.7706C22.9021 29.9446 23.1374 30.2241 23.256 30.5578C23.3256 30.7097 23.3571 30.8762 23.3479 31.0431C23.3387 31.2099 23.2891 31.372 23.2032 31.5153H23.2008ZM35.8386 29.4922C35.5341 30.1247 35.4087 30.8286 35.4763 31.5273C35.3875 32.6721 34.6579 38.763 34.2979 40.8629C34.0579 42.2644 33.6763 43.1788 33.0452 43.8387C32.414 44.4987 31.4636 44.9547 29.9253 45.2787C28.1542 45.6579 27.1822 45.2787 26.5079 44.7123C25.8335 44.1459 25.4567 43.3036 25.2023 42.6628C25.0555 42.1723 24.959 41.6681 24.9143 41.1581C24.8303 40.4093 24.7608 39.4613 24.7152 38.3862C24.6208 35.8951 24.612 33.4032 24.6888 30.9105C24.6921 30.8239 24.6782 30.7374 24.648 30.6562C24.6227 30.4618 24.5752 30.2709 24.5064 30.0874C24.3919 29.7446 24.208 29.4291 23.966 29.1607C23.724 28.8922 23.4292 28.6767 23.1 28.5275C22.764 28.3655 22.3925 28.2912 22.0201 28.3115C21.9326 28.3233 21.846 28.3409 21.7609 28.3643C21.9444 27.6775 22.1655 27.0013 22.4233 26.3388C23.1024 24.51 24.9479 22.0886 23.5416 15.5753C23.2464 14.2193 22.4377 13.3242 21.4561 12.9354C20.4746 12.5466 19.3946 12.6258 18.3915 12.8562C17.4631 13.0777 16.5692 13.4249 15.7348 13.8881L15.7084 13.9049C15.8249 12.2555 16.1706 10.6304 16.7355 9.07636C17.3187 7.52603 18.2091 6.0141 19.5362 4.90776C20.8225 3.83741 22.5169 3.12464 24.8807 3.11744H25.1207C30.1485 3.19904 33.4027 5.75732 35.4115 8.3156C36.2575 9.3951 36.9579 10.5812 37.4946 11.8434C37.6122 12.1242 37.6553 12.2994 37.7345 12.5082C35.3611 12.2682 33.7819 12.6954 32.882 13.7273C31.8668 14.8889 31.922 16.5376 32.3204 18.1287C32.7188 19.7199 33.4843 21.359 34.1875 22.7101C34.5403 23.3845 34.8763 23.9845 35.1475 24.4644C35.3275 24.7788 35.5002 25.1028 35.661 25.4244C35.9968 26.2175 36.4454 26.958 36.993 27.6227C37.161 27.8339 37.3242 28.0499 37.473 28.2731C37.2977 28.3227 37.1261 28.3844 36.9594 28.4579C36.4833 28.6707 36.0903 29.0341 35.841 29.4922H35.8386ZM42.3471 31.0617C41.512 31.4505 39.9472 31.7481 38.6657 31.7625C38.1422 31.782 37.6186 31.7271 37.1106 31.5993C37.0051 31.5698 36.9053 31.5227 36.8154 31.4601C36.7842 30.7666 36.8898 30.3586 37.017 30.1282C37.1186 29.9313 37.2896 29.7791 37.497 29.701C37.7009 29.6098 37.9433 29.5666 38.2385 29.461C38.4392 29.6266 38.6632 29.7617 38.9033 29.8618C39.8632 30.2602 41.4424 30.4138 44.2286 29.8378C43.6637 30.3331 43.0309 30.7452 42.3495 31.0617H42.3471Z" fill="white"></path>
  </g>
  <defs>
    <clipPath id="clip0_174_11968">
      <rect width="48" height="48" fill="white"></rect>
    </clipPath>
  </defs>
</svg>