<svg width="16" height="16" viewBox="0 0 16 16" fill="none" xmlns="http://www.w3.org/2000/svg">
<g clip-path="url(#clip0_304_10146)">
<path d="M13.8496 14.6396C13.8624 14.4264 13.8624 14.2126 13.8496 13.9996C13.8491 11.753 12.6251 9.6949 10.6778 8.66642C13.3053 7.27779 14.5102 4.09702 13.4856 1.25324C13.594 1.20053 13.6856 1.1175 13.75 1.01372C13.8144 0.90994 13.8489 0.789621 13.8496 0.666611C13.8496 0.489746 13.781 0.320393 13.6591 0.195178C13.5988 0.133276 13.5271 0.0841772 13.4482 0.0506879C13.3694 0.0171985 13.2849 -2.54064e-05 13.1995 2.81281e-08L2.80033 2.81281e-08C2.44143 2.81281e-08 2.15027 0.29848 2.15027 0.666611C2.14845 0.7919 2.18181 0.915081 2.24637 1.02146C2.31093 1.12783 2.40396 1.21291 2.51437 1.26655C1.49746 4.10657 2.70115 7.27873 5.32215 8.66642C3.37486 9.6949 2.15073 11.753 2.15043 13.9996C2.13761 14.2128 2.13761 14.4265 2.15043 14.6396C1.97341 14.6395 1.80403 14.7133 1.6815 14.8442C1.62079 14.9089 1.57346 14.9856 1.54236 15.0696C1.51126 15.1535 1.49703 15.2431 1.50052 15.3328C1.50052 15.701 1.79152 15.9995 2.15043 15.9995L13.8236 15.9995C14.0005 16.0068 14.1725 15.9398 14.3 15.8138C14.3632 15.7516 14.4134 15.6769 14.4476 15.5942C14.4819 15.5116 14.4995 15.4227 14.4995 15.3328C14.503 15.2431 14.4888 15.1535 14.4577 15.0695C14.4266 14.9856 14.3792 14.9089 14.3185 14.8442C14.2578 14.7795 14.185 14.728 14.1044 14.6928C14.0238 14.6577 13.9371 14.6396 13.8496 14.6396ZM3.45024 3.33321C3.44994 2.64109 3.60101 1.95757 3.89216 1.33322L12.1075 1.33322C12.9114 3.06447 12.6007 5.12378 11.3245 6.52509C10.0484 7.9264 8.0663 8.38421 6.32761 7.67941C4.58907 6.97477 3.44765 5.25072 3.45024 3.33321ZM12.5496 14.6396L3.48931 14.6396C3.47588 14.4264 3.47588 14.2126 3.48931 13.9996C3.48931 11.4224 5.52632 9.33303 8.03898 9.33303C10.5516 9.33303 12.5887 11.4224 12.5887 13.9996C12.5761 14.2145 12.5501 14.4283 12.5107 14.6396H12.5496ZM11.3537 5.38642L4.64615 5.38642C5.3487 6.60069 6.62319 7.34525 7.99992 7.34525C9.37649 7.34525 10.6513 6.60084 11.3537 5.38642Z" fill="#098EFE"/>
</g>
<defs>
<clipPath id="clip0_304_10146">
<rect width="16" height="16" fill="white"/>
</clipPath>
</defs>
</svg>
