<svg width="500" height="500" viewBox="0 0 500 500" fill="none" xmlns="http://www.w3.org/2000/svg">
<g clip-path="url(#clip0_1962_7179)">
<path d="M250 500C388.071 500 500 388.071 500 250C500 111.929 388.071 0 250 0C111.929 0 0 111.929 0 250C0 388.071 111.929 500 250 500Z" fill="#FCC397"/>
<path d="M0.00018458 250.001C0.00018458 388.075 111.926 500.001 250 500.001C388.074 500.001 500 388.075 500 250.001C500 146.63 437.265 57.9209 347.787 19.8574C315.738 21.5173 272.213 28.6894 229.508 51.2304C156.342 89.8574 78.8117 68.423 78.3199 68.2898C53.5522 91.6273 33.8257 119.789 20.356 151.041C6.88634 182.292 -0.0412281 215.97 0.00018458 250.001Z" fill="#FC9F95"/>
<path d="M0.000186471 249.999C0.000186471 388.073 111.926 499.999 250 499.999C388.074 499.999 500 388.073 500 249.999C500.086 193.718 481.095 139.069 446.127 94.9688C413.648 114.108 340.574 145.092 234.631 120.901C105.533 91.4134 24.5903 143.647 23.3301 144.467C7.91983 177.512 -0.0444353 213.538 0.000186471 249.999Z" fill="#F77C88"/>
<path d="M496.158 206.097C436.752 165.728 350.236 132.07 256.148 178.279C85.7582 261.968 5.29713 202.449 4.63115 201.947C1.55142 217.78 0.000571424 233.871 0 250.001C0 388.074 111.926 500.001 250 500.001C388.074 500.001 500 388.074 500 250.001C500.004 235.282 498.718 220.591 496.158 206.097Z" fill="#F25192"/>
<path d="M0 250C0 388.074 111.926 500 250 500C361.578 500 456.066 426.906 488.227 325.994C396.691 312.131 292.51 251.875 204.918 220.287C81.2398 175.676 1.71107 245.4 0 246.926C0 247.951 0 248.976 0 250Z" fill="#D34CA3"/>
<path d="M281.764 289.958C213.434 331.598 116.999 364.333 40.3086 386.147C62.9877 421.111 94.0552 449.846 130.681 469.731C167.306 489.617 208.325 500.022 250.001 499.999C386.825 499.999 497.952 390.081 500.001 253.739C499.151 253.339 412.307 210.409 281.764 289.958Z" fill="#9A50A5"/>
<path d="M244.878 336.065C92.2757 266.701 13.1671 328.248 12.6445 328.658C45.6056 428.186 139.417 500 250.001 500C362.931 500 458.351 425.123 489.366 322.305C441.599 349.938 351.149 384.375 244.878 336.065Z" fill="#59569E"/>
<path d="M273.567 406.762C167.399 459.846 70.2475 423.278 69.5508 423.012C96.455 451.089 129.538 472.503 166.17 485.551C202.802 498.6 241.973 502.923 280.569 498.177C319.165 493.431 356.122 479.747 388.502 458.213C420.881 436.678 447.791 407.887 467.092 374.128C414.961 371.618 337.286 374.897 273.567 406.762Z" fill="#39477F"/>
</g>
<defs>
<clipPath id="clip0_1962_7179">
<rect width="500" height="500" fill="white"/>
</clipPath>
</defs>
</svg>
