<svg width="48" height="48" viewBox="0 0 48 48" fill="none" xmlns="http://www.w3.org/2000/svg">
<g clip-path="url(#clip0_174_12801)">
<path d="M0.0783387 29.9269L0 35.3485L21.1224 44.6208C21.1224 44.6208 23.3746 45.723 27.3044 43.9023C29.7748 42.7542 48.0061 34.222 48.0061 34.222V29.0436C48.0061 29.0436 48.0378 29.7331 47.4793 30.0437C46.9208 30.3544 25.2311 39.8462 25.2311 39.8462C25.2311 39.8462 23.4705 40.4493 21.9483 39.8685C21.4081 39.6625 18.1347 38.1424 13.8362 36.2764C7.65018 33.592 0.491643 30.5712 0.491643 30.5712C0.491643 30.5712 0.129664 30.2599 0.0783387 29.9269Z" fill="#A42122"/>
<path d="M21.8734 20.5135C21.8734 20.5135 25.0677 19.1716 27.9433 20.5135C30.8188 21.8554 47.4955 28.2447 47.4955 28.2447C47.4955 28.2447 48.965 29.4603 46.9201 30.3538C44.8752 31.2473 24.8759 40.0016 24.8759 40.0016C24.8759 40.0016 23.0235 40.7046 20.3397 39.2351C17.7437 37.8135 1.57622 31.071 0.522021 30.6314C0.482968 30.6157 0.448232 30.5909 0.420721 30.5591C0.189082 30.3018 -0.727346 29.1038 1.49045 28.3089C3.98243 27.4141 21.8734 20.5135 21.8734 20.5135Z" fill="#D82F27"/>
<path d="M0.0783387 21.49L0 26.9115L21.1224 36.1839C21.1224 36.1839 23.3746 37.288 27.3044 35.4646C29.7748 34.3166 48.0061 25.7844 48.0061 25.7844V20.6073C48.0061 20.6073 48.0378 21.2968 47.4793 21.6075C46.9208 21.9181 25.2311 31.4126 25.2311 31.4126C25.2311 31.4126 23.4705 32.0157 21.9483 31.4349C21.4081 31.2289 18.1347 29.7088 13.8362 27.8428C7.65018 25.1584 0.491643 22.1376 0.491643 22.1376C0.491643 22.1376 0.129664 21.8229 0.0783387 21.49Z" fill="#A42122"/>
<path d="M21.8734 12.0792C21.8734 12.0792 25.0677 10.7373 27.9433 12.0792C30.8188 13.4211 47.4955 19.8104 47.4955 19.8104C47.4955 19.8104 48.965 21.026 46.9201 21.9195C44.8752 22.8129 24.8759 31.5673 24.8759 31.5673C24.8759 31.5673 23.0235 32.2703 20.3397 30.8008C17.7437 29.3792 1.57622 22.6367 0.522021 22.197C0.482968 22.1814 0.448232 22.1566 0.420721 22.1248C0.189082 21.8675 -0.727346 20.6694 1.49045 19.8746C3.98243 18.9797 21.8734 12.0792 21.8734 12.0792Z" fill="#D82F27"/>
<path d="M0.0783387 13.0558L0 18.4774L21.1224 27.7497C21.1224 27.7497 23.3746 28.8519 27.3044 27.0312C29.7748 25.8831 48.0061 17.3509 48.0061 17.3509V12.1752C48.0061 12.1752 48.0378 12.8647 47.4793 13.1747C46.9208 13.4846 25.2311 22.9778 25.2311 22.9778C25.2311 22.9778 23.4705 23.5809 21.9483 23.0001C21.4081 22.7975 18.1347 21.2739 13.8362 19.408C7.65018 16.7235 0.491643 13.7028 0.491643 13.7028C0.491643 13.7028 0.129664 13.3914 0.0783387 13.0558Z" fill="#A42122"/>
<path d="M21.8734 3.64498C21.8734 3.64498 25.0677 2.30309 27.9433 3.64498C30.8188 4.98687 47.4955 11.3762 47.4955 11.3762C47.4955 11.3762 48.965 12.5918 46.9201 13.4853C44.8752 14.3787 24.8759 23.1331 24.8759 23.1331C24.8759 23.1331 23.0235 23.8361 20.3397 22.3666C17.7437 20.945 1.57622 14.2025 0.522021 13.7628C0.482968 13.7472 0.448232 13.7224 0.420721 13.6906C0.189082 13.4333 -0.727346 12.2352 1.49045 11.4404C3.98243 10.5449 21.8734 3.64498 21.8734 3.64498Z" fill="#D82F27"/>
<path d="M8.00745 12.8667C8.00738 13.208 8.16847 13.5459 8.48153 13.8613C8.79458 14.1766 9.25347 14.4631 9.83198 14.7044C10.4105 14.9457 11.0973 15.1372 11.8532 15.2678C12.6091 15.3984 13.4192 15.4656 14.2374 15.4656C15.0556 15.4656 15.8657 15.3984 16.6216 15.2678C17.3775 15.1372 18.0643 14.9457 18.6428 14.7044C19.2213 14.4631 19.6802 14.1766 19.9933 13.8613C20.3063 13.5459 20.4674 13.208 20.4674 12.8667C20.4674 12.5254 20.3063 12.1875 19.9933 11.8722C19.6802 11.5569 19.2213 11.2704 18.6428 11.029C18.0643 10.7877 17.3775 10.5963 16.6216 10.4657C15.8657 10.335 15.0556 10.2678 14.2374 10.2678C13.4192 10.2678 12.6091 10.335 11.8532 10.4657C11.0973 10.5963 10.4105 10.7877 9.83198 11.029C9.25347 11.2704 8.79458 11.5569 8.48153 11.8722C8.16847 12.1875 8.00738 12.5254 8.00745 12.8667Z" fill="white"/>
<path d="M21.5533 5.75342L22.3839 7.60653L19.1255 9.01258L24.0216 9.45965L25.0677 11.8875L26.1543 9.39549H29.924L27.1126 7.92597L27.8791 6.13701L25.1319 7.03182L21.5533 5.75342ZM17.2723 16.9356L25.1319 20.45L28.2627 15.4661L17.2723 16.9356Z" fill="white"/>
<path d="M35.2274 9.97083L28.2627 12.8667L35.2274 15.466V9.97083Z" fill="#AD2524"/>
<path d="M41.3615 12.3986L35.2274 9.97083V15.466L41.3615 12.3986Z" fill="#791514"/>
</g>
<defs>
<clipPath id="clip0_174_12801">
<rect width="48" height="48" fill="white"/>
</clipPath>
</defs>
</svg>
