<svg width="20" height="20" viewBox="0 0 20 20" fill="none" xmlns="http://www.w3.org/2000/svg">
<path d="M9.9998 3.38917C6.37935 3.38917 3.4332 6.342 3.4332 9.99835H2.23153C2.23153 5.68454 5.7095 2.1875 9.9998 2.1875C12.7952 2.1875 15.2458 3.67214 16.6141 5.90002L16.6141 3.30315H17.8125V7.31117C17.8125 7.58731 17.5886 7.81117 17.3125 7.81117L13.3291 7.81117V6.60622L15.6369 6.60622C14.4887 4.67763 12.3914 3.38917 9.9998 3.38917Z" fill="#098EFE"/>
<path d="M17.7681 9.99829H16.5664C16.5664 13.6546 13.6203 16.6075 9.99981 16.6075C7.60826 16.6075 5.51094 15.3191 4.36268 13.3905H6.67095V12.1855H2.6875C2.41136 12.1855 2.1875 12.4094 2.1875 12.6855V16.6936H3.38588V14.0973C4.75428 16.3248 7.20464 17.8092 9.99981 17.8092C14.2901 17.8092 17.7681 14.3121 17.7681 9.99829Z" fill="#098EFE"/>
</svg>
