<svg fill="none" xmlns="http://www.w3.org/2000/svg" viewBox="0 0 14 14" class="design-iconfont">
  <path d="M5.38461 0.538467C5.3846 0.46771 5.37066 0.397652 5.34359 0.332313C5.31653 0.266974 5.27687 0.207639 5.2269 0.157711C5.12578 0.056672 4.98887 -3.87092e-05 4.84615 1.98237e-08H0.538462C0.241075 1.98237e-08 0 0.241085 0 0.538468V4.84616C0 5.14354 0.241075 5.38461 0.538462 5.38461C0.835849 5.38461 1.07692 5.14354 1.07692 4.84616V1.83837L7.14144 7.9204H4.17201C3.87574 7.9204 3.63558 8.16209 3.63558 8.4602C3.63558 8.75833 3.87574 9 4.17201 9H8.46355C8.75982 9 9 8.75833 9 8.4602V4.14182C9 3.99866 8.94348 3.86136 8.84288 3.76013C8.79314 3.71004 8.73403 3.67028 8.66893 3.64315C8.60384 3.61602 8.53404 3.60205 8.46355 3.60203C8.32128 3.60203 8.18484 3.6589 8.08424 3.76013C7.98358 3.86151 7.92708 3.99876 7.92712 4.14182V7.1152L1.90623 1.07692L4.84615 1.07692C4.98896 1.07692 5.12592 1.0202 5.2269 0.919223C5.27687 0.869294 5.31653 0.809956 5.34359 0.744614C5.37066 0.679272 5.3846 0.609228 5.38461 0.538467Z" fill="#DADDE7"/>
  <path d="M14 13.4615V9.15384C14 8.85646 13.7589 8.61539 13.4615 8.61539C13.1642 8.61539 12.9231 8.85646 12.9231 9.15384L12.9231 12.9231H9.15385C8.85646 12.9231 8.61538 13.1641 8.61538 13.4615C8.61538 13.7589 8.85646 14 9.15385 14L13.4615 14C13.7589 14 14 13.7589 14 13.4615Z" fill="#DADDE7"/>
  <path d="M13.4615 5.38462C13.5323 5.3846 13.6023 5.37066 13.6677 5.34359C13.733 5.31653 13.7924 5.27687 13.8423 5.2269C13.9433 5.12578 14 4.98887 14 4.84615V0.538462C14 0.241075 13.7589 1.98237e-08 13.4615 1.98237e-08H9.15384C8.85646 1.98237e-08 8.61539 0.241075 8.61539 0.538462C8.61539 0.835848 8.85646 1.07692 9.15384 1.07692H12.9231V4.84615C12.9231 4.98896 12.9798 5.12592 13.0808 5.2269C13.1307 5.27687 13.19 5.31653 13.2554 5.34359C13.3207 5.37066 13.3908 5.3846 13.4615 5.38462Z" fill="#DADDE7"/>
  <path d="M0.538467 14H4.84616C5.14354 14 5.38461 13.7589 5.38461 13.4615C5.38461 13.1642 5.14354 12.9231 4.84616 12.9231H1.07692V9.15385C1.07692 8.85646 0.83585 8.61538 0.538467 8.61538C0.241085 8.61538 0 8.85646 0 9.15385V13.4615C0 13.7589 0.241085 14 0.538467 14Z" fill="#DADDE7"/>
</svg>
