<svg fill="none" xmlns="http://www.w3.org/2000/svg" viewBox="0 0 16 16" class="design-iconfont">
  <path d="M7.5 1C11.0898 1 14 3.91016 14 7.5C14 9.36947 13.2088 11.0525 11.9453 12.2383L14.3535 14.6465L14.418 14.7246C14.5461 14.9187 14.5244 15.1827 14.3535 15.3535C14.1827 15.5244 13.9187 15.5461 13.7246 15.418L13.6465 15.3535L11.1621 12.8691C10.1191 13.5819 8.85864 14 7.5 14C3.91016 14 1 11.0898 1 7.5C1 3.91016 3.91016 1 7.5 1ZM7.5 2C4.46245 2 2 4.46245 2 7.5C2 10.5376 4.46245 13 7.5 13C10.5376 13 13 10.5376 13 7.5C13 4.46245 10.5376 2 7.5 2ZM7.5 4C8.45297 4.00001 9.29379 4.46746 9.88477 5.18066C10.0608 5.3932 10.0317 5.70855 9.81934 5.88477C9.63328 6.0389 9.36875 6.03532 9.1875 5.88965L9.11523 5.81934L8.94629 5.63379C8.53838 5.22712 8.03287 5.00001 7.5 5C6.89103 5 6.31745 5.29703 5.88477 5.81934C5.70855 6.03167 5.3932 6.06083 5.18066 5.88477C4.96833 5.70855 4.93917 5.3932 5.11523 5.18066C5.70621 4.46746 6.54706 4 7.5 4Z" fill="#999"/>
</svg>
