<svg xmlns="http://www.w3.org/2000/svg" width="18" height="18" viewBox="0 0 18 18" fill="none">
  <g clip-path="url(#clip0_153_11441)">
    <path d="M0 2.24975C0 1.01249 3.05994 0 6.8002 0C10.5405 0 13.6004 1.01249 13.6004 2.24975V4.49949C13.6004 5.73675 10.5405 6.74924 6.8002 6.74924C3.05994 6.74924 0 5.73777 0 4.49949V2.24975Z" fill="#098EFE"></path>
    <path d="M5.89344 11.2498C2.60707 11.1374 0 10.1249 0 9.00001V6.75026C0 6.52549 0.113218 6.4131 0.226435 6.18732C1.01998 7.1998 3.62603 7.87513 6.79918 7.87513C7.36629 7.87513 7.93238 7.87513 8.38627 7.76275C7.25308 8.66285 6.34631 9.78772 5.89344 11.2498Z" fill="#098EFE"></path>
    <path d="M6.34631 15.7503C2.8335 15.6369 0 14.7378 0 13.4995V11.2498C0 11.025 0.113218 10.9126 0.226435 10.6868C0.906762 11.5869 3.05994 12.1499 5.66701 12.3746V12.9376C5.66701 13.9501 5.89344 14.8502 6.34631 15.7503Z" fill="#098EFE"></path>
    <path d="M11.9001 7.87512C9.0666 7.87512 6.8002 10.1249 6.8002 12.9376C6.8002 15.7502 9.0666 18 11.9001 18C14.7336 18 17 15.7502 17 12.9376C17 10.1249 14.7326 7.87512 11.9001 7.87512ZM11.9001 15.5194L10.8975 14.5241C11.1688 14.2548 11.5033 14.1201 11.9001 14.1201C12.2969 14.1201 12.6314 14.2548 12.9027 14.5241L11.9001 15.5194ZM13.5769 13.8549C13.1169 13.3982 12.558 13.1704 11.9001 13.1704C11.2422 13.1704 10.6833 13.3982 10.2233 13.8549L9.56537 13.1856C10.2131 12.5528 10.9933 12.2369 11.9083 12.2369C12.8232 12.2369 13.5984 12.5528 14.2348 13.1856L13.5769 13.8549ZM14.908 12.5326C14.0727 11.7135 13.07 11.3044 11.9001 11.3044C10.7302 11.3044 9.72754 11.7135 8.89218 12.5326L8.21899 11.8633C9.24305 10.8579 10.4721 10.3547 11.9083 10.3547C13.3444 10.3547 14.5694 10.8579 15.5822 11.8633L14.908 12.5326Z" fill="#00C8DC"></path>
  </g>
  <defs>
    <clipPath id="clip0_153_11441">
      <rect width="18" height="18" fill="white"></rect>
    </clipPath>
  </defs>
</svg>