<svg width="48" height="48" viewBox="0 0 48 48" fill="none" xmlns="http://www.w3.org/2000/svg">
<path d="M23.3983 25.6742C23.1883 25.3114 22.9175 24.9824 22.5962 24.6997C22.2958 24.4569 21.9455 24.2741 21.5668 24.1624C21.2039 24.0536 20.8249 23.9988 20.4438 24C19.9449 24.0033 19.4542 24.119 19.0134 24.3374C18.6169 24.532 18.2667 24.7998 17.984 25.1245C17.7041 25.4579 17.4788 25.8285 17.3155 26.2239C17.1459 26.6228 17.0466 27.0447 17.0214 27.4733C16.9929 27.8226 16.9929 28.1734 17.0214 28.5227C17.0667 29.0208 17.193 29.5095 17.3958 29.972C17.5799 30.3778 17.8327 30.7532 18.1444 31.0839C18.4349 31.3832 18.7967 31.6143 19.2005 31.7586C19.6775 31.9308 20.1867 32.0116 20.6978 31.996C20.9943 32.0106 21.2914 31.9853 21.5802 31.921L22.409 31.6961L21.3663 30.7591L23.1042 29.085L23.7325 29.7096C23.8018 29.5255 23.8599 29.3378 23.9063 29.1474C23.9622 28.8169 23.9891 28.4826 23.9865 28.1479C24.0573 27.2776 23.8478 26.4073 23.3849 25.6492L23.3983 25.6742Z" fill="#007BEA"/>
<path d="M34.4005 1H10.5897C9.5717 1 8.59544 1.40479 7.87564 2.12532C7.15584 2.84585 6.75146 3.8231 6.75146 4.84209V18.2719H2.91326C2.40583 18.2719 1.91919 18.4737 1.56038 18.8328C1.20158 19.192 1 19.6792 1 20.1871L1 36.5364C1.02388 37.0291 1.2356 37.4938 1.59153 37.8349C1.94747 38.176 2.42053 38.3675 2.91326 38.3699H6.75146V43.1696C6.75146 43.6736 6.85082 44.1726 7.04385 44.6381C7.23688 45.1036 7.51978 45.5264 7.87634 45.8822C8.23291 46.2381 8.65612 46.52 9.12172 46.7118C9.58732 46.9036 10.0862 47.0015 10.5897 47H43.1735C44.1883 47 45.1616 46.5964 45.8792 45.8781C46.5969 45.1597 47 44.1855 47 43.1696V13.7058L34.4005 1ZM8.11641 33.9439C7.68436 33.923 7.25497 33.8644 6.83312 33.7687C6.41966 33.6774 6.02502 33.5154 5.6665 33.2899C5.26571 33.0182 4.92761 32.6638 4.67487 32.2506C4.38476 31.8211 4.20082 31.3288 4.13822 30.8142L4.00989 30.0434H6.34314C6.36281 30.259 6.39397 30.4734 6.43647 30.6857C6.51176 30.9404 6.64791 31.1729 6.83312 31.363C7.06801 31.6225 7.37797 31.8022 7.71976 31.8769C8.221 31.9886 8.73565 32.028 9.24803 31.9936C9.64314 31.9897 10.0358 31.9308 10.4147 31.8185C10.6979 31.7553 10.9475 31.5888 11.1146 31.3513C11.2473 31.1214 11.3082 30.8571 11.2896 30.5923C11.2849 30.4085 11.237 30.2285 11.1496 30.0668C11.054 29.9195 10.9264 29.7958 10.7763 29.7047C10.5657 29.5899 10.3426 29.4997 10.1113 29.4361C9.83135 29.3505 9.44247 29.2571 8.94471 29.1559L7.3931 28.8522C6.90312 28.7471 6.44814 28.642 6.02815 28.5252C5.6649 28.435 5.32363 28.2721 5.02485 28.0464C4.77468 27.8673 4.57073 27.6311 4.42988 27.3574C4.29592 27.1172 4.20138 26.857 4.14989 26.5867C4.11953 26.3072 4.11953 26.0253 4.14989 25.7459C4.14455 25.0773 4.34853 24.4239 4.7332 23.8774C5.03899 23.4596 5.43862 23.1195 5.89982 22.8847C6.31754 22.676 6.76072 22.5229 7.21811 22.4293C7.75663 22.3291 8.30368 22.2821 8.85138 22.2892C9.44037 22.288 10.0275 22.3546 10.6013 22.4877C11.0539 22.5891 11.4846 22.771 11.8729 23.0249C12.2309 23.2717 12.5461 23.5755 12.8062 23.9241C13.0441 24.2006 13.205 24.5349 13.2729 24.8934L13.3779 25.6524H10.9863C10.9268 25.4325 10.8406 25.2208 10.7296 25.0218C10.6302 24.8634 10.4941 24.7312 10.333 24.6364C10.096 24.5271 9.84455 24.4524 9.58636 24.4146C9.27716 24.3667 8.96561 24.3355 8.65306 24.3211C8.21309 24.3059 7.77319 24.3531 7.34644 24.4613C7.02059 24.5113 6.71863 24.6624 6.48313 24.8934C6.32562 25.0548 6.22699 25.2646 6.20314 25.4889C6.17279 25.6722 6.20138 25.8603 6.28481 26.0261C6.35516 26.2027 6.48245 26.3507 6.64646 26.4465C6.89314 26.5723 7.15626 26.6628 7.4281 26.7151C7.78975 26.8086 8.10474 26.8786 8.38473 26.9254L9.67969 27.1356C10.1704 27.2136 10.6542 27.3308 11.1263 27.4859C11.5816 27.6309 12.0109 27.8478 12.3979 28.1282C12.765 28.3936 13.0647 28.7416 13.2729 29.1442C13.4863 29.6242 13.5746 30.1506 13.5295 30.674C13.5099 31.2393 13.3665 31.7935 13.1096 32.2973C12.9032 32.7082 12.5937 33.0583 12.2113 33.3133C11.8565 33.5459 11.4605 33.7084 11.0446 33.7921C10.5635 33.8843 10.0759 33.939 9.58636 33.9556C9.07304 33.9672 8.59472 33.9672 8.11641 33.9439ZM44.1651 43.2163C44.1651 43.4703 44.0643 43.7138 43.8849 43.8934C43.7055 44.073 43.4622 44.1739 43.2085 44.1739H10.5897C10.3331 44.1709 10.0871 44.0708 9.90134 43.8936C9.72304 43.7132 9.62251 43.47 9.62135 43.2163V38.3699H38.332C38.8394 38.3699 39.3261 38.1681 39.6849 37.8089C40.0437 37.4498 40.2452 36.9626 40.2452 36.4547V20.1053C40.2271 19.6107 40.0171 19.1426 39.6599 18.8004C39.3028 18.4581 38.8264 18.2685 38.332 18.2719H9.62135V4.84209C9.62251 4.58833 9.72304 4.34514 9.90134 4.16476C9.99102 4.07287 10.0981 3.99973 10.2162 3.94961C10.3344 3.89949 10.4613 3.87339 10.5897 3.87281H33.1988L33.5838 4.26986V10.0272C33.5838 10.6063 33.698 11.1798 33.9197 11.7147C34.1415 12.2496 34.4665 12.7355 34.8761 13.1444C35.2858 13.5534 35.772 13.8775 36.307 14.098C36.8419 14.3186 37.4151 14.4313 37.9937 14.4298H43.6751L44.1301 14.8852L44.1651 43.2163ZM26.1874 32.5892L24.6708 34.1541L23.7842 33.2315C23.4809 33.3717 23.1075 33.5235 22.6759 33.6986C22.0836 33.8869 21.4657 33.9814 20.8443 33.9789C19.9918 34.0241 19.1406 33.8681 18.3594 33.5235C17.6998 33.2166 17.1117 32.7751 16.6328 32.2272C16.173 31.6848 15.8313 31.0524 15.6295 30.3704C15.4056 29.6761 15.2915 28.9511 15.2911 28.2216C15.2855 27.5289 15.3678 26.8382 15.5361 26.1663C15.7247 25.4541 16.0539 24.787 16.5044 24.2044C16.9613 23.6272 17.5387 23.1569 18.196 22.8263C18.9174 22.4556 19.7185 22.2671 20.5293 22.2775C21.1276 22.2649 21.7235 22.3558 22.2909 22.5461C22.8732 22.7477 23.4203 23.0392 23.9125 23.4102C24.4458 23.8054 24.8776 24.3218 25.1725 24.9167C25.4859 25.5369 25.7135 26.197 25.8491 26.8786C26.0889 28.2172 25.9515 29.5961 25.4524 30.8609L25.1958 31.5032L26.1874 32.5892ZM36.897 31.6199V33.9556H27.8324V22.2775H30.0489V31.6199H36.897Z" fill="#007BEA"/>
</svg>
