<svg xmlns="http://www.w3.org/2000/svg" width="48" height="48" viewBox="0 0 48 48" fill="none">
  <g clip-path="url(#clip0_174_11956)">
    <path d="M36.3278 2.12999H6.20778C5.23571 2.13197 4.30402 2.519 3.61666 3.20637C2.9293 3.89373 2.54227 4.82542 2.54028 5.79749V39C2.54227 39.9721 2.9293 40.9038 3.61666 41.5911C4.30402 42.2785 5.23571 42.6655 6.20778 42.6675H26.0453C25.8203 32.7975 29.1953 13.6425 36.3278 2.11499V2.12999Z" fill="#0498C9"></path>
    <path d="M43.3553 1.04252C41.2928 -0.794984 38.7953 -0.0599844 36.3278 2.13002C29.1953 13.6575 25.7903 32.8125 26.0453 42.6825C26.1327 44.493 26.4709 46.2825 27.0503 48L27.3578 47.8275C26.6395 45.2502 26.3631 42.5697 26.5403 39.9C26.8626 34.234 27.9811 28.6416 29.8628 23.2875C33.2903 14.19 38.0828 6.88502 42.4628 3.39752C38.4728 7.00502 33.0728 18.66 31.4603 22.9725C29.7599 27.4186 28.4671 32.0099 27.5978 36.69C28.9328 32.6175 33.2378 30.8625 33.2378 30.8625C33.2378 30.8625 35.3528 28.26 37.8203 24.5325C36.2256 24.8646 34.6507 25.2853 33.1028 25.7925C31.9028 26.295 31.6028 26.4675 31.6028 26.4675C33.8949 25.0873 36.3164 23.9343 38.8328 23.025C43.3928 15.8025 48.3878 5.53502 43.3553 1.04252Z" fill="#004963"></path>
  </g>
  <defs>
    <clipPath id="clip0_174_11956">
      <rect width="48" height="48" fill="white"></rect>
    </clipPath>
  </defs>
</svg>