<svg xmlns="http://www.w3.org/2000/svg" width="48" height="48" viewBox="0 0 48 48" fill="none">
  <g clip-path="url(#clip0_174_11884)">
    <path d="M29.7517 22.3746L20.1535 25.5086L11.8035 29.1941L9.46744 29.8109C8.87221 30.3769 8.24846 30.9499 7.57395 31.5302C6.83373 32.1685 6.14462 32.7491 5.61683 33.1695C5.02577 33.634 4.15656 34.5046 3.7143 35.056C3.0537 35.8832 2.53217 36.7597 2.30687 37.4356C1.90773 38.6546 2.10522 39.8878 2.87256 41.0272C3.85929 42.4781 5.82544 43.9582 8.11773 44.9664C9.28595 45.4817 11.2521 46.1416 12.7319 46.5116C15.1914 47.1374 19.9505 47.8105 22.5693 47.912C23.0988 47.9339 23.8098 47.9339 23.839 47.912C23.8971 47.8773 24.3032 47.0995 24.775 46.1347C26.3854 42.848 27.5464 39.7647 28.1774 37.1296C28.5547 35.5338 28.8519 33.4094 29.0466 30.8904C29.0977 30.1867 29.1193 27.8308 29.0758 27.0311C29.0105 25.7256 28.8943 24.6669 28.7132 23.6287C28.684 23.4764 28.6767 23.3387 28.6913 23.3314C28.7201 23.3095 28.8074 23.2806 29.9899 22.9396L29.7507 22.3739L29.7517 22.3746ZM27.5613 23.6586C27.6482 23.6586 27.8801 25.8858 27.9382 27.2933C27.9528 27.5909 27.9455 27.7866 27.9313 27.7866C27.8732 27.7866 26.705 27.0975 25.8709 26.5753C25.1453 26.1181 23.767 25.204 23.5494 25.0298C23.4767 24.9791 23.484 24.9721 24.0789 24.7687C25.0872 24.4277 27.481 23.6586 27.561 23.6586H27.5613ZM22.6711 25.2694C22.7365 25.2694 22.903 25.3636 23.3022 25.6101C24.7972 26.5461 26.828 27.6778 27.6987 28.0554C27.9671 28.1712 27.9959 28.1277 27.3795 28.5484C26.0583 29.4482 24.412 30.3331 22.3951 31.2256C22.0397 31.3852 21.7425 31.5083 21.7345 31.5083C21.7199 31.5083 21.7633 31.3271 21.8214 31.1095C22.3081 29.3015 22.5832 27.4748 22.5978 26.0093C22.6051 25.2837 22.6051 25.2837 22.6704 25.2621C22.6558 25.2694 22.6631 25.2694 22.6704 25.2694H22.6711ZM21.6628 25.6539C21.706 25.6974 21.6771 27.3228 21.619 27.7651C21.4891 28.8345 21.2659 29.8905 20.9518 30.921C20.8719 31.1891 20.7992 31.414 20.7849 31.4286C20.7557 31.4634 19.7617 30.4927 19.4352 30.1154C18.8695 29.4625 18.4269 28.8095 18.1005 28.1712C17.9336 27.8447 17.6725 27.2064 17.6944 27.1845C17.8101 27.1048 21.6336 25.6247 21.6628 25.6546V25.6539ZM16.9166 27.5182C16.9206 27.5178 16.9246 27.5182 16.9284 27.5194C16.9321 27.5207 16.9356 27.5228 16.9385 27.5255C16.9837 27.6086 17.0201 27.6961 17.0473 27.7866C17.2792 28.4177 17.8015 29.3464 18.2514 29.9423C18.7447 30.5952 19.3907 31.2917 19.9272 31.7502C20.101 31.8952 20.261 32.0333 20.2825 32.0548C20.3263 32.0986 20.3409 32.0896 19.1581 32.5416C17.7872 33.0631 16.2925 33.5846 14.5805 34.1378C14.1712 34.2695 13.7625 34.4024 13.3546 34.5366C13.2892 34.5585 13.3111 34.5223 13.4995 34.2237C14.3482 32.8962 15.6395 30.2917 16.3652 28.449C16.4886 28.1298 16.612 27.8106 16.6336 27.738C16.6628 27.6364 16.6989 27.5989 16.7932 27.5492C16.8334 27.5359 16.8747 27.5262 16.9166 27.5203V27.5182ZM15.4657 28.1204C15.4873 28.135 15.118 28.9111 14.7547 29.6221C14.051 30.9933 13.2819 32.3427 12.2514 33.9824C12.0775 34.2654 11.9106 34.5265 11.8887 34.5554C11.854 34.6061 11.838 34.5901 11.7218 34.3669C11.4753 33.8802 11.2719 33.2568 11.1631 32.6838C11.0543 32.1178 11.0762 31.131 11.1996 30.5219C11.2938 30.072 11.2865 30.0793 11.5042 29.9705C12.4328 29.499 15.4365 28.093 15.4654 28.1204H15.4657ZM27.9803 28.6284V28.933C27.9803 30.5507 27.8064 32.7707 27.5519 34.3888C27.5085 34.6715 27.4723 34.9038 27.465 34.9104C27.465 34.9104 27.2564 34.8523 27.0081 34.7796C25.8519 34.4125 24.7341 33.934 23.6704 33.3506C22.9667 32.9661 21.9438 32.3347 21.973 32.3059C21.9799 32.2985 22.2859 32.139 22.6402 31.9502C24.0622 31.2103 25.4262 30.4124 26.6087 29.6207C27.0513 29.3234 27.7185 28.8446 27.8638 28.7139L27.9799 28.627L27.9803 28.6284ZM9.98967 30.7757C10.0185 30.7757 10.0112 30.8338 9.96776 31.0949C9.93891 31.2837 9.9024 31.6317 9.88814 31.8709C9.83008 32.9303 10.0043 33.7136 10.5265 34.7876C10.6715 35.0849 10.788 35.3318 10.7803 35.3387C10.7295 35.3825 5.92697 36.7899 4.41767 37.2033C3.96776 37.3268 3.57627 37.4356 3.54846 37.4425C3.49769 37.4572 3.49039 37.4502 3.51369 37.3268C3.68058 36.2604 4.49312 34.8672 5.62483 33.6921C6.37965 32.9084 6.9808 32.4515 8.01169 31.8636C8.75191 31.4429 9.88919 30.8118 9.97785 30.783C9.97785 30.7757 9.98515 30.7757 9.99245 30.7757H9.98967ZM21.3072 32.7996C21.3145 32.7926 21.4887 32.8868 21.699 33.0103C23.2514 33.9097 25.4133 34.7442 27.256 35.1722L27.4229 35.2069L27.1907 35.3373C26.2259 35.8745 23.0553 37.1946 19.8128 38.4063C19.341 38.5802 18.8768 38.754 18.7896 38.7909C18.7023 38.8277 18.6227 38.8489 18.6227 38.8416C18.6227 38.8343 18.7534 38.5805 18.9203 38.2683C19.8271 36.5709 20.7411 34.5032 21.2053 33.0669C21.2637 32.9279 21.2999 32.8058 21.3072 32.7982V32.7996ZM20.1535 33.1771C20.1608 33.1845 20.1028 33.3367 20.0305 33.5106C19.3991 35.0404 18.5719 36.7093 17.5129 38.5819C17.2445 39.0607 17.0195 39.4452 17.0122 39.4452C17.0049 39.4452 16.7873 39.3145 16.5254 39.1549C14.9873 38.212 13.6237 37.0511 12.7312 35.9266L12.6008 35.7671L13.2614 35.5856C15.6256 34.9399 17.636 34.2435 19.6313 33.3875C19.9143 33.2714 20.1466 33.1771 20.1535 33.1771ZM27.3214 35.6805C27.3287 35.8474 26.9588 37.3421 26.6539 38.423C26.4 39.3298 26.1824 40.0408 25.7846 41.2956C25.6108 41.8474 25.4585 42.3039 25.4509 42.3039C25.4188 42.2998 25.3873 42.2926 25.3566 42.2823C23.201 41.8901 21.2724 41.3464 19.4585 40.6207C18.9505 40.4177 18.2253 40.0912 18.1818 40.0547C18.1672 40.0401 18.6025 39.8371 19.1553 39.5978C22.4563 38.1539 25.8806 36.5146 27.0558 35.8109C27.1949 35.7236 27.3023 35.6801 27.3242 35.6801L27.3214 35.6805ZM10.7733 36.2465C10.7876 36.2611 9.86624 37.5886 8.57494 39.3951C8.12503 40.0262 7.60142 40.7661 7.40706 41.0418C7.21271 41.3175 6.9137 41.7528 6.74646 42.0153L6.44154 42.4871L6.11507 42.2114C5.73053 41.8922 5.06332 41.2101 4.7657 40.8328C4.14195 40.0568 3.72265 39.2369 3.55437 38.4898C3.4744 38.1421 3.4744 37.9682 3.54707 37.9456C3.65554 37.9164 5.59284 37.4589 7.40637 37.0385C8.41465 36.8066 9.58253 36.5309 10.0032 36.4294C10.4239 36.3279 10.7654 36.2479 10.7727 36.2479L10.7733 36.2465ZM11.7017 36.6022L11.9339 36.8633C12.9787 38.0312 14.0451 38.8948 15.3364 39.649C15.5686 39.7797 15.7428 39.8958 15.7282 39.9031C15.6774 39.9379 11.2448 41.5136 9.19173 42.2246C8.03811 42.6307 7.08754 42.9572 7.08059 42.9572C7.03001 42.9292 6.98145 42.8977 6.93525 42.863L6.80487 42.7684L7.01522 42.4638C7.69703 41.4771 8.55338 40.3961 10.4177 38.1473L11.7013 36.6015L11.7017 36.6022ZM17.4913 40.7445C17.4983 40.7372 17.8174 40.8533 18.2093 40.9987C19.1526 41.354 19.8997 41.5786 20.9007 41.8331C22.1343 42.146 23.919 42.4499 24.9707 42.5368C25.1306 42.5511 25.2176 42.5657 25.1884 42.5876C25.1376 42.6168 24.0713 42.9721 23.2876 43.2186C22.0397 43.6105 18.2312 44.7349 15.126 45.6274C14.553 45.7943 14.0597 45.932 14.0305 45.9403C13.9581 45.9549 13.7175 45.8896 13.7175 45.8603C13.7175 45.8461 13.8914 45.6211 14.1021 45.3736C15.1589 44.1106 16.1424 42.7881 17.0477 41.4124C17.2869 41.0494 17.4903 40.7518 17.4903 40.7449L17.4913 40.7445ZM16.2143 40.7793C16.2216 40.7866 15.7063 41.6137 14.8068 43.0354C14.4223 43.6376 13.9943 44.3198 13.842 44.559C13.6967 44.7912 13.479 45.1542 13.3553 45.3586L13.1466 45.7286L13.0378 45.6994C12.7764 45.6271 10.9409 44.9811 10.4549 44.7853C9.87837 44.556 9.31413 44.297 8.76443 44.0093C8.18414 43.6964 7.45887 43.2329 7.51693 43.2183C7.53119 43.211 8.52522 42.9426 9.7223 42.6161C12.8998 41.7528 14.6626 41.2521 15.8162 40.8895C16.0269 40.8241 16.208 40.7734 16.2153 40.7807L16.2143 40.7793ZM25.2464 42.8977H25.2537C25.2826 42.9704 24.1064 46.2355 23.6794 47.265C23.5852 47.4972 23.549 47.5553 23.4983 47.548C23.3748 47.5407 21.6698 47.3015 20.6323 47.1492C18.8261 46.8735 15.7936 46.3436 15.0318 46.1698L14.858 46.135L15.9389 45.8885C18.2604 45.367 19.3775 45.0833 20.5092 44.7349C21.9708 44.2877 23.3989 43.7374 24.7826 43.0883C25.0072 42.9864 25.196 42.9068 25.2468 42.8995L25.2464 42.8977ZM19.8563 0.000356855C19.6981 -0.0208519 17.121 0.907815 15.4598 1.58232C13.2179 2.49639 11.4771 3.36699 10.4031 4.12042C10.0043 4.40344 9.5036 4.90411 9.42398 5.09985C9.39412 5.17857 9.37926 5.26218 9.38018 5.34636L10.3537 6.26773L12.6682 7.00795L18.1731 7.99711L24.4704 9.07806L24.5354 8.53394C24.5139 8.53394 24.5006 8.52663 24.4777 8.52663L23.6506 8.39591L23.4837 8.09863C22.6277 6.58968 21.6844 4.71775 21.133 3.4553C20.7053 2.47587 20.2985 1.34451 20.0739 0.531967C19.9505 0.0386022 19.9348 0.0104397 19.8563 0.00209531V0.000356855ZM19.7401 0.370641H19.7474C19.7547 0.377595 19.7822 0.580991 19.8128 0.820198C19.941 1.85995 20.1768 2.88358 20.5165 3.87461C20.7849 4.67255 20.7849 4.62909 20.4731 4.53521C19.7328 4.33182 16.4177 3.75883 14.0162 3.42505C13.6317 3.37429 13.3052 3.32353 13.3052 3.31623C13.276 3.28737 15.0391 2.36461 15.8151 2.00337C16.8092 1.54616 19.5371 0.407148 19.7401 0.370989V0.370641ZM12.7465 3.6208L13.0295 3.71502C14.5673 4.23655 18.4342 4.97747 20.5673 5.15166C20.8065 5.17356 21.0095 5.19546 21.0168 5.19546C21.0241 5.20242 20.8211 5.31124 20.56 5.43467C19.5298 5.94959 18.3981 6.58203 17.6144 7.06705C17.3825 7.21204 17.1718 7.32816 17.1429 7.32816C17.1141 7.32816 16.9614 7.29931 16.8019 7.2774L16.5119 7.23394L15.7863 6.52293C14.5096 5.28239 13.5082 4.32451 13.1237 3.96188L12.7465 3.6208ZM12.4565 3.84575L13.4794 5.1228C14.0378 5.82651 14.6038 6.51562 14.7272 6.66791C14.8506 6.8202 14.9518 6.94362 14.9449 6.95093C14.9157 6.97283 13.4648 6.68982 12.6957 6.51562C11.9051 6.33413 11.5786 6.24721 11.0925 6.09493L10.693 5.9642V5.86267C10.7003 5.37591 11.3171 4.65099 12.3619 3.91112L12.4565 3.84575ZM21.1486 5.58696C21.1778 5.58696 21.214 5.65232 21.3009 5.84807C21.5474 6.3922 22.3168 7.85769 22.5053 8.1407C22.5633 8.23493 22.6649 8.24223 21.642 8.07534C19.1814 7.6762 18.3908 7.54512 18.3908 7.53121C18.4414 7.48782 18.4975 7.45123 18.5577 7.42239C19.342 6.98372 20.0829 6.47148 20.7703 5.89257C20.9372 5.7535 21.0895 5.62381 21.118 5.60226C21.1253 5.58765 21.1399 5.58035 21.1472 5.58765L21.1486 5.58696Z" fill="#909CA9"></path>
    <path d="M9.47615 4.99938C9.47615 4.99938 9.31656 5.25319 9.46919 5.63078C9.56341 5.86268 9.83913 6.1457 10.151 6.43567C10.151 6.43567 13.3793 9.5843 13.7711 10.0342C15.5558 12.0946 16.3321 14.1258 16.4045 16.9264C16.4483 18.7256 16.1072 20.3069 15.2571 22.1416C13.7478 25.4353 10.5634 29.07 5.65161 33.1035L6.36993 32.8642C6.83409 32.5166 7.46548 32.1459 8.94523 31.3344C12.3619 29.4625 16.207 27.7432 20.9226 25.9724C27.7129 23.4187 38.8781 20.4296 45.2335 19.4575L45.8941 19.356L45.7922 19.1964C45.2119 18.2966 44.8128 17.7382 44.334 17.1433C42.9412 15.4164 41.2511 14.0166 39.1834 12.8557C36.3393 11.2668 32.6612 10.0262 28.0036 9.10485C27.1257 8.931 25.196 8.59723 23.629 8.35767C20.3062 7.84275 18.1589 7.48846 15.7939 7.08097C14.9449 6.93564 13.6755 6.71799 12.8337 6.53685C12.3984 6.44228 11.5643 6.24653 10.9114 6.02158C10.3899 5.81853 9.63434 5.61513 9.47476 4.99869L9.47615 4.99938ZM11.3463 6.81499C11.3536 6.80769 11.4694 6.84976 11.6221 6.90191C11.8978 6.99614 12.2531 7.10496 12.6742 7.22109C12.9922 7.30871 13.3113 7.39331 13.6317 7.4749C14.067 7.58373 14.4314 7.68351 14.4369 7.68351C14.4877 7.73462 15.2206 10.0777 15.4671 10.9771C15.5613 11.3182 15.634 11.6085 15.6267 11.6085C15.6194 11.6158 15.5394 11.4924 15.4452 11.3255C14.5965 9.83047 13.2548 8.31491 11.7017 7.09592C11.5766 7.01098 11.4579 6.91709 11.3463 6.81499ZM14.9157 7.80138C15.0476 7.81407 15.1786 7.83591 15.3075 7.86674C16.5408 8.14245 18.7534 8.56211 20.1682 8.80271C20.4077 8.83748 20.5962 8.88268 20.5962 8.89693C20.5962 8.91119 20.5092 8.9623 20.4001 9.02036C20.1609 9.14344 19.196 9.71573 18.8769 9.93442C18.0716 10.4712 17.347 11.0515 16.8238 11.5738C16.6134 11.7845 16.4319 11.9583 16.4319 11.9583C16.4319 11.9583 16.3885 11.8352 16.352 11.6826C16.0909 10.6743 15.5467 9.17925 15.0534 8.12785C14.9986 8.0195 14.9502 7.90805 14.9084 7.79407C14.9084 7.80868 14.9084 7.80138 14.9157 7.80138ZM21.1983 8.99846C21.2418 9.01306 21.3145 9.25957 21.4595 9.80369C21.7313 10.8894 21.8483 12.0081 21.8071 13.1265C21.7925 13.4311 21.7779 13.7141 21.7633 13.7506L21.7418 13.8229L21.367 13.6992C20.5906 13.4526 19.3285 13.0827 18.2475 12.7778C17.6307 12.6109 17.1301 12.4586 17.1301 12.4444C17.1301 12.4006 18.0299 11.5011 18.4144 11.16C19.147 10.5144 21.1347 8.9762 21.2001 8.99811L21.1983 8.99846ZM21.699 9.07112C21.7206 9.04922 24.7023 9.56449 26.059 9.8256C27.0673 10.0213 28.5331 10.3263 28.62 10.3624C28.6635 10.377 28.5112 10.4639 28.0251 10.6816C26.1097 11.5449 24.6874 12.3213 23.2733 13.2642C22.9034 13.5111 22.5912 13.7141 22.5839 13.7141C22.5766 13.7141 22.5696 13.5038 22.5696 13.2499C22.5696 11.8714 22.2939 10.4785 21.7859 9.30337C21.7352 9.18551 21.6917 9.07668 21.699 9.06938V9.07112ZM29.4107 10.5947C29.4326 10.6162 29.338 11.2042 29.2511 11.5522C28.99 12.6332 28.2863 14.2367 27.4229 15.7456C27.2707 16.014 27.1326 16.2324 27.118 16.2386C27.1034 16.2449 26.9094 16.1371 26.6831 16.0067C25.8413 15.5134 24.8838 15.0489 23.839 14.6136C23.549 14.4905 23.2949 14.3886 23.2876 14.3744C23.2368 14.3309 25.5729 12.7854 26.8062 12.0449C27.7856 11.45 29.3818 10.5648 29.4107 10.594V10.5947ZM29.9621 10.6816C30.0275 10.6816 31.3476 11.0442 32.0367 11.2476C33.7404 11.7552 35.7006 12.4736 36.9773 13.0539L37.5069 13.2934L37.1369 13.3803C34.0175 14.0969 31.3476 14.924 28.7727 15.9685C28.5641 16.0558 28.3735 16.1284 28.3593 16.1284C28.345 16.1284 28.4173 15.9615 28.5116 15.7581C29.2879 14.1115 29.7882 12.3922 29.9117 10.9253C29.919 10.7863 29.9405 10.6788 29.9624 10.6788L29.9621 10.6816ZM16.8165 13.6992C16.838 13.6776 17.8467 13.9168 18.3908 14.0691C19.2176 14.3013 20.9734 14.8889 20.9734 14.9324C20.9734 14.9397 20.7776 15.1062 20.5454 15.31C19.5938 16.0982 18.6808 16.9326 17.5852 17.9927C17.2587 18.3056 16.9834 18.5587 16.9688 18.5587C16.9542 18.5587 16.9472 18.5149 16.9542 18.4569C17.121 17.2382 17.0849 15.6712 16.8526 14.0823C16.8311 13.8793 16.8092 13.7051 16.8165 13.6992ZM38.0079 13.7211C38.0221 13.7357 37.5434 14.4901 37.2388 14.9181C36.8042 15.5419 36.1648 16.3676 34.7212 18.1815C33.9594 19.139 33.1034 20.22 32.8204 20.5826C32.5301 20.9453 32.2909 21.2502 32.2836 21.2502C32.2091 21.1583 32.1412 21.0613 32.0805 20.9599C31.265 19.741 30.275 18.6484 29.1422 17.717C28.9246 17.5355 28.6854 17.3398 28.6054 17.2817C28.5524 17.2464 28.5037 17.205 28.4604 17.1583C28.4604 17.1367 29.6937 16.6068 30.6296 16.23C32.269 15.5624 34.5036 14.7645 36.1794 14.2482C37.0573 13.9724 37.9933 13.704 38.0079 13.7186V13.7211ZM38.5662 13.866C38.5951 13.8587 38.7693 13.946 38.9796 14.0691C40.7428 15.0774 42.4694 16.3763 43.8333 17.7111C44.2179 18.0883 45.1681 19.0751 45.1545 19.0824C45.1545 19.0824 44.8208 19.1112 44.4293 19.1404C41.3748 19.3727 37.4648 20.018 33.7067 20.9251C33.4528 20.9828 33.2279 21.0339 33.2133 21.0339C33.1987 21.0339 33.4817 20.7509 33.8374 20.4098C36.0428 18.2844 37.0514 16.942 38.2408 14.5479C38.4077 14.1925 38.5537 13.8873 38.5673 13.866H38.5662ZM22.41 15.5189C22.5119 15.5405 23.4531 15.9831 24.1658 16.3388C24.8188 16.6649 25.8 17.1875 25.849 17.2309C25.8563 17.2382 25.5079 17.4194 25.0802 17.6301C23.7156 18.3119 22.5491 18.9575 21.3287 19.6974C20.981 19.9081 20.6904 20.0823 20.6834 20.0823C20.6542 20.0823 20.6615 20.0531 20.8573 19.6974C21.5102 18.508 22.0324 17.086 22.3301 15.699C22.3589 15.5902 22.3881 15.5179 22.4097 15.5179L22.41 15.5189ZM21.4671 15.6928C21.489 15.7147 21.2422 16.6068 21.0899 17.0933C20.7512 18.1116 20.3215 19.0973 19.8059 20.0385C19.6897 20.2415 19.5155 20.5392 19.4213 20.706L19.2398 20.996L18.8337 20.6045C18.3619 20.1473 17.9774 19.8643 17.4844 19.6105C17.2883 19.509 17.1367 19.4217 17.1367 19.4074C17.1367 19.3494 18.3772 18.2253 19.3271 17.4124C20.0093 16.8248 21.4455 15.6712 21.4675 15.6928H21.4671ZM27.2349 18.0654L27.5905 18.2973C28.4591 18.8664 29.2948 19.4841 30.0939 20.1473C30.5073 20.4884 31.3052 21.2067 31.4648 21.3806L31.5517 21.4751L30.9631 21.642C27.6402 22.563 25.0719 23.3829 22.0759 24.4857C21.7421 24.6092 21.4591 24.7107 21.4372 24.7107C21.3937 24.7107 21.3576 24.7455 22.1048 24.0577C24.0202 22.295 25.7176 20.3504 26.98 18.4569L27.2342 18.0654H27.2349ZM25.7186 18.4426C25.7329 18.4569 24.7392 19.857 24.1439 20.648C23.4329 21.5916 22.1705 23.1725 21.2999 24.2027C20.9372 24.6307 20.6254 24.9864 20.6108 24.9937C20.5889 25.0007 20.5816 24.8918 20.5816 24.7253C20.5816 23.847 20.3569 22.9114 19.9651 22.1135C19.7982 21.7797 19.769 21.6997 19.8055 21.6636C19.9446 21.5401 22.0543 20.3358 23.3891 19.6178C24.2889 19.139 25.696 18.428 25.7186 18.4426ZM16.5481 20.6914C16.5696 20.6914 16.7365 20.7784 16.9253 20.8802C17.3668 21.1208 17.7846 21.4025 18.1731 21.7216C18.1874 21.7362 17.9993 21.8885 17.7524 22.0693C17.063 22.5623 16.0185 23.3533 15.409 23.8394C14.7707 24.3474 14.7484 24.3609 14.8215 24.2528C15.3002 23.5202 15.5394 23.1054 15.795 22.5769C16.0286 22.0843 16.232 21.578 16.4041 21.0607C16.4622 20.8521 16.5348 20.6908 16.5494 20.6908L16.5481 20.6914ZM18.993 22.6068C19.0277 22.5995 19.0726 22.6649 19.2683 22.9545C19.6821 23.5713 20.0013 24.3985 20.0812 25.0657L20.0955 25.211L19.1018 25.5955C17.3241 26.2847 15.6848 26.9665 14.5746 27.473C14.2617 27.618 13.7186 27.8791 13.3633 28.0533C13.0076 28.2348 12.7176 28.3725 12.7176 28.3662C12.7176 28.36 12.9422 28.1924 13.2179 27.9887C15.3875 26.4147 17.2664 24.6877 18.6738 22.9611C18.8261 22.78 18.9638 22.6134 18.9784 22.6058L18.993 22.6068ZM17.8686 22.8826C17.8974 22.9114 17.0689 23.8474 16.5046 24.4204C15.1045 25.8497 13.7179 26.9668 11.9993 28.0551C11.7816 28.1941 11.5859 28.3162 11.564 28.3308C11.5132 28.36 11.5786 28.2873 12.3331 27.4675C12.8118 26.9526 13.1745 26.5173 13.5882 25.9804C13.8636 25.6247 13.9147 25.574 14.3135 25.291C15.3802 24.5219 17.8394 22.8534 17.8686 22.8826Z" fill="#A91D22"></path>
    <path d="M25.7102 47.9983H25.866V46.7525H26.2777V46.5971H25.2986V46.7525H25.7102V47.9983ZM26.6539 47.0623C26.6566 46.9701 26.6536 46.8778 26.6448 46.7859C26.6546 46.8352 26.6691 46.8834 26.6883 46.9298L27.1663 47.9983H27.2428L27.7223 46.9205C27.7352 46.8857 27.7452 46.844 27.7668 46.7869C27.7567 46.8979 27.7567 46.9869 27.7567 47.0547V47.9979H27.9226V46.5971H27.7223L27.2887 47.5637C27.2786 47.5984 27.2439 47.6659 27.2223 47.7424H27.2098C27.1934 47.6854 27.172 47.6301 27.1458 47.5769L26.7126 46.5975H26.488V48H26.6448V47.064H26.6539V47.0623Z" fill="#231F1F"></path>
  </g>
  <defs>
    <clipPath id="clip0_174_11884">
      <rect width="48" height="48" fill="white"></rect>
    </clipPath>
  </defs>
</svg>