<svg width="16" height="17" viewBox="0 0 16 17" fill="none" xmlns="http://www.w3.org/2000/svg">
<path d="M14.1344 4.7112L13.9984 4.5752L12.3088 2.884L10.7296 1.3048C10.7282 1.30322 10.7265 1.30198 10.7246 1.30115C10.7226 1.30032 10.7205 1.29993 10.7184 1.3H2.18244C2.00644 1.3 1.86084 1.444 1.86084 1.6216V15.3784C1.86084 15.5544 2.00484 15.7 2.18244 15.7H13.8176C13.9936 15.7 14.1392 15.556 14.1392 15.3784V4.724C14.1392 4.7208 14.1376 4.7144 14.1344 4.7112ZM5.66404 6.4088H6.40644C6.41284 6.4088 6.41924 6.41199 6.42084 6.4184L7.87684 9.9032C7.92484 10.0184 7.96164 10.1528 7.98564 10.3048H8.00324C8.02244 10.172 8.06244 10.036 8.12484 9.8984L9.60644 6.4184C9.60964 6.41199 9.61444 6.4088 9.62084 6.4088H10.3344C10.3456 6.4088 10.3536 6.42 10.3488 6.4312L8.37284 10.8696C8.36964 10.876 8.36484 10.8792 8.35844 10.8792H7.60324C7.59684 10.8792 7.59044 10.876 7.58884 10.8696L5.64804 6.4312C5.64324 6.4216 5.65124 6.4088 5.66404 6.4088ZM10.688 12.9816C10.688 12.9858 10.6864 12.9899 10.6834 12.9929C10.6804 12.9959 10.6763 12.9976 10.672 12.9976H5.32804C5.3238 12.9976 5.31973 12.9959 5.31673 12.9929C5.31373 12.9899 5.31204 12.9858 5.31204 12.9816V12.0536C5.31204 12.0456 5.31844 12.0376 5.32804 12.0376H10.672C10.68 12.0376 10.688 12.044 10.688 12.0536V12.9816ZM12.9104 4.884H10.5744C10.5702 4.884 10.5661 4.88231 10.5631 4.87931C10.5601 4.87631 10.5584 4.87224 10.5584 4.868V2.5288C10.5584 2.5144 10.576 2.508 10.5856 2.5176L11.6528 3.5848L12.9232 4.8568C12.9328 4.8664 12.9248 4.884 12.9104 4.884Z" fill="#4ABC99"/>
</svg>
