<svg width="16" height="17" viewBox="0 0 16 17" fill="none" xmlns="http://www.w3.org/2000/svg">
<g clip-path="url(#clip0_267_995)">
<path fill-rule="evenodd" clip-rule="evenodd" d="M0 10.2273H5.09091V6.59091H0V10.2273ZM10.9091 7.61949C11.2603 7.54126 11.6253 7.5 12 7.5C13.6351 7.5 15.0876 8.28594 16 9.50045V6.59091H10.9091V7.61949ZM10.1818 7.84118V6.59091H5.81818V10.2273H7.54566C8.10018 9.14321 9.03886 8.28788 10.1818 7.84118ZM7.24366 10.9545H5.81818V15.3182H7.86995C7.32109 14.5156 7 13.5451 7 12.5C7 11.9607 7.08549 11.4413 7.24366 10.9545ZM16 2.40909V5.86364H0V2.40909C0.000270694 2.16807 0.0961366 1.93699 0.266566 1.76657C0.436995 1.59614 0.668068 1.50027 0.909091 1.5H15.0909C15.3319 1.50027 15.563 1.59614 15.7334 1.76657C15.9039 1.93699 15.9997 2.16807 16 2.40909ZM0 10.9545H5.09091V15.3182H0.909091C0.668068 15.3179 0.436995 15.222 0.266566 15.0516C0.0961366 14.8812 0.00027069 14.6501 0 14.4091V10.9545Z" fill="#00C8DC"/>
<path d="M12 8.5C9.792 8.5 8 10.292 8 12.5C8 14.708 9.792 16.5 12 16.5C14.208 16.5 16 14.708 16 12.5C16 10.292 14.208 8.5 12 8.5ZM11.996 15.124C11.732 15.124 11.516 14.908 11.516 14.644C11.516 14.38 11.732 14.164 11.996 14.164C12.26 14.164 12.476 14.38 12.476 14.644C12.476 14.912 12.264 15.124 11.996 15.124ZM12.484 13.224C12.484 13.488 12.268 13.704 12.004 13.704C11.74 13.704 11.524 13.488 11.524 13.224V10.344C11.524 10.08 11.74 9.864 12.004 9.864C12.268 9.864 12.484 10.08 12.484 10.344V13.224Z" fill="#F59700"/>
</g>
<defs>
<clipPath id="clip0_267_995">
<rect width="16" height="16" fill="white" transform="translate(0 0.5)"/>
</clipPath>
</defs>
</svg>
