<svg width="16" height="16" viewBox="0 0 16 16" fill="none" xmlns="http://www.w3.org/2000/svg">
<path fill-rule="evenodd" clip-rule="evenodd" d="M0 9.72727H5.09091V6.09091H0V9.72727ZM10.9091 8.69474C11.2838 8.52855 11.7078 8.44072 12.1738 8.4327L12.1774 8.43264C12.8686 8.42322 13.5529 8.57162 14.1781 8.86653C14.4867 9.01211 14.7769 9.19151 15.0437 9.40074L16 8.56876V6.09091H10.9091V8.69474ZM10.1818 9.17327V6.09091H5.81818V9.72727H9.72991C9.85029 9.53161 9.99938 9.34327 10.1818 9.17327ZM9.40841 10.4545H5.81818V14.8182H7V11.0491L9.26011 11.4238C9.26718 11.1212 9.30931 10.7881 9.40841 10.4545ZM16 1.90909V5.36364H0V1.90909C0.000270694 1.66807 0.0961366 1.43699 0.266566 1.26657C0.436995 1.09614 0.668068 1.00027 0.909091 1H15.0909C15.3319 1.00027 15.563 1.09614 15.7334 1.26657C15.9039 1.43699 15.9997 1.66807 16 1.90909ZM0 10.4545H5.09091V14.8182H0.909091C0.668068 14.8179 0.436995 14.722 0.266566 14.5516C0.0961366 14.3812 0.00027069 14.1501 0 13.9091V10.4545Z" fill="#00C8DC"/>
<path d="M13.7055 13.4704C13.7055 13.4704 13.003 15.9062 11.1841 14.8296C11.1841 14.8296 10.599 14.547 10.3483 13.6654L11.4328 12.7977L8 12.2286V15.5321L8.99502 14.6644C9.33111 15.0869 9.75942 15.4269 10.2472 15.6583C10.7349 15.8898 11.2691 16.0066 11.809 15.9997C13.6597 15.9619 13.8388 14.2823 13.7055 13.4704ZM10.2925 11.9559C10.2925 11.9559 10.997 9.51812 12.8239 10.5967C12.8239 10.5967 13.409 10.8773 13.6597 11.7609L12.5771 12.6266L16 13.1977V9.89424L15.005 10.7599C14.6678 10.3392 14.2391 10.001 13.7514 9.77096C13.2638 9.54094 12.7301 9.4252 12.191 9.43255C10.3403 9.46439 10.1612 11.144 10.2925 11.9559Z" fill="#FE4409"/>
</svg>
