<svg xmlns="http://www.w3.org/2000/svg" width="16" height="16" viewBox="0 0 16 16" fill="none">
  <g clip-path="url(#clip0_85_25882)">
    <path d="M5.09091 9.72727H0V6.09091H5.09091V9.72727ZM10.9091 10.4545V14.8182H15.0909C15.3319 14.8179 15.563 14.722 15.7334 14.5516C15.9039 14.3812 15.9997 14.1501 16 13.9091V10.4545H10.9091ZM10.9091 9.72727H16V6.09091H10.9091V9.72727ZM16 5.36364V1.90909C15.9997 1.66807 15.9039 1.43699 15.7334 1.26657C15.563 1.09614 15.3319 1.00027 15.0909 1H0.909091C0.668068 1.00027 0.436995 1.09614 0.266566 1.26657C0.0961366 1.43699 0.000270694 1.66807 0 1.90909V5.36364H16ZM5.09091 10.4545H0V13.9091C0.00027069 14.1501 0.0961366 14.3812 0.266566 14.5516C0.436995 14.722 0.668068 14.8179 0.909091 14.8182H5.09091V10.4545ZM5.81818 14.8182H10.1818V10.4545H5.81818V14.8182ZM5.81818 9.72727H10.1818V6.09091H5.81818V9.72727Z" fill="#00C8DC"></path>
  </g>
  <defs>
    <clipPath id="clip0_85_25882">
      <rect width="16" height="16" fill="white"></rect>
    </clipPath>
  </defs>
</svg>