<svg width="16" height="16" viewBox="0 0 16 16" fill="none" xmlns="http://www.w3.org/2000/svg">
<path d="M5.72825 3.45106H14.3335C14.7016 3.45106 15 3.15989 15 2.80073C15 2.44156 14.7016 2.15039 14.3335 2.15039H5.72825C5.36013 2.15039 5.06171 2.44156 5.06171 2.80073C5.06171 3.15989 5.36013 3.45106 5.72825 3.45106ZM5.72807 8.63785H14.3017C14.6698 8.63785 14.9682 8.34668 14.9682 7.98751C14.9682 7.62834 14.6698 7.33717 14.3017 7.33717H5.72807C5.35995 7.33717 5.06152 7.62834 5.06152 7.98751C5.06152 8.34668 5.35995 8.63785 5.72807 8.63785ZM14.3335 12.5528H5.72825C5.36013 12.5528 5.06171 12.8439 5.06171 13.2031C5.06171 13.5623 5.36013 13.8534 5.72825 13.8534H14.3335C14.7016 13.8534 15 13.5623 15 13.2031C15 12.8439 14.7016 12.5528 14.3335 12.5528Z" fill="white"/>
<path d="M1 2.80067C1 3.14564 1.14045 3.47647 1.39045 3.72039C1.64045 3.96431 1.97953 4.10135 2.33309 4.10135C2.68664 4.10135 3.02572 3.96431 3.27572 3.72039C3.52572 3.47647 3.66617 3.14564 3.66617 2.80067C3.66617 2.45571 3.52572 2.12488 3.27572 1.88096C3.02572 1.63703 2.68664 1.5 2.33309 1.5C1.97953 1.5 1.64045 1.63703 1.39045 1.88096C1.14045 2.12488 1 2.45571 1 2.80067Z" fill="white"/>
<path d="M1 7.97964C1 8.3246 1.14045 8.65543 1.39045 8.89935C1.64045 9.14328 1.97953 9.2803 2.33309 9.2803C2.68664 9.2803 3.02572 9.14328 3.27572 8.89935C3.52572 8.65543 3.66617 8.3246 3.66617 7.97964C3.66617 7.63468 3.52572 7.30385 3.27572 7.05992C3.02572 6.816 2.68664 6.67896 2.33309 6.67896C1.97953 6.67896 1.64045 6.816 1.39045 7.05992C1.14045 7.30385 1 7.63468 1 7.97964Z" fill="white"/>
<path d="M1 13.1993C1 13.5443 1.14045 13.8751 1.39045 14.119C1.64045 14.363 1.97953 14.5 2.33309 14.5C2.68664 14.5 3.02572 14.363 3.27572 14.119C3.52572 13.8751 3.66617 13.5443 3.66617 13.1993C3.66617 12.8544 3.52572 12.5235 3.27572 12.2796C3.02572 12.0357 2.68664 11.8987 2.33309 11.8987C1.97953 11.8987 1.64045 12.0357 1.39045 12.2796C1.14045 12.5235 1 12.8544 1 13.1993Z" fill="white"/>
</svg>
