<svg width="16" height="16" viewBox="0 0 16 16" fill="none" xmlns="http://www.w3.org/2000/svg">
<path d="M12.8464 10.1446C12.8156 10.0812 12.7677 10.0277 12.7081 9.99004C12.6486 9.95235 12.5797 9.93198 12.5093 9.93118H0.182788C0.0430176 9.93118 -0.030602 10.0304 0.012076 10.1446L2.14598 15.7866C2.17665 15.8501 2.22449 15.9037 2.28408 15.9415C2.34366 15.9792 2.41262 15.9995 2.48313 16H14.7264C14.8662 16 14.9398 15.9008 14.8971 15.7866L12.8464 10.1446ZM14.0734 6.63003H11.2513C11.0431 6.61746 10.8383 6.68783 10.6817 6.82578C10.5252 6.96373 10.4296 7.15803 10.4159 7.36623V8.31688H4.24681C4.04175 8.61217 3.85983 8.92287 3.70266 9.2462C3.70266 8.92611 3.7144 8.61243 3.73894 8.31688H2.37004C2.33396 8.31457 2.29778 8.31938 2.26356 8.33105C2.22934 8.34272 2.19775 8.36102 2.1706 8.3849C2.14346 8.40877 2.12128 8.43777 2.10534 8.47022C2.08939 8.50267 2.08 8.53794 2.07769 8.57402V9.66231H12.7024C12.7776 9.66344 12.8509 9.68551 12.9143 9.72603C12.9776 9.76655 13.0284 9.82392 13.0609 9.8917L14.9142 14.9939V7.36516C14.9085 7.26114 14.8823 7.15927 14.8371 7.0654C14.7919 6.97152 14.7287 6.88748 14.651 6.8181C14.5733 6.74871 14.4826 6.69535 14.3842 6.66106C14.2859 6.62678 14.1817 6.61224 14.0777 6.6183L14.0734 6.63003ZM12.2265 4.50787L12.234 6.31102L14.9377 3.11977L12.2265 0L12.2329 1.70712C12.2329 1.70712 4.3375 1.22059 3.73253 8.31048H4.2404C5.08356 6.99402 6.27858 5.94003 7.69007 5.26794C9.10155 4.59586 10.6731 4.33256 12.2265 4.50787Z" fill="#098EFE"/>
</svg>
