<svg width="16" height="16" viewBox="0 0 16 16" fill="none" xmlns="http://www.w3.org/2000/svg">
<g clip-path="url(#clip0_17_13502)">
<path d="M12.1997 9.97463C12.2408 10.0332 12.283 10.0878 12.3252 10.1318C13.1158 10.9048 13.4454 11.4255 13.5873 11.6496C13.5873 11.6496 13.8336 12.1363 13.8688 12.2102C14.0131 12.5164 14.0131 12.8342 14.0131 12.8342C14.026 12.8941 14.0107 12.9445 13.9755 12.9926C13.7492 14.135 10.7124 15.0441 7.0001 15.0441C3.14113 15.0441 -1.93322e-08 14.0623 0 12.8565C0 12.7715 0.0199466 12.6865 0.0504474 12.602C0.13494 12.1592 0.455149 11.3599 1.71251 10.1271C1.88493 9.95003 2.57934 8.9237 3.08133 5.36146C3.4297 2.89185 5.419 2.16345 6.82649 2.10131C7.74958 0.831043 9.24156 1.91738e-08 10.9282 0C13.7246 0 16 2.27551 16 5.07176C16 7.42815 14.3814 9.40807 12.1997 9.97463Z" fill="#098EFE"/>
<path d="M8.46399 11.3428C8.61179 11.5989 8.70326 11.8918 8.70326 12.2087C8.70326 13.0618 8.08745 13.7679 7.27817 13.9162C7.17475 13.9377 7.06941 13.9486 6.96379 13.9485C6.85819 13.9485 6.75287 13.9376 6.64946 13.9162C5.83898 13.7676 5.22437 13.0615 5.22437 12.2087C5.22437 11.8941 5.31469 11.6032 5.46129 11.3487C2.67676 11.5967 1.21528 12.4665 1.08154 12.799C1.26687 13.2236 3.27845 14.2734 7.00019 14.2734C10.7782 14.2734 12.8027 13.1896 12.9341 12.7768C12.8437 12.4932 11.3482 11.5859 8.46399 11.3428Z" fill="#00C8DC"/>
<path d="M11.7373 10.7323C11.5871 10.5781 11.4451 10.3716 11.3103 10.123C11.1836 10.1324 11.057 10.1424 10.9279 10.1424C8.13164 10.1424 5.85728 7.86806 5.85728 5.07176C5.85728 4.33574 6.01797 3.6367 6.30185 3.00446C5.41394 3.16925 4.16242 3.71525 3.91373 5.47994V5.47874C3.37769 9.27147 2.61649 10.4028 2.31389 10.7136C2.21413 10.7898 1.86583 11.1704 1.68164 11.3534C2.95779 10.8335 4.84506 10.4758 6.95399 10.4705C6.95753 10.4705 6.95987 10.4696 6.96336 10.4696C6.96576 10.4696 6.9681 10.4702 6.96925 10.4702C6.97982 10.4702 6.98919 10.4696 6.99975 10.4696C9.15792 10.4696 11.0909 10.8397 12.3753 11.3763C12.1865 11.1915 11.8627 10.8719 11.7373 10.7323Z" fill="#098EFE"/>
<path d="M15.0991 5.07174C15.0991 2.7716 13.2282 0.900787 10.9281 0.900787C8.62917 0.900787 6.7583 2.7716 6.7583 5.07174C6.7583 7.37068 8.62917 9.24154 10.9281 9.24154C13.2282 9.24154 15.0991 7.37068 15.0991 5.07174Z" fill="white"/>
<path d="M11.3831 4.38209C11.5697 4.53691 11.6916 4.7668 11.6916 5.02833C11.6916 5.49285 11.3151 5.8682 10.8506 5.8682C10.5855 5.8682 10.3533 5.74389 10.1985 5.55267H8.5505C8.30187 5.55267 8.1001 5.35094 8.1001 5.10227C8.1001 4.8536 8.30189 4.65187 8.5505 4.65187H10.1023C10.1856 4.48881 10.3181 4.35627 10.4823 4.27532V1.71832C10.4823 1.46968 10.6841 1.26791 10.9327 1.26791C11.1814 1.26791 11.3831 1.4697 11.3831 1.71832V4.38209Z" fill="#098EFE"/>
<path d="M6.9636 13.0471C7.42692 13.0471 7.80227 12.6709 7.80227 12.2088C7.80227 11.7467 7.42692 11.3704 6.9636 11.3704C6.50148 11.3704 6.125 11.7467 6.125 12.2088C6.125 12.6709 6.50148 13.0471 6.9636 13.0471Z" fill="white"/>
</g>
<defs>
<clipPath id="clip0_17_13502">
<rect width="16" height="16" fill="white"/>
</clipPath>
</defs>
</svg>
