<svg width="16" height="16" viewBox="0 0 16 16" fill="none" xmlns="http://www.w3.org/2000/svg">
<g clip-path="url(#clip0_17_13601)">
<path d="M0 6.9274H16V14.0622C16 14.7168 15.4694 15.2474 14.815 15.2474H1.18504C0.530562 15.2474 0 14.7167 0 14.0622V6.9274Z" fill="#098EFE"/>
<path d="M12.2068 0C12.4279 0 12.6281 0.0898798 12.773 0.235147C12.9179 0.380356 13.0075 0.580873 13.0075 0.80207V9.98074C13.0075 10.202 12.9178 10.4023 12.773 10.5474C12.6278 10.6929 12.4274 10.7828 12.2068 10.7828H3.79337C3.57227 10.7828 3.37207 10.6929 3.22713 10.5477C3.08228 10.4025 2.99268 10.2019 2.99268 9.98074V0.80207C2.99268 0.580814 3.0824 0.380474 3.22717 0.235383C3.37234 0.08986 3.5728 0 3.79337 0H12.2068Z" fill="#00C8DC"/>
<path d="M9.93593 7.2298H5.84713C5.7134 7.2298 5.60498 7.33821 5.60498 7.47193C5.60498 7.5954 5.69736 7.69726 5.81675 7.71221L5.84713 7.71408H9.93593C10.0697 7.71408 10.1781 7.60567 10.1781 7.47193C10.1781 7.34849 10.0857 7.24662 9.96629 7.23169L9.93593 7.2298ZM9.93593 5.29259H5.84713C5.7134 5.29259 5.60498 5.401 5.60498 5.53474C5.60498 5.65818 5.69736 5.76007 5.81675 5.77498L5.84713 5.77689H9.93593C10.0697 5.77689 10.1781 5.66847 10.1781 5.53474C10.1781 5.41129 10.0857 5.30941 9.96629 5.29447L9.93593 5.29259ZM9.93593 3.11322H5.84713C5.7134 3.11322 5.60498 3.22163 5.60498 3.35537C5.60498 3.47882 5.69736 3.5807 5.81675 3.59563L5.84713 3.59752H9.93593C10.0697 3.59752 10.1781 3.48911 10.1781 3.35537C10.1781 3.23192 10.0857 3.13006 9.96629 3.11513L9.93593 3.11322Z" fill="white"/>
</g>
<defs>
<clipPath id="clip0_17_13601">
<rect width="16" height="16" fill="white"/>
</clipPath>
</defs>
</svg>
