<svg width="16" height="16" viewBox="0 0 16 16" fill="none" xmlns="http://www.w3.org/2000/svg">
<g clip-path="url(#clip0_6_13439)">
<path d="M7.39053 7.75455C7.5389 7.75651 7.68479 7.79052 7.81831 7.85389C7.18426 7.22432 6.64461 6.48959 6.46739 5.76796C5.88534 4.86441 6.29133 2.78387 6.56707 1.85654H1.42047C1.30279 1.85628 1.18942 1.90082 1.10339 1.98112C1.01736 2.06141 0.965115 2.17144 0.957269 2.28886V11.2851C0.957269 11.408 1.00607 11.5258 1.09294 11.6126C1.1798 11.6995 1.29762 11.7483 1.42047 11.7483H12.2078C12.3306 11.7483 12.4484 11.6995 12.5353 11.6126C12.6222 11.5258 12.671 11.408 12.671 11.2851L12.7327 11.2851V9.96759C12.7436 9.84511 12.7436 9.42938 12.7436 9.42938C11.7384 9.77288 10.3001 9.4816 9.70651 9.29302C9.30836 9.0738 8.82497 8.74295 8.35234 8.34283C8.39581 8.45684 8.41889 8.57827 8.41986 8.70153C8.41986 8.97453 8.31141 9.23634 8.11837 9.42938C7.92534 9.62241 7.66352 9.73086 7.39053 9.73086C7.11754 9.73086 6.85572 9.62241 6.66269 9.42938C6.46965 9.23634 6.36121 8.97453 6.36121 8.70153C6.3644 8.44998 6.45961 8.20831 6.62884 8.02217L5.21866 5.96352C5.15386 5.97357 5.08789 5.97357 5.02309 5.96352C4.89775 5.96936 4.77319 5.94089 4.66284 5.88118L2.98503 7.5281C3.02607 7.62586 3.04707 7.73086 3.0468 7.83689C3.0468 8.06074 2.95788 8.27543 2.79959 8.43372C2.6413 8.59201 2.42661 8.68093 2.20276 8.68093C1.99629 8.65802 1.80553 8.55977 1.66698 8.40499C1.52842 8.25021 1.45182 8.04977 1.45182 7.84204C1.45182 7.63431 1.52842 7.43387 1.66698 7.27909C1.80553 7.12431 1.99629 7.02606 2.20276 7.00315C2.38747 7.01271 2.56425 7.08125 2.70713 7.19871L4.33344 5.62385C4.23834 5.49211 4.18785 5.33342 4.18935 5.17095C4.18935 4.94709 4.27828 4.73241 4.43657 4.57412C4.59485 4.41583 4.80954 4.3269 5.0334 4.3269C5.25725 4.3269 5.47194 4.41583 5.63022 4.57412C5.78851 4.73241 5.87744 4.94709 5.87744 5.17095C5.8773 5.28272 5.85442 5.39329 5.81017 5.49592C5.76593 5.59856 5.70125 5.69112 5.62009 5.76796L7.03027 7.82661C7.14381 7.77706 7.26667 7.75248 7.39053 7.75455Z" fill="#098EFE"/>
<path d="M12.7436 9.42938C12.7436 9.42938 12.7436 9.84511 12.7327 9.96759L13.6488 9.74114L12.7436 9.42938Z" fill="#098EFE"/>
<path d="M5.02309 5.51064C4.92208 5.51064 4.82521 5.47051 4.75379 5.39909C4.68236 5.32766 4.64223 5.23079 4.64223 5.12978C4.64223 5.02877 4.68236 4.93189 4.75379 4.86047C4.82521 4.78904 4.92208 4.74892 5.02309 4.74892C5.1241 4.74892 5.22098 4.78904 5.2924 4.86047C5.36383 4.93189 5.40396 5.02877 5.40396 5.12978C5.40396 5.23079 5.36383 5.32766 5.2924 5.39909C5.22098 5.47051 5.1241 5.51064 5.02309 5.51064Z" fill="#098EFE"/>
<path d="M2.20276 8.25892C2.10257 8.25632 2.0072 8.21536 1.93634 8.14449C1.86547 8.07363 1.8245 7.97826 1.8219 7.87808C1.82052 7.8272 1.82936 7.77657 1.84788 7.72916C1.8664 7.68176 1.89424 7.63855 1.92974 7.60209C1.96525 7.56562 2.0077 7.53665 2.05459 7.51687C2.10148 7.49709 2.15187 7.48691 2.20276 7.48693C2.25873 7.47775 2.31604 7.48085 2.37069 7.49602C2.42535 7.51119 2.47605 7.53807 2.51928 7.57479C2.56252 7.61151 2.59725 7.65719 2.62107 7.70867C2.64488 7.76015 2.65722 7.81619 2.65722 7.87292C2.65722 7.92964 2.64488 7.98568 2.62107 8.03716C2.59725 8.08864 2.56252 8.13433 2.51928 8.17104C2.47605 8.20776 2.42535 8.23464 2.37069 8.24981C2.31604 8.26498 2.25873 8.2681 2.20276 8.25892Z" fill="#098EFE"/>
<path fill-rule="evenodd" clip-rule="evenodd" d="M14.3385 7.33252L15.9133 9.6279L15.8825 9.66907C15.9819 9.81244 16.0205 9.98943 15.9896 10.1612C15.9587 10.3329 15.861 10.4854 15.7178 10.5852C15.5707 10.6815 15.392 10.7172 15.2193 10.6845C15.0465 10.6519 14.8931 10.5535 14.7914 10.4102L13.2062 8.10451C12.6547 8.36079 12.0542 8.49424 11.4461 8.49565C10.8878 8.49566 10.335 8.3857 9.81924 8.17206C9.30347 7.95842 8.83483 7.64529 8.44008 7.25054C8.04532 6.85579 7.73219 6.38715 7.51855 5.87138C7.30491 5.35561 7.19495 4.80281 7.19495 4.24455C7.19433 3.54133 7.36859 2.849 7.70205 2.22987C8.03551 1.61074 8.51769 1.08425 9.1052 0.697791C9.69271 0.311335 10.3671 0.0770431 11.0677 0.0160058C11.7682 -0.0450314 12.473 0.069102 13.1185 0.348132C13.764 0.627162 14.3299 1.06233 14.7654 1.61446C15.2009 2.1666 15.4923 2.81836 15.6133 3.51109C15.7343 4.20382 15.6811 4.91577 15.4586 5.58284C15.2361 6.24992 14.8511 6.85119 14.3385 7.33252ZM9.53719 7.07565C10.0992 7.45116 10.7599 7.65159 11.4358 7.65159C11.8845 7.65159 12.3289 7.56325 12.7436 7.39151C13.1582 7.21977 13.5349 6.96805 13.8522 6.65072C14.1696 6.33339 14.4213 5.95666 14.593 5.54205C14.7647 5.12743 14.8531 4.68305 14.8531 4.23428C14.8531 3.55839 14.6527 2.89768 14.2772 2.3357C13.9017 1.77372 13.368 1.3357 12.7436 1.07704C12.1191 0.818387 11.432 0.750705 10.7691 0.882558C10.1062 1.01441 9.49731 1.33987 9.01939 1.81779C8.54146 2.29571 8.21598 2.90462 8.08411 3.56752C7.95225 4.23042 8.01992 4.91754 8.27856 5.54198C8.5372 6.16642 8.97521 6.70014 9.53719 7.07565ZM12.5353 11.6126C12.6222 11.5258 12.671 11.408 12.671 11.2851L12.7327 11.2851V9.96759C13.0433 9.91523 13.3496 9.83954 13.6488 9.74114V11.7277C13.6356 11.9917 13.5213 12.2405 13.3297 12.4225C13.1381 12.6046 12.8838 12.7059 12.6195 12.7056H7.52434V13.9511H10.2829C10.4276 13.9511 10.5664 14.0085 10.6687 14.1108C10.771 14.2132 10.8285 14.3519 10.8285 14.4966C10.8285 14.5678 10.8143 14.6382 10.7868 14.7038C10.7592 14.7695 10.7189 14.8289 10.6681 14.8788C10.6173 14.9286 10.557 14.9678 10.4909 14.9941C10.4248 15.0204 10.3541 15.0332 10.2829 15.0319H3.34531C3.27415 15.0332 3.20344 15.0204 3.13731 14.9941C3.07118 14.9678 3.01095 14.9286 2.96015 14.8788C2.90935 14.8289 2.869 14.7695 2.84146 14.7038C2.81392 14.6382 2.79974 14.5678 2.79975 14.4966C2.79975 14.425 2.81386 14.354 2.84128 14.2878C2.8687 14.2216 2.90888 14.1615 2.95954 14.1108C3.0102 14.0602 3.07034 14.02 3.13653 13.9926C3.20272 13.9652 3.27366 13.9511 3.34531 13.9511H6.11419V12.7365H1.02932C0.765016 12.7368 0.510708 12.6355 0.319086 12.4534C0.127464 12.2714 0.0132119 12.0226 0 11.7586V2.07269C0.0132162 1.80872 0.12747 1.55994 0.319092 1.3779C0.510714 1.19586 0.765018 1.09451 1.02932 1.09484H7.01997C6.84739 1.33525 6.69586 1.59009 6.56707 1.85654H1.42047C1.30279 1.85628 1.18942 1.90082 1.10339 1.98112C1.01736 2.06141 0.965115 2.17144 0.957269 2.28886V11.2851C0.957269 11.408 1.00607 11.5258 1.09294 11.6126C1.1798 11.6995 1.29762 11.7483 1.42047 11.7483H12.2078C12.3306 11.7483 12.4484 11.6995 12.5353 11.6126Z" fill="#098EFE"/>
<path fill-rule="evenodd" clip-rule="evenodd" d="M11.4358 7.65159C10.7599 7.65159 10.0992 7.45116 9.53719 7.07565C8.97521 6.70014 8.5372 6.16642 8.27856 5.54198C8.01992 4.91754 7.95225 4.23042 8.08411 3.56752C8.21598 2.90462 8.54146 2.29571 9.01939 1.81779C9.49731 1.33987 10.1062 1.01441 10.7691 0.882558C11.432 0.750705 12.1191 0.818387 12.7436 1.07704C13.368 1.3357 13.9017 1.77372 14.2772 2.3357C14.6527 2.89768 14.8531 3.55839 14.8531 4.23428C14.8531 4.68305 14.7647 5.12743 14.593 5.54205C14.4213 5.95666 14.1696 6.33339 13.8522 6.65072C13.5349 6.96805 13.1582 7.21977 12.7436 7.39151C12.3289 7.56325 11.8845 7.65159 11.4358 7.65159ZM11.0136 3.22068C11.1481 3.16899 11.2919 3.14609 11.4358 3.15349C11.5786 3.15213 11.7202 3.17908 11.8525 3.23279C11.9848 3.28649 12.1052 3.36589 12.2067 3.46638C12.3081 3.56688 12.3886 3.68649 12.4436 3.81829C12.4986 3.95009 12.5269 4.09148 12.5269 4.23428C12.5242 4.52282 12.4083 4.79878 12.2043 5.00282C12.0003 5.20686 11.7243 5.32267 11.4358 5.32536C11.2901 5.32468 11.1463 5.2931 11.0137 5.2327L9.70651 6.64289L9.20215 6.17969L10.4991 4.7798C10.4049 4.61338 10.3553 4.42548 10.355 4.23426C10.3476 4.09038 10.3705 3.94655 10.4222 3.81208C10.4739 3.6776 10.5532 3.55548 10.6551 3.45361C10.757 3.35173 10.8791 3.27238 11.0136 3.22068Z" fill="#098EFE"/>
<path d="M11.4358 4.63571C11.3293 4.63571 11.2272 4.59341 11.1519 4.51813C11.0766 4.44284 11.0343 4.34073 11.0343 4.23426C11.0369 4.12862 11.0801 4.02802 11.1548 3.9533C11.2295 3.87857 11.3301 3.83544 11.4358 3.83283C11.5422 3.83283 11.6444 3.87513 11.7196 3.95042C11.7949 4.0257 11.8372 4.12781 11.8372 4.23428C11.8386 4.28738 11.8292 4.34022 11.8095 4.38956C11.7899 4.43891 11.7604 4.48373 11.7228 4.52129C11.6852 4.55885 11.6404 4.58837 11.5911 4.60804C11.5417 4.62771 11.4889 4.63713 11.4358 4.63571Z" fill="#098EFE"/>
</g>
<defs>
<clipPath id="clip0_6_13439">
<rect width="16" height="16" fill="white"/>
</clipPath>
</defs>
</svg>
