<svg width="16" height="16" viewBox="0 0 16 16" fill="none" xmlns="http://www.w3.org/2000/svg">
<g clip-path="url(#clip0_7_13480)">
<path d="M15.9763 7.38416L14.2048 7.52131C14.321 8.97431 13.9241 10.4221 13.0832 11.6127C12.2424 12.8034 11.0108 13.6616 9.60263 14.0382C8.19448 14.4148 6.69887 14.2858 5.37595 13.6738C4.05303 13.0618 2.9865 12.0054 2.36186 10.6884C1.73722 9.37135 1.59399 7.87705 1.95709 6.46536C2.32019 5.05367 3.16664 3.81393 4.34922 2.96175C5.5318 2.10957 6.97569 1.69888 8.42973 1.80112C9.88378 1.90335 11.256 2.51204 12.3077 3.52131L10.8677 4.80131C10.8223 4.84052 10.7897 4.89246 10.7742 4.9504C10.7587 5.00833 10.7609 5.06959 10.7807 5.12624C10.8004 5.18289 10.8366 5.23231 10.8847 5.26811C10.9329 5.30391 10.9906 5.32444 11.0505 5.32702L14.9591 5.55559C15.0393 5.55966 15.1179 5.53194 15.1778 5.47846C15.2377 5.42497 15.2741 5.35003 15.2791 5.26988L15.5191 1.38416C15.5227 1.32442 15.5084 1.26496 15.4781 1.21339C15.4477 1.16182 15.4026 1.1205 15.3486 1.09472C15.2945 1.06894 15.2341 1.05987 15.1749 1.06868C15.1157 1.07749 15.0604 1.10377 15.0163 1.14417L13.6563 2.33274C12.7685 1.45341 11.6888 0.792232 10.502 0.401308C8.871 -0.135715 7.11051 -0.133713 5.48075 0.407016C3.851 0.947746 2.43848 1.99851 1.45199 3.40397C0.465497 4.80943 -0.0426023 6.495 0.00279816 8.21152C0.0481987 9.92803 0.64469 11.5844 1.70409 12.9357C2.7635 14.2871 4.22959 15.2617 5.88565 15.7155C7.54171 16.1694 9.29984 16.0783 10.9002 15.4558C12.5005 14.8333 13.858 13.7124 14.7721 12.2589C15.6863 10.8053 16.1084 9.09618 15.9763 7.38416ZM5.94198 3.88702C5.83918 3.82793 5.72269 3.7968 5.60412 3.79672C5.48555 3.79664 5.36902 3.82762 5.26615 3.88657C5.16327 3.94552 5.07763 4.03039 5.01774 4.13273C4.95786 4.23507 4.92583 4.35131 4.92483 4.46988V11.5213C4.92479 11.6403 4.95617 11.7572 5.01581 11.8601C5.07545 11.9631 5.16122 12.0484 5.26445 12.1076C5.36767 12.1667 5.4847 12.1976 5.60367 12.197C5.72265 12.1964 5.83935 12.1644 5.94198 12.1042L12.0448 8.58416C12.1489 8.52515 12.2355 8.43958 12.2958 8.33618C12.356 8.23278 12.3877 8.11526 12.3877 7.99559C12.3877 7.87593 12.356 7.7584 12.2958 7.655C12.2355 7.55161 12.1489 7.46604 12.0448 7.40702L5.94198 3.88702Z" fill="#00C8DC"/>
</g>
<defs>
<clipPath id="clip0_7_13480">
<rect width="16" height="16" fill="white"/>
</clipPath>
</defs>
</svg>
