<svg xmlns="http://www.w3.org/2000/svg" width="24" height="24" viewBox="0 0 24 24" fill="none">
  <path fill-rule="evenodd" clip-rule="evenodd" d="M13.4435 4.74089C12.802 3.62978 11.1983 3.62979 10.5568 4.7409L3.13691 17.5925C2.49541 18.7036 3.29729 20.0925 4.58029 20.0925H19.42C20.703 20.0925 21.5049 18.7036 20.8634 17.5925L13.4435 4.74089ZM10.7614 10.2961C10.5944 9.49389 11.2068 8.74088 12.0261 8.74088C12.8455 8.74088 13.4579 9.49389 13.2909 10.2961L12.4341 14.4117C12.342 14.8541 11.7103 14.8541 11.6182 14.4117L10.7614 10.2961ZM13.0483 16.5964C13.0483 17.1609 12.5907 17.6185 12.0262 17.6185C11.4617 17.6185 11.004 17.1609 11.004 16.5964C11.004 16.0319 11.4617 15.5743 12.0262 15.5743C12.5907 15.5743 13.0483 16.0319 13.0483 16.5964Z" fill="#F3B215"></path>
</svg>