<svg xmlns="http://www.w3.org/2000/svg" fill="none" viewBox="0 0 14 14" class="design-iconfont">
  <path d="M13.7856 0.21542C13.648 0.077816 13.4614 0.000511718 13.2668 0.000511718C13.0721 0.000511718 12.8855 0.077816 12.7479 0.21542L7.00038 5.96118L1.25287 0.214837C1.11518 0.0772245 0.928459 -5.46693e-05 0.733791 2.90169e-08C0.539123 5.47273e-05 0.35245 0.0774388 0.214837 0.215129C0.0772245 0.352819 -5.46693e-05 0.539535 2.90169e-08 0.734203C5.47273e-05 0.928872 0.0774388 1.11555 0.215129 1.25316L5.96264 7.00125L0.215129 12.7482C0.0796744 12.8862 0.0042017 13.0722 0.00512263 13.2656C0.00604355 13.459 0.0832837 13.6442 0.220046 13.781C0.356809 13.9178 0.542035 13.995 0.735444 13.9959C0.928854 13.9968 1.11481 13.9214 1.25287 13.7859L7.00038 8.03724L12.7479 13.7859C12.8859 13.9214 13.0719 13.9968 13.2653 13.9959C13.4587 13.995 13.6439 13.9178 13.7807 13.781C13.9175 13.6442 13.9947 13.459 13.9956 13.2656C13.9966 13.0722 13.9211 12.8862 13.7856 12.7482L8.03812 6.99834L13.7856 1.25024C14.0715 0.963828 14.0715 0.501833 13.7856 0.21542Z" fill="#333"/>
</svg>
