<svg xmlns="http://www.w3.org/2000/svg" fill="none" viewBox="0 0 14 14" class="design-iconfont">
  <path d="M12.9144 1.84466L1.85856 12.9005H4.82799C5.12426 12.9005 5.36442 13.1415 5.36442 13.4387C5.36442 13.736 5.12426 13.977 4.82799 13.977H0.536448C0.240181 13.977 0 13.736 0 13.4387V9.13277C0 8.99002 0.0565233 8.85312 0.15712 8.75218C0.20686 8.70223 0.265973 8.66259 0.331067 8.63554C0.396161 8.60849 0.465956 8.59455 0.536448 8.59453C0.678716 8.59453 0.815164 8.65124 0.915761 8.75218C1.01642 8.85326 1.07292 8.99012 1.07288 9.13277V12.0976L12.094 1.07648H9.15928C8.86301 1.07648 8.62285 0.835508 8.62285 0.538243C8.62285 0.240977 8.86301 0 9.15928 0H13.4508C13.7471 0 13.9873 0.240977 13.9873 0.538243V4.84418C13.9873 4.98693 13.9307 5.12383 13.8301 5.22477C13.7804 5.27472 13.7213 5.31436 13.6562 5.34142C13.5911 5.36847 13.5213 5.38241 13.4508 5.38243C13.3803 5.38241 13.3105 5.36847 13.2454 5.34142C13.1803 5.31436 13.1212 5.27472 13.0715 5.22477C12.9708 5.12369 12.9143 4.98683 12.9144 4.84418L12.9144 1.84466ZM0.548009 5.38812C0.477517 5.3881 0.407722 5.37416 0.342628 5.34711C0.277534 5.32006 0.218421 5.28042 0.16868 5.23047C0.0680201 5.12939 0.0115221 4.99253 0.0115605 4.84988V0.543937C0.0115605 0.246671 0.251741 0.00569442 0.548009 0.00569442H4.83955C5.13582 0.00569442 5.37598 0.246671 5.37598 0.543937C5.37598 0.841203 5.13582 1.08218 4.83955 1.08218H1.08444V4.84988C1.08444 4.99263 1.02793 5.12953 0.927337 5.23047C0.877595 5.28042 0.81848 5.32006 0.753383 5.34711C0.688286 5.37417 0.618504 5.3881 0.548009 5.38812ZM13.4226 14H9.13107C8.83481 14 8.59464 13.759 8.59464 13.4618C8.59464 13.1645 8.83481 12.9235 9.13107 12.9235H12.8862V9.15582C12.8862 8.85855 13.1263 8.61757 13.4226 8.61757C13.7189 8.61757 13.9591 8.85855 13.9591 9.15582V13.4618C13.9591 13.759 13.7189 14 13.4226 14Z" fill="#333"/>
</svg>
