<svg xmlns="http://www.w3.org/2000/svg" width="14" height="14" viewBox="0 0 14 14" fill="none">
  <path d="M8.61539 0.538467C8.6154 0.46771 8.62934 0.397652 8.65641 0.332313C8.68347 0.266974 8.72313 0.207639 8.7731 0.157711C8.87422 0.056672 9.01113 -3.87092e-05 9.15385 1.98237e-08H13.4615C13.7589 1.98237e-08 14 0.241085 14 0.538468V4.84616C14 5.14354 13.7589 5.38461 13.4615 5.38461C13.1642 5.38461 12.9231 5.14354 12.9231 4.84616V1.83837L6.85856 7.9204H9.82799C10.1243 7.9204 10.3644 8.16209 10.3644 8.4602C10.3644 8.75833 10.1243 9 9.82799 9H5.53645C5.24018 9 5 8.75833 5 8.4602V4.14182C5 3.99866 5.05652 3.86136 5.15712 3.76013C5.20686 3.71004 5.26597 3.67028 5.33107 3.64315C5.39616 3.61602 5.46596 3.60205 5.53645 3.60203C5.67872 3.60203 5.81516 3.6589 5.91576 3.76013C6.01642 3.86151 6.07292 3.99876 6.07288 4.14182V7.1152L12.0938 1.07692L9.15385 1.07692C9.01104 1.07692 8.87408 1.0202 8.7731 0.919223C8.72313 0.869294 8.68347 0.809956 8.65641 0.744614C8.62934 0.679272 8.6154 0.609228 8.61539 0.538467Z" fill="#fff"></path>
  <path d="M1.96007e-08 13.4615V9.15384C1.96007e-08 8.85646 0.241075 8.61539 0.538462 8.61539C0.835848 8.61539 1.07692 8.85646 1.07692 9.15384L1.07692 12.9231H4.84615C5.14354 12.9231 5.38462 13.1641 5.38462 13.4615C5.38462 13.7589 5.14354 14 4.84615 14L0.538461 14C0.241075 14 1.96007e-08 13.7589 1.96007e-08 13.4615Z" fill="#fff"></path>
  <path d="M0.538468 5.38462C0.46771 5.3846 0.397653 5.37066 0.332313 5.34359C0.266974 5.31653 0.207639 5.27687 0.157711 5.2269C0.0566722 5.12578 -3.84914e-05 4.98887 1.96007e-08 4.84615V0.538462C1.96007e-08 0.241075 0.241085 1.98237e-08 0.538468 1.98237e-08H4.84616C5.14354 1.98237e-08 5.38461 0.241075 5.38461 0.538462C5.38461 0.835848 5.14354 1.07692 4.84616 1.07692H1.07692V4.84615C1.07692 4.98896 1.0202 5.12592 0.919224 5.2269C0.869294 5.27687 0.809957 5.31653 0.744615 5.34359C0.679273 5.37066 0.609228 5.3846 0.538468 5.38462Z" fill="#fff"></path>
  <path d="M13.4615 14H9.15384C8.85646 14 8.61539 13.7589 8.61539 13.4615C8.61539 13.1642 8.85646 12.9231 9.15384 12.9231H12.9231V9.15385C12.9231 8.85646 13.1642 8.61538 13.4615 8.61538C13.7589 8.61538 14 8.85646 14 9.15385V13.4615C14 13.7589 13.7589 14 13.4615 14Z" fill="#fff"></path>
</svg>